<svg xmlns="http://www.w3.org/2000/svg" xmlns:xlink="http://www.w3.org/1999/xlink" viewBox="0 0 1366 768"><defs><linearGradient id="a" x1="373.85" y1="472.64" x2="441.41" y2="472.64" gradientUnits="userSpaceOnUse"><stop offset="0" stop-color="#0071b8"/><stop offset="1" stop-color="#4391ce"/></linearGradient><linearGradient id="b" x1="1083.73" y1="415.44" x2="1133.54" y2="415.44" xlink:href="#a"/><linearGradient id="c" x1="875.23" y1="587.44" x2="1219.54" y2="567.29" gradientUnits="userSpaceOnUse"><stop offset="0" stop-color="#ffdfe5"/><stop offset="0.62" stop-color="#ff86a0"/><stop offset="1" stop-color="#29a7de"/></linearGradient><linearGradient id="d" x1="876.51" y1="609.37" x2="1220.82" y2="589.22" xlink:href="#c"/><linearGradient id="e" x1="874.5" y1="575.02" x2="1218.81" y2="554.87" xlink:href="#c"/><linearGradient id="f" x1="875.88" y1="598.54" x2="1220.19" y2="578.4" xlink:href="#c"/><linearGradient id="g" x1="876.88" y1="615.72" x2="1221.19" y2="595.58" xlink:href="#c"/><linearGradient id="h" x1="879.18" y1="654.95" x2="1223.49" y2="634.8" xlink:href="#c"/><linearGradient id="i" x1="870.36" y1="504.21" x2="1214.67" y2="484.06" xlink:href="#c"/><linearGradient id="j" x1="869.07" y1="482.28" x2="1213.38" y2="462.13" xlink:href="#c"/><linearGradient id="k" x1="871.08" y1="516.63" x2="1215.39" y2="496.49" xlink:href="#c"/><linearGradient id="l" x1="869.71" y1="493.1" x2="1214.02" y2="472.96" xlink:href="#c"/><linearGradient id="m" x1="868.7" y1="475.93" x2="1213.01" y2="455.78" xlink:href="#c"/><linearGradient id="n" x1="866.41" y1="436.7" x2="1210.72" y2="416.56" xlink:href="#c"/><linearGradient id="o" x1="870.07" y1="499.36" x2="1214.38" y2="479.22" xlink:href="#c"/><linearGradient id="p" x1="868.64" y1="474.87" x2="1212.95" y2="454.73" xlink:href="#c"/><linearGradient id="q" x1="868.49" y1="472.28" x2="1212.8" y2="452.13" xlink:href="#c"/><linearGradient id="r" x1="866.03" y1="430.22" x2="1210.34" y2="410.07" xlink:href="#c"/><linearGradient id="s" x1="870.62" y1="508.73" x2="1214.93" y2="488.59" xlink:href="#c"/><linearGradient id="t" x1="868.98" y1="480.73" x2="1213.29" y2="460.59" xlink:href="#c"/><linearGradient id="u" x1="875.51" y1="592.29" x2="1219.82" y2="572.14" xlink:href="#c"/><linearGradient id="v" x1="876.94" y1="616.77" x2="1221.25" y2="596.63" xlink:href="#c"/><linearGradient id="w" x1="877.1" y1="619.37" x2="1221.41" y2="599.23" xlink:href="#c"/><linearGradient id="x" x1="879.56" y1="661.43" x2="1223.87" y2="641.29" xlink:href="#c"/><linearGradient id="y" x1="874.96" y1="582.91" x2="1219.27" y2="562.77" xlink:href="#c"/><linearGradient id="z" x1="876.6" y1="610.92" x2="1220.91" y2="590.77" xlink:href="#c"/><linearGradient id="aa" x1="872.79" y1="545.82" x2="1217.1" y2="525.68" xlink:href="#c"/><linearGradient id="ab" x1="872.79" y1="545.82" x2="1217.1" y2="525.68" xlink:href="#c"/><linearGradient id="ac" x1="635.48" y1="474.77" x2="501.63" y2="657.5" gradientUnits="userSpaceOnUse"><stop offset="0" stop-color="#644b9c"/><stop offset="1" stop-color="#fff"/></linearGradient><linearGradient id="ad" x1="335.05" y1="413.32" x2="203.25" y2="593.26" xlink:href="#ac"/><linearGradient id="ae" x1="1064.09" y1="472.26" x2="952.35" y2="624.81" xlink:href="#ac"/><linearGradient id="af" x1="769.3" y1="306.18" x2="1098.08" y2="306.18" gradientUnits="userSpaceOnUse"><stop offset="0" stop-color="#e4acbd"/><stop offset="1" stop-color="#fff"/></linearGradient><linearGradient id="ag" x1="792.08" y1="319.33" x2="1120.85" y2="319.33" xlink:href="#af"/><linearGradient id="ah" x1="814.85" y1="332.48" x2="1143.63" y2="332.48" xlink:href="#af"/><linearGradient id="ai" x1="837.63" y1="345.63" x2="1166.4" y2="345.63" xlink:href="#af"/><linearGradient id="aj" x1="860.4" y1="358.77" x2="1189.18" y2="358.77" xlink:href="#af"/><linearGradient id="ak" x1="746.53" y1="293.03" x2="1075.3" y2="293.03" xlink:href="#af"/><linearGradient id="al" x1="883.18" y1="371.92" x2="1211.95" y2="371.92" xlink:href="#af"/><linearGradient id="am" x1="905.95" y1="385.07" x2="1234.73" y2="385.07" xlink:href="#af"/><linearGradient id="an" x1="928.73" y1="398.22" x2="1257.5" y2="398.22" xlink:href="#af"/><linearGradient id="ao" x1="951.5" y1="411.37" x2="1280.28" y2="411.37" xlink:href="#af"/><linearGradient id="ap" x1="974.28" y1="424.52" x2="1303.05" y2="424.52" xlink:href="#af"/><linearGradient id="aq" x1="677.63" y1="326.19" x2="299.43" y2="187" xlink:href="#af"/><linearGradient id="ar" x1="670.65" y1="345.15" x2="292.46" y2="205.96" xlink:href="#af"/><linearGradient id="as" x1="663.67" y1="364.11" x2="285.48" y2="224.92" xlink:href="#af"/><linearGradient id="at" x1="656.69" y1="383.08" x2="278.5" y2="243.89" xlink:href="#af"/><linearGradient id="au" x1="649.71" y1="402.04" x2="271.52" y2="262.85" xlink:href="#af"/><linearGradient id="av" x1="684.61" y1="307.23" x2="306.41" y2="168.04" xlink:href="#af"/><linearGradient id="aw" x1="642.73" y1="421" x2="264.54" y2="281.81" xlink:href="#af"/><linearGradient id="ax" x1="635.75" y1="439.96" x2="257.56" y2="300.77" xlink:href="#af"/><linearGradient id="ay" x1="628.77" y1="458.93" x2="250.58" y2="319.74" xlink:href="#af"/><linearGradient id="az" x1="621.8" y1="477.89" x2="243.6" y2="338.7" xlink:href="#af"/><linearGradient id="ba" x1="614.82" y1="496.85" x2="236.62" y2="357.66" xlink:href="#af"/><clipPath id="bb"><path d="M669.48,319.34c0,8.37-5.09,18.1-11.37,21.73L495.42,435c-6.28,3.62-11.38-.23-11.38-8.6V243.94c0-8.37,5.1-18.1,11.38-21.73l162.69-93.93c6.28-3.62,11.37.22,11.37,8.6Z" style="fill:#1fbad2;opacity:0.30000000000000004"/></clipPath><linearGradient id="bc" x1="580.21" y1="444.53" x2="698.28" y2="444.53" gradientUnits="userSpaceOnUse"><stop offset="0" stop-color="#644b9c"/><stop offset="1" stop-color="#ff849e"/></linearGradient><linearGradient id="bd" x1="763.57" y1="411.46" x2="687.47" y2="411.46" gradientUnits="userSpaceOnUse"><stop offset="0" stop-color="#ff5980"/><stop offset="1" stop-color="#644b9c"/></linearGradient><linearGradient id="be" x1="654.07" y1="378.14" x2="682.99" y2="378.14" xlink:href="#bd"/><linearGradient id="bf" x1="594.44" y1="410.34" x2="623.53" y2="410.34" gradientUnits="userSpaceOnUse"><stop offset="0" stop-color="#644b9c"/><stop offset="1" stop-color="#ff5980"/></linearGradient><linearGradient id="bg" x1="710" y1="442.31" x2="611.69" y2="442.31" xlink:href="#bd"/><linearGradient id="bh" x1="642.64" y1="412.85" x2="668.53" y2="412.85" xlink:href="#bd"/><linearGradient id="bi" x1="682.99" y1="382.11" x2="728.6" y2="382.11" xlink:href="#bd"/><linearGradient id="bj" x1="916.66" y1="482.66" x2="622.58" y2="381.61" gradientUnits="userSpaceOnUse"><stop offset="0" stop-color="#ffdfe5"/><stop offset="0.67" stop-color="#ff86a0"/><stop offset="1" stop-color="#29a7de"/></linearGradient><linearGradient id="bk" x1="841.79" y1="493.92" x2="655.72" y2="493.92" xlink:href="#bd"/><linearGradient id="bl" x1="798.85" y1="446.36" x2="838.56" y2="446.36" xlink:href="#bd"/><linearGradient id="bm" x1="718.57" y1="458.97" x2="798.85" y2="458.97" xlink:href="#bd"/><linearGradient id="bn" x1="910.49" y1="500.62" x2="616.41" y2="399.57" xlink:href="#bj"/><linearGradient id="bo" x1="704.63" y1="282.41" x2="752.71" y2="310.94" gradientUnits="userSpaceOnUse"><stop offset="0" stop-color="#ffdfe5"/><stop offset="0.39" stop-color="#ff86a0"/><stop offset="1" stop-color="#29a7de"/></linearGradient><linearGradient id="bp" x1="722.63" y1="275.18" x2="742.73" y2="287.1" xlink:href="#bo"/><linearGradient id="bq" x1="619.84" y1="201.48" x2="619.84" y2="323.4" gradientUnits="userSpaceOnUse"><stop offset="0" stop-color="#032b3a"/><stop offset="1" stop-color="#3c82a2"/></linearGradient><linearGradient id="br" x1="580.92" y1="201.48" x2="580.92" y2="323.4" xlink:href="#bq"/><linearGradient id="bs" x1="619.84" y1="201.49" x2="619.84" y2="323.4" xlink:href="#bq"/><linearGradient id="bt" x1="580.92" y1="201.48" x2="580.92" y2="323.4" xlink:href="#bq"/><linearGradient id="bu" x1="572.81" y1="167.21" x2="649.96" y2="213.45" xlink:href="#bq"/><linearGradient id="bv" x1="584.19" y1="148.23" x2="661.34" y2="194.47" xlink:href="#bq"/><linearGradient id="bw" x1="584.67" y1="147.42" x2="661.82" y2="193.67" gradientTransform="translate(505.55 -479.79) rotate(60.1)" xlink:href="#bq"/><linearGradient id="bx" x1="573.29" y1="166.41" x2="650.44" y2="212.65" gradientTransform="translate(505.84 -454.6) rotate(60.1)" xlink:href="#bq"/><linearGradient id="by" x1="765.54" y1="253.27" x2="822.89" y2="286.58" xlink:href="#bq"/><linearGradient id="bz" x1="765.63" y1="253.11" x2="822.98" y2="286.42" gradientTransform="translate(687.04 -585.29) rotate(60)" xlink:href="#bq"/><linearGradient id="ca" x1="754.51" y1="272.26" x2="811.86" y2="305.57" xlink:href="#bq"/><linearGradient id="cb" x1="754.6" y1="272.11" x2="811.95" y2="305.42" gradientTransform="translate(687.36 -560.15) rotate(60)" xlink:href="#bq"/><linearGradient id="cc" x1="628.29" y1="403.79" x2="685.98" y2="286.35" gradientUnits="userSpaceOnUse"><stop offset="0" stop-color="#4457a4"/><stop offset="1" stop-color="#29a7de"/></linearGradient><linearGradient id="cd" x1="894.98" y1="263.3" x2="894.98" y2="395.16" xlink:href="#bq"/><linearGradient id="ce" x1="856.06" y1="263.3" x2="856.06" y2="395.16" xlink:href="#bq"/><linearGradient id="cf" x1="894.98" y1="263.29" x2="894.98" y2="395.16" xlink:href="#bq"/><linearGradient id="cg" x1="856.06" y1="263.3" x2="856.06" y2="395.16" xlink:href="#bq"/><linearGradient id="ch" x1="904.69" y1="590.28" x2="862.11" y2="391.8" xlink:href="#cc"/><linearGradient id="ci" x1="842.26" y1="304.06" x2="525.65" y2="127.56" gradientUnits="userSpaceOnUse"><stop offset="0" stop-color="#1fbad2"/><stop offset="1" stop-color="#438fcc"/></linearGradient><linearGradient id="cj" x1="708.87" y1="232.93" x2="766.13" y2="232.93" xlink:href="#cc"/><linearGradient id="ck" x1="708.87" y1="212.28" x2="766.13" y2="212.28" xlink:href="#cc"/><linearGradient id="cl" x1="175.44" y1="454.02" x2="293.52" y2="454.02" xlink:href="#bc"/><linearGradient id="cm" x1="358.81" y1="409.93" x2="282.71" y2="409.93" xlink:href="#bd"/><linearGradient id="cn" x1="249.3" y1="367.14" x2="278.23" y2="367.14" xlink:href="#bd"/><linearGradient id="co" x1="189.67" y1="399.34" x2="218.77" y2="399.34" xlink:href="#bf"/><linearGradient id="cp" x1="305.24" y1="451.92" x2="206.93" y2="451.92" xlink:href="#bd"/><linearGradient id="cq" x1="237.88" y1="404.66" x2="263.76" y2="404.66" xlink:href="#bd"/><linearGradient id="cr" x1="278.23" y1="371.12" x2="323.84" y2="371.12" xlink:href="#bd"/><linearGradient id="cs" x1="511.9" y1="471.66" x2="217.82" y2="370.61" xlink:href="#bj"/><linearGradient id="ct" x1="437.03" y1="503.53" x2="250.96" y2="503.53" xlink:href="#bd"/><linearGradient id="cu" x1="394.09" y1="449.1" x2="433.8" y2="449.1" xlink:href="#bd"/><linearGradient id="cv" x1="313.8" y1="454.84" x2="394.09" y2="454.84" xlink:href="#bd"/><linearGradient id="cw" x1="505.73" y1="489.62" x2="211.65" y2="388.58" xlink:href="#bj"/><linearGradient id="cx" x1="175.18" y1="539.36" x2="192.84" y2="539.36" gradientTransform="translate(249.28)" gradientUnits="userSpaceOnUse"><stop offset="0" stop-color="#efc299"/><stop offset="1" stop-color="#d19369"/></linearGradient><linearGradient id="cy" x1="171.79" y1="546.68" x2="187.33" y2="546.68" gradientTransform="translate(249.28)" gradientUnits="userSpaceOnUse"><stop offset="0" stop-color="#644b9e"/><stop offset="1" stop-color="#032b3a"/></linearGradient><linearGradient id="cz" x1="213.64" y1="477.98" x2="170.7" y2="479.63" gradientTransform="translate(249.28)" gradientUnits="userSpaceOnUse"><stop offset="0" stop-color="#0071b8"/><stop offset="1" stop-color="#2e318e"/></linearGradient><radialGradient id="da" cx="163.88" cy="457.8" r="19.13" gradientTransform="translate(249.28)" gradientUnits="userSpaceOnUse"><stop offset="0" stop-color="#1b1464"/><stop offset="1" stop-color="#2e318e"/></radialGradient><linearGradient id="db" x1="193.12" y1="545.1" x2="212.48" y2="545.1" xlink:href="#cx"/><linearGradient id="dc" x1="190.69" y1="551.58" x2="216.58" y2="551.58" xlink:href="#cy"/><linearGradient id="dd" x1="195.82" y1="441.87" x2="165.19" y2="497.31" xlink:href="#cz"/><radialGradient id="de" cx="177.24" cy="417.42" r="54.56" xlink:href="#da"/><linearGradient id="df" x1="5986.26" y1="337.98" x2="5968.46" y2="366.82" gradientTransform="matrix(-1, 0, 0, 1, 6363.34, 0)" xlink:href="#cy"/><linearGradient id="dg" x1="185.8" y1="433.37" x2="179" y2="381.52" xlink:href="#cx"/><linearGradient id="dh" x1="123.58" y1="397.35" x2="186.82" y2="397.35" gradientTransform="translate(249.28)" gradientUnits="userSpaceOnUse"><stop offset="0" stop-color="#32a3dc"/><stop offset="0.16" stop-color="#4194d1"/><stop offset="1" stop-color="#904098"/></linearGradient><linearGradient id="di" x1="123.58" y1="406.22" x2="170.42" y2="406.22" gradientTransform="translate(249.28)" gradientUnits="userSpaceOnUse"><stop offset="0" stop-color="#4457a6"/><stop offset="1" stop-color="#904098"/></linearGradient><linearGradient id="dj" x1="130.53" y1="371.6" x2="168.66" y2="372.05" xlink:href="#cx"/><linearGradient id="dk" x1="164.03" y1="345.6" x2="168.46" y2="345.6" xlink:href="#cx"/><linearGradient id="dl" x1="134.84" y1="343.45" x2="138.93" y2="343.45" xlink:href="#cx"/><linearGradient id="dm" x1="151.43" y1="356.88" x2="153.08" y2="330.31" xlink:href="#cx"/><linearGradient id="dn" x1="134.21" y1="331.15" x2="173.17" y2="331.15" xlink:href="#cy"/><linearGradient id="dp" x1="134.21" y1="329.93" x2="161.19" y2="329.93" xlink:href="#cy"/><linearGradient id="dq" x1="6673.55" y1="393.07" x2="6696" y2="404.71" gradientTransform="matrix(-1, 0, 0, 1, 7065.18, 0)" xlink:href="#cx"/><linearGradient id="dr" x1="368.37" y1="429.22" x2="374.38" y2="465.27" gradientUnits="userSpaceOnUse"><stop offset="0" stop-color="#efc299"/><stop offset="1" stop-color="#e7af82"/></linearGradient><linearGradient id="ds" x1="6671.47" y1="478.77" x2="6680.67" y2="465.69" gradientTransform="matrix(-1, 0, 0, 1, 7065.18, 0)" gradientUnits="userSpaceOnUse"><stop offset="0" stop-color="#efc299"/><stop offset="0.02" stop-color="#eec096"/><stop offset="0.18" stop-color="#eab68b"/><stop offset="0.4" stop-color="#e8b184"/><stop offset="1" stop-color="#e7af82"/></linearGradient><clipPath id="du"><polygon points="398.4 492.02 373.85 477.94 416.86 453.26 441.41 467.34 398.4 492.02" style="fill:url(#a)"/></clipPath><linearGradient id="dv" x1="385.18" y1="495.92" x2="380.55" y2="445.44" gradientTransform="matrix(1, 0, 0, 1, 0, 0)" xlink:href="#ds"/><linearGradient id="dw" x1="5708.37" y1="371.51" x2="5735.5" y2="391.46" gradientTransform="matrix(-1, 0, 0, 1, 6791.61, 0)" gradientUnits="userSpaceOnUse"><stop offset="0" stop-color="#034768"/><stop offset="1" stop-color="#4457a6"/></linearGradient><linearGradient id="dx" x1="5717.49" y1="387.63" x2="5751.37" y2="434.9" gradientTransform="matrix(-1, 0, 0, 1, 6791.61, 0)" gradientUnits="userSpaceOnUse"><stop offset="0" stop-color="#032b3a"/><stop offset="1" stop-color="#4457a6"/></linearGradient><linearGradient id="dy" x1="10508.33" y1="523.72" x2="10519.62" y2="523.72" gradientTransform="matrix(-1, 0, 0, 1, 11563.75, 0)" xlink:href="#dr"/><linearGradient id="dz" x1="10495.01" y1="485.14" x2="10568.35" y2="485.14" gradientTransform="matrix(-1, 0, 0, 1, 11563.75, 0)" xlink:href="#cz"/><linearGradient id="ea" x1="-385.77" y1="469.71" x2="-346.44" y2="469.71" gradientTransform="translate(1415.18)" xlink:href="#cz"/><linearGradient id="eb" x1="-427.25" y1="481.87" x2="-388.13" y2="500.32" gradientTransform="translate(1415.18)" xlink:href="#cz"/><linearGradient id="ec" x1="10546.48" y1="447.77" x2="10557.9" y2="431.03" gradientTransform="matrix(-1, 0, 0, 1, 11563.75, 0)" xlink:href="#cx"/><linearGradient id="ed" x1="-420.64" y1="368.9" x2="-361.74" y2="402.59" gradientTransform="translate(1415.18)" gradientUnits="userSpaceOnUse"><stop offset="0" stop-color="#1fbcd4"/><stop offset="1" stop-color="#644b9e"/></linearGradient><linearGradient id="ee" x1="-323.66" y1="401.96" x2="-437.57" y2="394.28" gradientTransform="translate(1415.18)" gradientUnits="userSpaceOnUse"><stop offset="0" stop-color="#32a3dc"/><stop offset="1" stop-color="#644b9e"/></linearGradient><linearGradient id="ef" x1="10549.67" y1="448.7" x2="10561.1" y2="431.95" gradientTransform="matrix(-1, 0, 0, 1, 11563.75, 0)" xlink:href="#cx"/><linearGradient id="eg" x1="-397.07" y1="411.46" x2="-437.01" y2="385.57" gradientTransform="translate(1415.18)" xlink:href="#dw"/><linearGradient id="eh" x1="-387.53" y1="400.45" x2="-450.01" y2="401.64" gradientTransform="translate(1415.18)" xlink:href="#dx"/><linearGradient id="ei" x1="10477.42" y1="372.12" x2="10553.4" y2="343.07" gradientTransform="matrix(-1, 0, 0, 1, 11563.75, 0)" xlink:href="#dw"/><linearGradient id="ej" x1="10521.72" y1="345.17" x2="10521.08" y2="353.79" gradientTransform="matrix(-1, 0, 0, 1, 11563.75, 0)" xlink:href="#cx"/><linearGradient id="ek" x1="10504.5" y1="329.76" x2="10509.89" y2="329.76" gradientTransform="matrix(-1, 0, 0, 1, 11563.75, 0)" xlink:href="#dr"/><linearGradient id="el" x1="10533.96" y1="329.76" x2="10539.35" y2="329.76" gradientTransform="matrix(-1, 0, 0, 1, 11563.75, 0)" xlink:href="#dr"/><linearGradient id="em" x1="10507.28" y1="330.66" x2="10536.66" y2="330.66" gradientTransform="matrix(-1, 0, 0, 1, 11563.75, 0)" xlink:href="#dr"/><radialGradient id="en" cx="10504.46" cy="301.77" fy="267.4660320893375" r="34.67" gradientTransform="matrix(-1, 0, 0, 1, 11563.75, 0)" gradientUnits="userSpaceOnUse"><stop offset="0" stop-color="#754c24"/><stop offset="1" stop-color="#42210b"/></radialGradient><radialGradient id="eo" cx="-387.43" cy="298.24" fy="298.2352155864892" r="27" gradientTransform="translate(1415.18)" xlink:href="#en"/><clipPath id="eq"><polygon points="1101.83 429.73 1083.73 419.35 1115.44 401.15 1133.55 411.53 1101.83 429.73" style="fill:url(#b)"/></clipPath><radialGradient id="er" cx="1025.61" cy="171.65" r="94.07" gradientUnits="userSpaceOnUse"><stop offset="0.05" stop-color="#e91f65"/><stop offset="0.14" stop-color="#cd3574"/><stop offset="0.71" stop-color="#1fbcd4"/></radialGradient><linearGradient id="es" x1="1012.9" y1="157.31" x2="1080.01" y2="195.67" gradientUnits="userSpaceOnUse"><stop offset="0" stop-color="#fff"/><stop offset="1" stop-color="#1fbcd4"/></linearGradient><linearGradient id="et" x1="2110.5" y1="-1925.17" x2="2081.9" y2="-1913.84" gradientTransform="matrix(0.5, -0.69, 0.9, 0.66, 1722.43, 2916.69)" xlink:href="#es"/><clipPath id="eu"><path d="M969.09,492.32c0,8.37-5.09,18.1-11.37,21.73L795,608c-6.28,3.62-11.37-.23-11.37-8.6V416.92c0-8.37,5.09-18.1,11.37-21.73l162.69-93.93c6.28-3.62,11.37.23,11.37,8.6Z" style="fill:none"/></clipPath><clipPath id="ev"><path d="M743.62,599.38c0,8.37-5.09,12.22-11.37,8.6L566.4,512.23C560.64,508.9,556,500,556,492.28V473.09c0-9.83-6-21.25-13.34-25.5L494.48,419.8c-5.76-3.33-10.44-12.26-10.44-19.95V267.05c0-8.37,5.1-12.22,11.38-8.59L732.25,395.19c6.28,3.63,11.37,13.36,11.37,21.73Z" style="fill:none"/></clipPath><radialGradient id="ew" cx="344.1" cy="274.71" r="203.66" xlink:href="#bj"/><linearGradient id="ex" x1="588.85" y1="506.68" x2="435.18" y2="716.46" xlink:href="#ac"/><linearGradient id="ey" x1="590.42" y1="539.79" x2="474.47" y2="698.09" xlink:href="#ac"/><linearGradient id="ez" x1="441.75" y1="632.77" x2="635.27" y2="632.77" gradientUnits="userSpaceOnUse"><stop offset="0" stop-color="#4457a6"/><stop offset="0.14" stop-color="#32a3dc"/><stop offset="0.27" stop-color="#4457a6"/><stop offset="0.44" stop-color="#445daa"/><stop offset="0.79" stop-color="#4391ce"/><stop offset="1" stop-color="#4457a6"/></linearGradient><linearGradient id="fa" x1="441.75" y1="615.87" x2="635.27" y2="615.87" gradientUnits="userSpaceOnUse"><stop offset="0" stop-color="#1fbcd4"/><stop offset="1" stop-color="#b697c5"/></linearGradient><radialGradient id="fb" cx="237.39" cy="261.28" r="100.04" xlink:href="#bj"/><radialGradient id="fc" cx="1117.37" cy="341" r="100.04" gradientTransform="translate(207.39 -403.46) rotate(22.5)" xlink:href="#bj"/><radialGradient id="fd" cx="234.32" cy="151.77" r="32.91" gradientTransform="translate(321.46 -116.73) rotate(76.72)" xlink:href="#bj"/><linearGradient id="fe" x1="5622.42" y1="833.68" x2="5569.85" y2="797.16" gradientTransform="translate(5589.99 4017.77) rotate(-149.4)" gradientUnits="userSpaceOnUse"><stop offset="0.1" stop-color="#f79720"/><stop offset="0.9" stop-color="#e91f65"/></linearGradient><linearGradient id="ff" x1="5576.18" y1="806.63" x2="5637.58" y2="806.63" xlink:href="#fe"/><linearGradient id="fg" x1="902.35" y1="1393.12" x2="961.94" y2="1393.12" gradientTransform="translate(1120.92 -1271.89) rotate(30.6)" xlink:href="#bj"/><linearGradient id="fh" x1="895.37" y1="1329.8" x2="935.98" y2="1329.8" gradientTransform="translate(1120.92 -1271.89) rotate(30.6)" xlink:href="#bd"/><linearGradient id="fi" x1="953.84" y1="1297.17" x2="906.03" y2="1307.73" gradientTransform="translate(1120.92 -1271.89) rotate(30.6)" xlink:href="#bj"/><linearGradient id="fj" x1="929.91" y1="1418.98" x2="934.39" y2="1418.98" gradientTransform="translate(1120.92 -1271.89) rotate(30.6)" xlink:href="#bd"/><linearGradient id="fk" x1="954.88" y1="1407.71" x2="974.63" y2="1407.71" gradientTransform="translate(1120.92 -1271.89) rotate(30.6)" xlink:href="#bd"/><linearGradient id="fl" x1="10356.19" y1="1408.75" x2="10375.94" y2="1408.75" gradientTransform="matrix(-0.86, -0.51, -0.51, 0.86, 10819.08, 4461.53)" xlink:href="#bd"/></defs><path d="M944.79,606.72a1.53,1.53,0,0,1-.09-2.84l74.38-48.37a4.87,4.87,0,0,1,4.63-.11,1.53,1.53,0,0,1,.09,2.84l-74.38,48.37A4.87,4.87,0,0,1,944.79,606.72Z" style="fill:url(#c)"/><path d="M940.4,609.57c-3.81-2.2-3.93-5.94-.26-8.32a14.26,14.26,0,0,1,13.58-.34c3.82,2.2,3.93,5.94.26,8.33A14.28,14.28,0,0,1,940.4,609.57Zm8.77-5.7a4.52,4.52,0,0,0-4.3.1,1.43,1.43,0,0,0,.08,2.65,4.54,4.54,0,0,0,4.31-.11A1.42,1.42,0,0,0,949.17,603.87Z" style="fill:url(#d)"/><path d="M870.82,600.18a1.53,1.53,0,0,1-.09-2.84l26.49-17.22a4.5,4.5,0,0,1,2.3-.64l47.24-1.17,55.15-35.86a4.85,4.85,0,0,1,4.63-.11,1.53,1.53,0,0,1,.09,2.84l-56.09,36.47a4.5,4.5,0,0,1-2.3.64L901,583.46l-25.54,16.61A4.84,4.84,0,0,1,870.82,600.18Z" style="fill:url(#e)"/><path d="M866.44,603c-3.82-2.21-3.94-5.94-.27-8.33a14.23,14.23,0,0,1,13.58-.33c3.82,2.2,3.94,5.93.26,8.32A14.24,14.24,0,0,1,866.44,603Zm8.77-5.71a4.52,4.52,0,0,0-4.31.11,1.42,1.42,0,0,0,.08,2.64,4.52,4.52,0,0,0,4.31-.11A1.42,1.42,0,0,0,875.21,597.33Z" style="fill:url(#f)"/><path d="M959.83,651.57a1.53,1.53,0,0,1-.09-2.84l25.54-16.61-.9-29a1.72,1.72,0,0,1,.91-1.45l56.09-36.47a4.82,4.82,0,0,1,4.63-.11,1.53,1.53,0,0,1,.09,2.84L991,603.83l.9,29a1.74,1.74,0,0,1-.91,1.45l-26.49,17.22A4.85,4.85,0,0,1,959.83,651.57Z" style="fill:url(#g)"/><path d="M955.44,654.42c-3.81-2.2-3.93-5.93-.26-8.32a14.26,14.26,0,0,1,13.58-.34c3.82,2.21,3.93,5.94.26,8.33A14.23,14.23,0,0,1,955.44,654.42Zm8.77-5.7a4.52,4.52,0,0,0-4.31.11,1.43,1.43,0,0,0,.09,2.64,4.52,4.52,0,0,0,4.31-.11A1.43,1.43,0,0,0,964.21,648.72Z" style="fill:url(#h)"/><path d="M1085.92,515a1.53,1.53,0,0,1-.09-2.84l74.38-48.37a4.87,4.87,0,0,1,4.63-.11,1.53,1.53,0,0,1,.09,2.84l-74.38,48.36A4.85,4.85,0,0,1,1085.92,515Z" style="fill:url(#i)"/><path d="M1155.91,469.44c-3.81-2.21-3.93-5.94-.26-8.33a14.23,14.23,0,0,1,13.58-.33c3.82,2.2,3.93,5.93.26,8.32A14.26,14.26,0,0,1,1155.91,469.44Zm8.77-5.71a4.52,4.52,0,0,0-4.31.11,1.43,1.43,0,0,0,.09,2.64,4.52,4.52,0,0,0,4.31-.11A1.42,1.42,0,0,0,1164.68,463.73Z" style="fill:url(#j)"/><path d="M1103.09,528a1.53,1.53,0,0,1-.09-2.84l56.09-36.47a4.6,4.6,0,0,1,2.3-.65l47.24-1.16,25.55-16.61a4.85,4.85,0,0,1,4.63-.12,1.54,1.54,0,0,1,.09,2.85l-26.49,17.22a4.46,4.46,0,0,1-2.29.64L1162.87,492l-55.14,35.86A4.89,4.89,0,0,1,1103.09,528Z" style="fill:url(#k)"/><path d="M1229.88,476c-3.82-2.2-3.93-5.94-.26-8.32a14.26,14.26,0,0,1,13.58-.34c3.81,2.2,3.93,5.94.26,8.33A14.28,14.28,0,0,1,1229.88,476Zm8.77-5.7a4.54,4.54,0,0,0-4.31.1,1.43,1.43,0,0,0,.08,2.65,4.54,4.54,0,0,0,4.31-.11A1.42,1.42,0,0,0,1238.65,470.27Z" style="fill:url(#l)"/><path d="M1063.62,505.22a1.53,1.53,0,0,1-.09-2.84l55.15-35.86-.91-29a1.71,1.71,0,0,1,.92-1.45l26.48-17.22a4.82,4.82,0,0,1,4.63-.11,1.53,1.53,0,0,1,.09,2.84l-25.54,16.61.91,29a1.75,1.75,0,0,1-.92,1.45l-56.09,36.47A4.85,4.85,0,0,1,1063.62,505.22Z" style="fill:url(#m)"/><path d="M1140.87,424.58c-3.81-2.2-3.93-5.93-.26-8.32a14.26,14.26,0,0,1,13.58-.34c3.82,2.21,3.93,5.94.26,8.33A14.23,14.23,0,0,1,1140.87,424.58Zm8.78-5.7a4.52,4.52,0,0,0-4.31.11,1.42,1.42,0,0,0,.08,2.64,4.52,4.52,0,0,0,4.31-.11A1.43,1.43,0,0,0,1149.65,418.88Z" style="fill:url(#n)"/><path d="M1017.86,516.63,940.58,472a1.53,1.53,0,0,1-.09-2.84,4.87,4.87,0,0,1,4.64-.12l77.28,44.62a1.53,1.53,0,0,1,.09,2.84A4.87,4.87,0,0,1,1017.86,516.63Z" style="fill:url(#o)"/><path d="M936.19,474.86c-3.81-2.2-3.93-5.93-.26-8.32a14.26,14.26,0,0,1,13.58-.34c3.82,2.2,3.93,5.94.26,8.33A14.25,14.25,0,0,1,936.19,474.86Zm8.78-5.7a4.54,4.54,0,0,0-4.31.1,1.43,1.43,0,0,0,.08,2.65,4.52,4.52,0,0,0,4.31-.11A1.43,1.43,0,0,0,945,469.16Z" style="fill:url(#p)"/><path d="M1039.52,505.82l-58.27-33.65a1.76,1.76,0,0,1-1-1.4l-.9-29L952.8,426.48a1.53,1.53,0,0,1-.09-2.84,4.87,4.87,0,0,1,4.63-.11l27.52,15.89a1.76,1.76,0,0,1,1,1.39l.9,29,57.3,33.08a1.53,1.53,0,0,1,.09,2.84A4.87,4.87,0,0,1,1039.52,505.82Z" style="fill:url(#q)"/><path d="M948.41,429.34c-3.81-2.21-3.93-5.94-.26-8.33a14.23,14.23,0,0,1,13.58-.33c3.81,2.2,3.93,5.93.26,8.32A14.26,14.26,0,0,1,948.41,429.34Zm8.77-5.71a4.52,4.52,0,0,0-4.31.11,1.42,1.42,0,0,0,.09,2.64,4.52,4.52,0,0,0,4.31-.11A1.43,1.43,0,0,0,957.18,423.63Z" style="fill:url(#r)"/><path d="M894.66,498.07l-27.52-15.88a1.54,1.54,0,0,1-.09-2.85,4.87,4.87,0,0,1,4.63-.11l26.54,15.32,47.25-1.16a4.54,4.54,0,0,1,2.33.53l58.28,33.64a1.53,1.53,0,0,1,.09,2.84,4.87,4.87,0,0,1-4.64.12l-57.3-33.08L897,498.6A4.35,4.35,0,0,1,894.66,498.07Z" style="fill:url(#s)"/><path d="M862.75,485c-3.82-2.2-3.93-5.94-.26-8.33a14.28,14.28,0,0,1,13.58-.33c3.81,2.2,3.93,5.94.26,8.32A14.26,14.26,0,0,1,862.75,485Zm8.77-5.71a4.52,4.52,0,0,0-4.31.11,1.43,1.43,0,0,0,.08,2.64,4.56,4.56,0,0,0,4.32-.1A1.43,1.43,0,0,0,871.52,479.33Z" style="fill:url(#t)"/><path d="M1164.51,601.29l-77.29-44.61a1.54,1.54,0,0,1-.08-2.85,4.87,4.87,0,0,1,4.63-.11l77.28,44.62a1.53,1.53,0,0,1,.09,2.84A4.82,4.82,0,0,1,1164.51,601.29Z" style="fill:url(#u)"/><path d="M1160.12,604.15c-3.81-2.21-3.93-5.94-.26-8.33a14.23,14.23,0,0,1,13.58-.33c3.81,2.2,3.93,5.93.26,8.32A14.26,14.26,0,0,1,1160.12,604.15Zm8.77-5.71a4.52,4.52,0,0,0-4.31.11,1.43,1.43,0,0,0,.08,2.64,4.51,4.51,0,0,0,4.31-.11A1.42,1.42,0,0,0,1168.89,598.44Z" style="fill:url(#v)"/><path d="M1152.29,646.82l-27.52-15.89a1.74,1.74,0,0,1-1-1.4l-.91-29-57.3-33.08a1.53,1.53,0,0,1-.09-2.84,4.87,4.87,0,0,1,4.64-.12l58.28,33.65a1.76,1.76,0,0,1,1,1.39l.9,29,26.55,15.32a1.53,1.53,0,0,1,.08,2.84A4.85,4.85,0,0,1,1152.29,646.82Z" style="fill:url(#w)"/><path d="M1147.9,649.67c-3.81-2.2-3.93-5.94-.26-8.32a14.26,14.26,0,0,1,13.58-.34c3.82,2.2,3.93,5.94.26,8.33A14.28,14.28,0,0,1,1147.9,649.67Zm8.78-5.7a4.54,4.54,0,0,0-4.31.1,1.43,1.43,0,0,0,.08,2.65,4.54,4.54,0,0,0,4.31-.11A1.43,1.43,0,0,0,1156.68,644Z" style="fill:url(#x)"/><path d="M1161.83,576.43l-58.28-33.65a1.53,1.53,0,0,1-.09-2.84,4.89,4.89,0,0,1,4.64-.11l57.3,33.08,47.24-1.17a4.6,4.6,0,0,1,2.34.53l27.52,15.89a1.53,1.53,0,0,1,.08,2.84,4.85,4.85,0,0,1-4.63.12l-26.54-15.33L1164.16,577A4.56,4.56,0,0,1,1161.83,576.43Z" style="fill:url(#y)"/><path d="M1233.56,594c-3.81-2.2-3.93-5.94-.26-8.32a14.26,14.26,0,0,1,13.58-.34c3.82,2.2,3.94,5.94.26,8.33A14.28,14.28,0,0,1,1233.56,594Zm8.78-5.7a4.52,4.52,0,0,0-4.31.1,1.42,1.42,0,0,0,.08,2.64,4.52,4.52,0,0,0,4.31-.1A1.42,1.42,0,0,0,1242.34,588.27Z" style="fill:url(#z)"/><polygon points="1056.11 576.67 987.14 536.85 1053.52 493.68 1122.49 533.5 1056.11 576.67" style="fill:url(#aa)"/><path d="M1053.84,578.14l-69-39.82a1.53,1.53,0,0,1-.09-2.84l66.38-43.16a4.85,4.85,0,0,1,4.63-.12l69,39.82a1.54,1.54,0,0,1,.09,2.85L1058.47,578A4.82,4.82,0,0,1,1053.84,578.14Zm-62.07-41.41L1056,573.82l61.84-40.2-64.25-37.1Z" style="fill:url(#ab)"/><polygon points="616.37 735.97 315.54 560.86 464.23 473.46 765.05 648.57 616.37 735.97" style="opacity:0.30000000000000004;fill:url(#ac)"/><polygon points="271.02 640.41 62.95 529.55 211.63 442.15 419.7 553.01 271.02 640.41" style="opacity:0.30000000000000004;fill:url(#ad)"/><polygon points="935.16 645.34 895.85 611.19 1044.53 523.79 1073.46 550.23 935.16 645.34" style="opacity:0.30000000000000004;fill:url(#ae)"/><polygon points="1084.65 210.99 1098.08 218.74 782.73 401.37 769.3 393.62 1084.65 210.99" style="fill:url(#af)"/><polygon points="1107.43 224.14 1120.85 231.89 805.5 414.51 792.08 406.76 1107.43 224.14" style="fill:url(#ag)"/><polygon points="1130.2 237.29 1143.63 245.04 828.28 427.66 814.85 419.91 1130.2 237.29" style="fill:url(#ah)"/><polygon points="1152.98 250.44 1166.4 258.19 851.05 440.81 837.63 433.06 1152.98 250.44" style="fill:url(#ai)"/><polygon points="1175.75 263.59 1189.18 271.34 873.83 453.96 860.4 446.21 1175.75 263.59" style="fill:url(#aj)"/><polygon points="1061.88 197.84 1075.3 205.59 759.95 388.22 746.53 380.47 1061.88 197.84" style="fill:url(#ak)"/><polygon points="1198.53 276.74 1211.95 284.49 896.6 467.11 883.18 459.36 1198.53 276.74" style="fill:url(#al)"/><polygon points="1221.3 289.88 1234.73 297.63 919.38 480.26 905.95 472.51 1221.3 289.88" style="fill:url(#am)"/><polygon points="1244.08 303.03 1257.5 310.78 942.15 493.41 928.73 485.66 1244.08 303.03" style="fill:url(#an)"/><polygon points="1266.85 316.18 1280.28 323.93 964.93 506.56 951.5 498.81 1266.85 316.18" style="fill:url(#ao)"/><polygon points="1289.63 329.33 1303.05 337.08 987.7 519.71 974.28 511.96 1289.63 329.33" style="fill:url(#ap)"/><polygon points="387.33 179.72 373.91 187.47 689.26 370.1 702.68 362.35 387.33 179.72" style="fill:url(#aq)"/><polygon points="364.55 192.87 351.13 200.62 666.48 383.24 679.9 375.49 364.55 192.87" style="fill:url(#ar)"/><polygon points="341.78 206.02 328.36 213.77 643.71 396.39 657.13 388.64 341.78 206.02" style="fill:url(#as)"/><polygon points="319 219.17 305.58 226.92 620.93 409.54 634.35 401.79 319 219.17" style="fill:url(#at)"/><polygon points="296.23 232.32 282.81 240.07 598.16 422.69 611.58 414.94 296.23 232.32" style="fill:url(#au)"/><polygon points="410.1 166.57 396.68 174.32 712.03 356.94 725.45 349.2 410.1 166.57" style="fill:url(#av)"/><polygon points="273.45 245.47 260.03 253.22 575.38 435.84 588.8 428.09 273.45 245.47" style="fill:url(#aw)"/><polygon points="250.68 258.61 237.26 266.36 552.61 448.99 566.03 441.24 250.68 258.61" style="fill:url(#ax)"/><polygon points="227.9 271.76 214.48 279.51 529.83 462.14 543.25 454.39 227.9 271.76" style="fill:url(#ay)"/><polygon points="205.13 284.91 191.71 292.66 507.06 475.29 520.48 467.54 205.13 284.91" style="fill:url(#az)"/><polygon points="182.35 298.06 168.93 305.81 484.28 488.44 497.7 480.69 182.35 298.06" style="fill:url(#ba)"/><rect x="738.93" y="34.01" width="11.36" height="153.18" transform="translate(44.47 387.15) rotate(-30)" style="fill:#ffcf45"/><path d="M695.3,76.33c0,34.43,24.33,76.38,54.33,93.71s54.33,3.45,54.33-31-24.32-76.38-54.33-93.7c-15-8.67-28.58-9.53-38.41-3.92S695.3,59.12,695.3,76.33Z" style="fill:#ffcf45"/><path d="M685.38,82.06c0,34.43,24.33,76.38,54.33,93.71s54.33,3.45,54.33-31-24.33-76.38-54.33-93.71c-15-8.63-28.5-9.52-38.33-4S685.38,64.79,685.38,82.06Z" style="fill:#fcbe15"/><path d="M688.09,79.08V77.91c0-48,49.09-80.35,93.2-61.42l62.87,27a53.2,53.2,0,0,1,32.21,48.89" style="fill:none;stroke:#ff5980;stroke-miterlimit:10;stroke-width:4px"/><ellipse cx="739.71" cy="113.43" rx="38" ry="65.82" transform="translate(43.87 388.83) rotate(-30.31)" style="fill:#ff5980"/><rect x="715.02" y="54.22" width="26.46" height="131.64" transform="translate(1418.96 -140.13) rotate(150)" style="fill:#ff5980"/><rect x="705.27" y="53.42" width="11.36" height="153.18" transform="translate(30.25 372.92) rotate(-30)" style="fill:#ffcf45"/><path d="M661.65,95.74c0,34.43,24.32,76.39,54.32,93.71s54.33,3.45,54.33-31S746,82.09,716,64.77c-15-8.66-28.58-9.53-38.41-3.92S661.65,78.53,661.65,95.74Z" style="fill:#ffcf45"/><path d="M651.72,101.47c0,34.43,24.33,76.39,54.33,93.71s54.33,3.45,54.33-31-24.32-76.38-54.33-93.7c-15-8.64-28.5-9.52-38.33-4S651.72,84.21,651.72,101.47Z" style="fill:#fcbe15"/><g style="opacity:0.30000000000000004"><path d="M669.48,319.34c0,8.37-5.09,18.1-11.37,21.73L495.42,435c-6.28,3.62-11.38-.23-11.38-8.6V243.94c0-8.37,5.1-18.1,11.38-21.73l162.69-93.93c6.28-3.62,11.37.22,11.37,8.6Z" style="fill:#1fbad2;opacity:0.30000000000000004"/><g style="clip-path:url(#bb)"><rect x="515.49" y="99.18" width="32.69" height="368.41" transform="translate(166.52 -195.89) rotate(24.63)" style="fill:#fff"/><rect x="579.02" y="100.35" width="32.69" height="368.41" transform="translate(172.79 -222.26) rotate(24.63)" style="fill:#fff"/></g></g><polygon points="688.09 346.73 464.03 476.09 763.64 649.07 987.7 519.71 688.09 346.73" style="fill:#1fbad2"/><path d="M464,217.36V476.09L688.09,346.73V88Zm205.45,102c0,8.37-5.09,18.1-11.37,21.73L495.42,435c-6.28,3.62-11.38-.23-11.38-8.6V243.94c0-8.37,5.1-18.1,11.38-21.73l162.69-93.93c6.28-3.62,11.37.22,11.37,8.6Z" style="fill:#637f80"/><polygon points="555.2 388.93 555.2 423.5 579.16 437.33 579.16 402.77 555.2 388.93" style="fill:#f18d1e"/><polygon points="579.16 402.77 579.16 437.33 642.19 400.94 642.19 366.37 579.16 402.77" style="fill:#f5aa3b"/><polygon points="618.23 352.54 555.2 388.93 555.2 388.93 579.16 402.77 642.19 366.37 618.23 352.54" style="fill:#ffcf45"/><polygon points="699.09 367.46 540.26 459.16 752.64 581.77 911.47 490.07 699.09 367.46" style="fill:#ffdde3"/><polygon points="540.26 459.16 540.26 477.02 752.64 599.64 752.64 581.77 540.26 459.16" style="fill:#ce89a0"/><polygon points="752.64 581.77 752.64 599.64 911.47 507.94 911.47 490.07 752.64 581.77" style="fill:#e4acbd"/><path d="M678,419.61l-.3-.16-13.64-7.88-21.41,12.36,14.08,8.13q8.32,4.8,9.12,9.79t-8.59,10.41a28.78,28.78,0,0,1-15.33,3.6,33.7,33.7,0,0,1-16.41-4.6q-6.78-3.92-7.24-9t5.26-8.39l-29.09-16.79q-10.5,6-13.32,13.93t3,16.62q5.87,8.76,18.13,15.84a101.46,101.46,0,0,0,43.8,13.76q22.85,1.68,39.48-7.93,10.74-6.19,12.37-13.68a15.38,15.38,0,0,0-1.5-10.35C687.29,439.85,680.44,430.07,678,419.61Z" style="fill:url(#bc)"/><path d="M753.61,386.8l-17.65-2L733,391.59c-1-.61-2-1.22-3-1.83a90.65,90.65,0,0,0-25.72-9.88A86.58,86.58,0,0,0,677,378a55.94,55.94,0,0,0-23,6.92L683,401.63q4.93-2.86,12.52-2.33c.76.06,1.49.14,2.22.23l-12.91,1.38,2.51,22.46a35.79,35.79,0,0,1-9.34-3.76c2.45,10.46,9.3,20.24,18.46,25.66a26.5,26.5,0,0,0-3.24-4.95A84.06,84.06,0,0,0,719.14,442q12-1.26,20.07-5.89,14-8.1,14.37-18.2h0Z" style="fill:url(#bd)"/><polygon points="682.99 371.35 682.99 401.63 654.07 384.93 654.07 354.65 682.99 371.35" style="fill:url(#be)"/><polygon points="623.53 403.59 623.53 433.87 594.44 417.08 594.44 386.8 623.53 403.59" style="fill:url(#bf)"/><path d="M688.56,423.65a35.41,35.41,0,0,1-10.87-4.2l-13.64-7.88-21.41,12.36,11.78,6.8-11.78,3.14-36.71-10.95-25.72-15.78v29.25h0a20.73,20.73,0,0,0,4,11.24q5.87,8.76,18.13,15.84a101.46,101.46,0,0,0,43.8,13.76q22.85,1.68,39.48-7.93,10.74-6.19,12.37-13.68a14.15,14.15,0,0,0,.33-2.74v-.33c0-.11,0-.22,0-.32h0V422.39Z" style="fill:url(#bg)"/><polygon points="642.64 393.65 642.64 423.93 656.72 432.06 668.53 421.85 665.33 401.63 642.64 393.65" style="fill:url(#bh)"/><path d="M683,371.35v-8.79l34.75,3,10.86,24.45-18.37,11.58s-21.89.07-22.53,0-4.71-9.89-4.71-9.89Z" style="fill:url(#bi)"/><path d="M664.05,381.29l13.64,7.88q16.23,9.36,32,.26,6.15-3.56,6.16-8t-7-8.53A30.51,30.51,0,0,0,695.51,369q-7.57-.52-12.52,2.33l-28.92-16.7a56.09,56.09,0,0,1,23-6.92,86.58,86.58,0,0,1,27.22,1.87A91,91,0,0,1,730,359.48q20.85,12,23.31,24.39t-14.08,21.91q-8,4.62-20.07,5.89A84.06,84.06,0,0,1,693.21,410q6.36,7.81,4.74,15.3T685.58,439q-16.64,9.6-39.48,7.93a101.46,101.46,0,0,1-43.8-13.76q-12.27-7.08-18.13-15.84t-3-16.62q2.83-7.87,13.32-13.93l29.09,16.79q-5.71,3.3-5.26,8.39t7.24,9a33.7,33.7,0,0,0,16.41,4.6,28.78,28.78,0,0,0,15.33-3.6q9.39-5.42,8.59-10.41t-9.12-9.79l-14.08-8.13Z" style="fill:url(#bj)"/><path d="M858.87,453.8l-9.53,8a62.19,62.19,0,0,0-10.78-9.07c-8.3,4.23-16.55,8.64-24.71,13.3q7,5.36,7.18,11.42L775.1,496.15,734,494.44l34.79-20.08c-6.87-8-13.9-15.75-19.59-24.48l-56.28,32.5-29-13.54v30.28l42.3,24.42a110,110,0,0,0,38.18,12.88,131.52,131.52,0,0,0,42.78-.43,117.54,117.54,0,0,0,38.91-13.86l5.88-3.39q17.3-10.08,23.65-22.57a28.22,28.22,0,0,0,3.28-13.12h0Z" style="fill:url(#bk)"/><path d="M832.08,456.07q3.24-1.69,6.48-3.35c-1.73-1.17-3.56-2.33-5.51-3.45l-1.6-.93-1.54-18.67-31.06-3v2.83h0V457l10.42,6a42.8,42.8,0,0,1,4.58,3q6.78-3.87,13.64-7.52l4.82.26Z" style="fill:url(#bl)"/><polygon points="798.85 426.7 798.85 456.98 739.53 491.23 718.57 473.06 798.85 426.7" style="fill:url(#bm)"/><path d="M663.88,468.84l127.76-73.76L833.05,419q17,9.84,23,22.12t-.43,24.78q-6.36,12.48-23.65,22.57l-5.88,3.39a117.32,117.32,0,0,1-38.91,13.86,131.52,131.52,0,0,1-42.78.43,110,110,0,0,1-38.18-12.88Zm135-42.14-80.28,46.36,10.77,6.22q13.32,7.7,29.92,6.38t35.18-12.06l5.53-3.19q18.51-10.7,20.75-20.24t-11.45-17.45Z" style="fill:url(#bn)"/><polygon points="411.93 503.06 398.13 495.09 455.11 489.97 468.91 497.94 411.93 503.06" style="fill:#fcbe15"/><polygon points="499.5 553.62 485.7 545.65 542.68 540.53 556.48 548.5 499.5 553.62" style="fill:#fcbe15"/><polygon points="587.08 604.18 573.28 596.21 630.26 591.09 644.06 599.06 587.08 604.18" style="fill:#fcbe15"/><polygon points="674.66 654.74 660.86 646.78 717.83 641.65 731.63 649.62 674.66 654.74" style="fill:#fcbe15"/><polygon points="390.04 490.42 376.24 482.45 433.21 477.33 447.01 485.3 390.04 490.42" style="fill:#fcbe15"/><polygon points="477.61 540.98 463.81 533.01 520.79 527.89 534.59 535.86 477.61 540.98" style="fill:#fcbe15"/><polygon points="565.19 591.54 551.39 583.57 608.36 578.45 622.16 586.42 565.19 591.54" style="fill:#fcbe15"/><polygon points="652.76 642.1 638.96 634.14 695.94 629.01 709.74 636.98 652.76 642.1" style="fill:#fcbe15"/><polygon points="368.14 477.78 354.34 469.81 411.32 464.69 425.12 472.65 368.14 477.78" style="fill:#fcbe15"/><polygon points="455.72 528.34 441.92 520.37 498.89 515.25 512.69 523.22 455.72 528.34" style="fill:#fcbe15"/><polygon points="543.29 578.9 529.49 570.93 586.47 565.81 600.27 573.78 543.29 578.9" style="fill:#fcbe15"/><polygon points="630.87 629.46 617.07 621.5 674.04 616.37 687.85 624.34 630.87 629.46" style="fill:#fcbe15"/><polygon points="346.25 465.14 332.45 457.17 389.42 452.05 403.23 460.01 346.25 465.14" style="fill:#fcbe15"/><polygon points="433.82 515.7 420.02 507.73 477 502.61 490.8 510.58 433.82 515.7" style="fill:#fcbe15"/><polygon points="521.4 566.26 507.6 558.29 564.58 553.17 578.38 561.14 521.4 566.26" style="fill:#fcbe15"/><polygon points="608.98 616.82 595.17 608.86 652.15 603.73 665.95 611.7 608.98 616.82" style="fill:#fcbe15"/><polygon points="696.55 667.38 682.75 659.42 739.73 654.29 753.53 662.26 696.55 667.38" style="fill:#fcbe15"/><polygon points="718.44 680.02 704.64 672.06 761.62 666.93 775.42 674.9 718.44 680.02" style="fill:#fcbe15"/><polygon points="740.34 692.66 726.54 684.7 783.51 679.58 797.32 687.54 740.34 692.66" style="fill:#fcbe15"/><polygon points="762.23 705.31 748.43 697.34 805.41 692.22 819.21 700.18 762.23 705.31" style="fill:#fcbe15"/><polygon points="987.7 519.71 688.09 346.73 688.09 88 987.7 260.98 987.7 519.71" style="fill:#374047"/><path d="M730.37,412.21l-1.57.27c-1.06.18-2.54.41-4.32.6a78.05,78.05,0,0,1-13,.32c-1.18-.07-2.35-.16-3.49-.29s-2.27-.28-3.36-.42c-2.16-.33-4.16-.73-5.86-1.12s-3.09-.77-4.06-1.08l-1.52-.45,1.57.22c1,.16,2.43.3,4.14.47s3.72.22,5.86.23c1.07,0,2.18,0,3.29-.08s2.26-.12,3.39-.23a74.45,74.45,0,0,0,12.19-2.13c1.63-.42,3-.85,3.86-1.13l1.5-.51a2.75,2.75,0,0,1,1.76,5.22A3.45,3.45,0,0,1,730.37,412.21Z" style="fill:#e71f65"/><path d="M735.42,316.45v91.23a47.08,47.08,0,0,1-5.73,1.87" style="fill:none;stroke:#e71f65;stroke-linecap:round;stroke-linejoin:round;stroke-width:4px"/><path d="M742.17,282.76H728.69v34.07h0c-.09,1.06.55,2.13,2,2.95a10.55,10.55,0,0,0,9.54,0,3.16,3.16,0,0,0,1.92-3h0Z" style="fill:url(#bo)"/><path d="M740.21,285.53a10.58,10.58,0,0,1-9.54,0c-2.65-1.53-2.66-4,0-5.51a10.55,10.55,0,0,1,9.54,0C742.82,281.54,742.83,284,740.21,285.53Z" style="fill:url(#bp)"/><path d="M763.64,390.34V649.07L987.7,519.71V261Zm205.45,102c0,8.37-5.09,18.1-11.37,21.73L795,608c-6.28,3.62-11.37-.23-11.37-8.6V416.92c0-8.37,5.09-18.1,11.37-21.73l162.69-93.93c6.28-3.62,11.37.23,11.37,8.6Z" style="fill:#e4acbd"/><rect x="615.03" y="171.61" width="9.62" height="196" style="fill:url(#bq)"/><rect x="576.12" y="189.96" width="9.62" height="200.12" style="fill:url(#br)"/><path d="M616.44,369.57a7.49,7.49,0,0,0,6.79,0c1.88-1.09,1.89-2.84,0-3.92a7.52,7.52,0,0,0-6.79,0C614.58,366.74,614.57,368.49,616.44,369.57Z" style="fill:url(#bs)"/><path d="M577.52,392a7.49,7.49,0,0,0,6.79,0c1.88-1.09,1.89-2.84,0-3.92a7.52,7.52,0,0,0-6.79,0C575.66,389.21,575.65,391,577.52,392Z" style="fill:url(#bt)"/><polygon points="555.2 164.8 555.2 199.36 579.16 213.19 579.16 178.63 555.2 164.8" style="fill:#f18d1e"/><polygon points="579.16 178.63 579.16 213.19 642.19 176.8 642.19 142.24 579.16 178.63" style="fill:#f5aa3b"/><polygon points="618.23 128.41 555.2 164.8 555.2 164.8 579.16 178.63 642.19 142.24 618.23 128.41" style="fill:#ffcf45"/><path d="M598.68,188.27c-1.32-.74-1.33-3.19,0-5.47s3.45-3.52,4.77-2.78,1.34,3.18,0,5.46S600,189,598.68,188.27Z" style="fill:url(#bu)"/><path d="M620.3,175.42c-1.33-.74-1.34-3.19,0-5.46s3.45-3.53,4.78-2.79,1.34,3.18,0,5.46S621.63,176.16,620.3,175.42Z" style="fill:url(#bv)"/><rect x="662.63" y="145.4" width="9.61" height="103.26" transform="translate(163.94 677.42) rotate(-60.1)" style="fill:url(#bw)"/><rect x="641.01" y="158.25" width="9.61" height="103.26" transform="translate(141.96 665.13) rotate(-60.1)" style="fill:url(#bx)"/><polygon points="661.76 226.62 661.76 261.18 746.05 309.85 746.05 275.28 661.76 226.62" style="fill:#f18d1e"/><polygon points="746.05 275.28 746.05 309.85 809.08 273.45 809.08 238.89 746.05 275.28" style="fill:#f5aa3b"/><polygon points="724.79 190.23 661.76 226.62 746.05 275.28 809.08 238.89 724.79 190.23" style="fill:#ffcf45"/><path d="M788.58,272.16c-1.32-.74-1.33-3.19,0-5.47s3.45-3.52,4.77-2.78,1.34,3.18,0,5.46S789.91,272.9,788.58,272.16Z" style="fill:url(#by)"/><rect x="845.58" y="233.72" width="9.62" height="137.26" transform="translate(163.36 887.64) rotate(-60)" style="fill:url(#bz)"/><path d="M767,285c-1.33-.73-1.34-3.18,0-5.46s3.45-3.53,4.78-2.79,1.33,3.19,0,5.47S768.29,285.74,767,285Z" style="fill:url(#ca)"/><rect x="823.97" y="246.56" width="9.62" height="137.26" transform="translate(141.43 875.34) rotate(-60)" style="fill:url(#cb)"/><path d="M464,217.36V476.09L556,529.17l207.68,119.9V390.34Zm279.59,382c0,8.37-5.09,12.22-11.37,8.6L566.4,512.23C560.64,508.9,556,500,556,492.28V473.09c0-9.83-6-21.25-13.34-25.5L494.48,419.8c-5.76-3.33-10.44-12.26-10.44-19.95V267.05c0-8.37,5.1-12.22,11.38-8.59L732.25,395.19c6.28,3.63,11.37,13.36,11.37,21.73Z" style="fill:url(#cc)"/><path d="M540,487.11l-52.44-30.28c-3.23-1.86-5.85-6.86-5.85-11.17V433.81c0-4.3,2.62-6.28,5.85-4.42L540,459.67c3.23,1.86,5.85,6.87,5.85,11.17v11.85C545.83,487,543.21,489,540,487.11Z" style="fill:#cbd837"/><path d="M492.87,476.34c0,3.2-1.94,4.67-4.34,3.28s-4.34-5.09-4.34-8.29,1.94-4.66,4.34-3.28S492.87,473.15,492.87,476.34Z" style="fill:#29a5dc"/><path d="M509.69,486.05c0,3.2-1.94,4.67-4.34,3.28S501,484.24,501,481s1.94-4.66,4.34-3.28S509.69,482.86,509.69,486.05Z" style="fill:#29a5dc"/><path d="M526.51,495.77c0,3.19-1.94,4.66-4.34,3.28s-4.34-5.1-4.34-8.3,1.94-4.66,4.34-3.28S526.51,492.57,526.51,495.77Z" style="fill:#29a5dc"/><path d="M543.33,505.48c0,3.19-1.94,4.66-4.34,3.28s-4.34-5.1-4.34-8.29,1.94-4.67,4.34-3.28S543.33,502.28,543.33,505.48Z" style="fill:#29a5dc"/><polygon points="830.33 548.08 830.33 582.64 854.29 596.48 854.29 561.91 830.33 548.08" style="fill:#f18d1e"/><polygon points="854.29 561.91 854.29 596.48 917.33 560.09 917.33 525.52 854.29 561.91" style="fill:#f5aa3b"/><polygon points="893.36 511.69 830.33 548.08 830.33 548.08 854.29 561.91 917.33 525.52 893.36 511.69" style="fill:#ffcf45"/><rect x="890.17" y="330.75" width="9.62" height="196" style="fill:url(#cd)"/><rect x="851.25" y="349.1" width="9.62" height="200.12" style="fill:url(#ce)"/><path d="M891.57,528.72a7.52,7.52,0,0,0,6.79,0c1.88-1.09,1.89-2.84,0-3.92a7.49,7.49,0,0,0-6.79,0C889.71,525.89,889.7,527.64,891.57,528.72Z" style="fill:url(#cf)"/><path d="M852.65,551.19a7.52,7.52,0,0,0,6.79,0c1.88-1.09,1.89-2.84,0-3.92a7.49,7.49,0,0,0-6.79,0C850.79,548.35,850.78,550.11,852.65,551.19Z" style="fill:url(#cg)"/><polygon points="830.33 323.94 830.33 358.51 854.29 372.34 854.29 337.78 830.33 323.94" style="fill:#f18d1e"/><polygon points="854.29 337.78 854.29 372.34 917.33 335.95 917.33 301.39 854.29 337.78" style="fill:#f5aa3b"/><polygon points="893.36 287.55 830.33 323.94 830.33 323.94 854.29 337.78 917.33 301.39 893.36 287.55" style="fill:#ffcf45"/><path d="M763.64,390.34V649.07L987.7,519.71V261Zm205.45,102c0,8.37-5.09,18.1-11.37,21.73L795,608c-6.28,3.62-11.37-.23-11.37-8.6V416.92c0-8.37,5.09-18.1,11.37-21.73l162.69-93.93c6.28-3.62,11.37.23,11.37,8.6Z" style="fill:url(#ch)"/><path d="M696.8,127.49c0,5.87,4.14,13,9.25,16s9.25.59,9.25-5.27-4.14-13-9.25-16c-2.55-1.47-4.85-1.62-6.53-.68S696.8,124.55,696.8,127.49Z" style="fill:gray"/><path d="M688.09,88,464,217.36l299.61,173L987.7,261ZM934.66,268.49l-158,91.23c-7.26,4.19-18.23,4.64-24.51,1L515.31,224c-6.28-3.62-5.49-10,1.76-14.15l158-91.23c7.26-4.18,18.23-4.64,24.51-1L936.42,254.34C942.7,258,941.91,264.3,934.66,268.49Z" style="fill:url(#ci)"/><path d="M751,241.94c-8.57,4.95-22.51,4.93-31.14-.05s-8.67-13-.1-18,22.52-4.92,31.14.06S759.61,237,751,241.94Z" style="fill:url(#cj)"/><polygon points="716.56 191.64 754.28 191.64 757.44 232.93 713.41 232.93 716.56 191.64" style="fill:url(#ck)"/><ellipse cx="735.42" cy="191.64" rx="10.89" ry="18.86" transform="translate(539.79 926.01) rotate(-89.69)" style="fill:#1fbad2"/><path d="M876.37,92.37a53.21,53.21,0,0,1-46.51,52.78l-75,9.5a22.22,22.22,0,0,0-19.43,22v14.94" style="fill:none;stroke:#ff5980;stroke-miterlimit:10;stroke-width:4px"/><path d="M273.23,408.61l-.3-.16-13.64-7.88-21.41,12.36L252,421.06q8.32,4.8,9.13,9.8t-8.59,10.4a28.89,28.89,0,0,1-15.34,3.61,33.8,33.8,0,0,1-16.4-4.6q-6.8-3.91-7.24-9t5.26-8.39l-29.1-16.8c-7,4-11.43,49.89-13.31,55.14s-.87,10.79,3,16.63,10,11.11,18.14,15.84a101.6,101.6,0,0,0,43.79,13.76c15.24,1.11,28.4-42.74,39.49-49.14q10.74-6.21,12.37-13.69a15.4,15.4,0,0,0-1.5-10.35C282.52,428.85,275.68,419.07,273.23,408.61Z" style="fill:url(#cl)"/><path d="M348.85,375.8l-17.66-2-2.92,6.82c-1-.61-2-1.23-3-1.84a90.75,90.75,0,0,0-25.72-9.87A86.59,86.59,0,0,0,272.28,367a56.18,56.18,0,0,0-23,6.92l28.93,16.7q4.93-2.85,12.52-2.32c.75.05,1.49.13,2.22.23l-12.91,1.38,2.51,22.45a35.45,35.45,0,0,1-9.34-3.76c2.45,10.46,9.29,39.17,18.46,44.59a26.78,26.78,0,0,0-3.24-4.94c9.24,1.92,17.89-.19,25.93-1s14.72-19.08,20.07-22.17q14-8.08,14.37-18.2h0Z" style="fill:url(#cm)"/><polygon points="278.23 360.35 278.23 390.63 249.3 387.67 249.3 343.65 278.23 360.35" style="fill:url(#cn)"/><polygon points="218.77 392.6 218.77 422.88 189.67 406.08 189.67 375.8 218.77 392.6" style="fill:url(#co)"/><path d="M283.79,412.65a35.2,35.2,0,0,1-10.86-4.2l-13.64-7.88-21.41,12.36,11.77,6.8-11.77,3.15-36.71-10.95-25.73-15.78V466.6h0q.06,5.43,4,11.25,5.86,8.75,18.14,15.84a101.6,101.6,0,0,0,43.79,13.76q22.86,1.67,39.49-7.93,10.74-6.21,12.37-13.69a15,15,0,0,0,.33-2.73v-.33c0-.11,0-.22,0-.33l0-41.21V411.39Z" style="fill:url(#cp)"/><polygon points="237.88 382.65 237.88 426.67 251.95 421.06 263.76 410.85 260.57 390.63 237.88 382.65" style="fill:url(#cq)"/><path d="M278.23,360.35v-8.78l34.75,3,10.86,24.45-18.37,11.58s-21.89.08-22.53,0-4.71-9.89-4.71-9.89Z" style="fill:url(#cr)"/><path d="M259.29,370.3l13.64,7.87q16.23,9.38,32,.26,6.13-3.54,6.16-8t-7-8.53A30.51,30.51,0,0,0,290.75,358q-7.58-.54-12.52,2.32l-28.93-16.7a56.18,56.18,0,0,1,23-6.92,86.59,86.59,0,0,1,27.22,1.88,90.75,90.75,0,0,1,25.72,9.87q20.85,12,23.31,24.4t-14.08,21.9q-8,4.64-20.07,5.89a84,84,0,0,1-25.93-1.62q6.36,7.81,4.74,15.29T280.82,428q-16.63,9.6-39.49,7.93a101.6,101.6,0,0,1-43.79-13.76q-12.27-7.09-18.14-15.84t-3-16.63q2.82-7.87,13.31-13.93l29.1,16.8q-5.72,3.3-5.26,8.39t7.24,9a33.8,33.8,0,0,0,16.4,4.6A28.89,28.89,0,0,0,252.49,411q9.39-5.42,8.59-10.4t-9.13-9.8l-14.07-8.13Z" style="fill:url(#cs)"/><path d="M454.11,442.81l-9.53,8a62.22,62.22,0,0,0-10.78-9.08c-8.3,4.24-16.55,8.64-24.71,13.31q7,5.36,7.17,11.41l-45.92,18.71-41.13-1.7L364,463.36c-6.87-8-13.91-15.75-19.59-24.47l-56.29,32.49-29-13.53v71.49l42.29,24.42a109.83,109.83,0,0,0,38.19,12.87,131.18,131.18,0,0,0,42.77-.43,117.5,117.5,0,0,0,38.92-13.85l5.88-3.4q17.28-10.08,23.64-22.57a28,28,0,0,0,3.28-13.12h0Z" style="fill:url(#ct)"/><path d="M427.32,445.07c2.16-1.13,4.32-2.24,6.48-3.35-1.73-1.17-3.56-2.32-5.51-3.45l-1.6-.92-1.54-18.67-31.06-3v2.82h0v54.93l10.42,6a40.86,40.86,0,0,1,4.58,3c4.52-2.58,9.07-32.55,13.64-35l4.81.25Z" style="fill:url(#cu)"/><polygon points="394.09 415.71 394.09 462.47 334.77 493.97 313.8 462.06 394.09 415.71" style="fill:url(#cv)"/><path d="M259.12,457.85l127.76-73.76L428.29,408q17,9.84,23,22.13t-.44,24.77q-6.36,12.5-23.64,22.57l-5.88,3.4a117.5,117.5,0,0,1-38.92,13.85,131.18,131.18,0,0,1-42.77.43,109.83,109.83,0,0,1-38.19-12.87Zm135-42.14L313.8,462.06l10.78,6.22q13.32,7.7,29.91,6.38t35.19-12.05l5.53-3.2q18.51-10.68,20.75-20.23t-11.45-17.46Z" style="fill:url(#cw)"/><path d="M436,548.12s-1.62-4.5,6.11-19.71c0,0-9.48-7.48-10.41-5.91a7.09,7.09,0,0,1-4.15,2.86c-1.13.22-4.28-.76-2.63,9.3s4.58,24.25,7.21,21.39S436,551.25,436,548.12Z" style="fill:url(#cx)"/><path d="M427.56,525.36s-3.38,2.25,0,8.85,1.87,10.66,2.17,13.66,5.18,4.91,6.28.25c0,0,1.62,12.61-.48,18.12-2.24,5.88-9.84-2.9-10.07-13.26-.3-13.36-2.78-12.39-4.13-19.29S424.33,524.68,427.56,525.36Z" style="fill:url(#cy)"/><path d="M429.71,429.63a163,163,0,0,1,27.92,21.51c12.51,12.41,20.62,24.12,21.22,27.33s.42,8.6-7.61,14.61-26.92,29.52-29.12,35.33c0,0-6.91.2-10.41-5.91,0,0,12.07-33,23.82-41.33,0,0-53.69-26.33-56-33.43S429.71,429.63,429.71,429.63Z" style="fill:url(#cz)"/><path d="M431.65,424.52s.43,17.44-8.13,26.12c-6.61,6.71-14.61-4.39-13.61-7S431.65,424.52,431.65,424.52Z" style="fill:url(#da)"/><path d="M458.63,532s.53,15.46,2.56,18.91-1.73,10.81-5,9.08S443,543.29,442.72,540s-.53-5.93,0-5.93a17.55,17.55,0,0,0,3.08-1.35,2.92,2.92,0,0,0,1.12-2.4C446.8,528.82,458.63,532,458.63,532Z" style="fill:url(#db)"/><path d="M445.8,532.71s-2.78,1.8-.9,6.08,6.38,15.54,11.56,16.29,4.73-4.13,4.73-4.13,2.61,9.9,4.35,15.61c2.42,8-9.61,2.63-14.19-6.3s-4.05-10.44-8.7-15.39S439.64,533.24,445.8,532.71Z" style="fill:url(#dc)"/><path d="M390.53,426.69s-15.16,18.95-1.45,36.16,51.24,22.92,59.75,25.22c0,0-6.71,9.21-4.41,23.52s2.5,18.72,2.5,18.72,5.26,5.25,11.71,1.73c0,0,.5-11.94,3.11-19.25s9.9-16.71,11-21.51,4.51-13.61-8.7-20.32-31.32-17.44-38.63-20.52C411.41,444.57,390.53,426.69,390.53,426.69Z" style="fill:url(#dd)"/><path d="M419,473.38c-21.17-5.44-31.23-15.9-31.63-21.83-.8-11.91,11.24-7.91,11.24-7.91l3-8.1c-6.41-4.84-11.09-8.85-11.09-8.85s-15.16,18.95-1.45,36.16,51.24,22.92,59.75,25.22c0,0-6.71,9.21-4.41,23.52s2.5,18.72,2.5,18.72a11.4,11.4,0,0,0,5.73,2.83c-.81-7.1-2.07-19-2.56-28.8-.75-15,11.56-17.57,10.51-20.27S440.18,478.82,419,473.38Z" style="fill:url(#de)"/><path d="M383.49,333.15s2.75,72.2-6.26,87.31c0,0,9.78,9.72,35.18,5.21,18.62-3.3,10.81-74.85,10.81-74.85l-.78-21.57Z" style="fill:url(#df)"/><path d="M415.53,348.26s11.18-2,13.68,9,4.5,23.22,9.81,32.43,6.8,46.43,7.6,48.08,5.21,6.91,5.21,9.11,1.15,6.16-.45,6.91l-1.6.75s-2,5.2-3.31,5.3-2.35-.45-2.3-1.8c0,0-2.7-.45-2.75-1.6s.1-5.41-.15-6.46-1-5.35-1-5.35a3.12,3.12,0,0,0-1.57,2.28c-.07,1.46-.45,6.38-1.38,6.68s-2.74-.35-2.34-3.66a20,20,0,0,0,0-5.05c0-1,.18-5.86,2.29-7.58,0,0-1.51-17.89-5.81-26.9s-4.7-13.06-4.7-13.06-17.75-32.1-16.23-38.64S411.35,349.86,415.53,348.26Z" style="fill:url(#dg)"/><path d="M415.53,348.26s9,.5,9.78,9,1.9,14.21,4,18.81,12.61,18.62,2.4,25.83c0,0-.8,8.7-1,12.81s1.9,6.8.4,14.81-8.81,17-23.12,16.91-17.91-15-17.71-18.41,3.3-4.11,1-8.41-14-13.11-14.91-17.41-3.51-20.52-3.51-20.52,10.9-10.57,13.31-12.69S413.47,347.9,415.53,348.26Z" style="fill:url(#dh)"/><path d="M402.7,425.82c12.18-.86,17-9.5,17-9.5-9,10.2-18.41,3.7-20.21.7s-7.71-9.11-7.71-9.11c-3-3.26-2.09-10.41-5.79-17.81a24.87,24.87,0,0,1-1.8-15.32l2.21-6-.23.2c-2.41,2.12-13.31,12.69-13.31,12.69s2.61,16.21,3.51,20.52,12.61,13.11,14.91,17.41-.8,5-1,8.41c-.15,2.48,1.74,11.11,8.35,15.61-.06-.14-3.33-8.64-2.63-13S402.7,425.82,402.7,425.82Z" style="fill:url(#di)"/><path d="M410.39,357.27s6.49,2.5,5.91,9c-.63,7.09-1.9,20.41-1.9,20.41s-22.14-.3-27.39-4.7-1.84-11.52-.44-13.67c0,0,3-2.64,1.87-9.4Z" style="fill:url(#dj)"/><path d="M414.35,343.91s1.1-4.11,2.53-3.81,1.33,6.95-2.18,10.46C411.8,353.47,414.35,343.91,414.35,343.91Z" style="fill:url(#dk)"/><path d="M387.68,339.79s-1.06-4.78-2.91-3.48.63,14.46,2.49,14.51S387.68,339.79,387.68,339.79Z" style="fill:url(#dl)"/><path d="M387.87,330.42s-2,16.94.11,26.65,7.4,10.91,9.6,11.21,8.61-.7,12.21-7.91,6.23-18,7-27.27C418.25,316.76,390.17,312,387.87,330.42Z" style="fill:url(#dm)"/><path d="M408.26,328.55s-7.66,11.91-21.15,12.1v4.18a22.12,22.12,0,0,1-3.6-13.28c.38-8,4.7-22.82,26.42-13.59,0,0,9.84-1.27,12.16,8.18s-7.67,21.13-7.67,21.13l.77-5.36S408.81,338.55,408.26,328.55Z" style="fill:url(#dn)"/><path d="M408.26,328.55s-7.66,11.91-21.15,12.1v4.18a22.12,22.12,0,0,1-3.6-13.28c.38-8,4.7-22.82,26.42-13.59,0,0,9.84-1.27,12.16,8.18s-7.67,21.13-7.67,21.13l.77-5.36S408.81,338.55,408.26,328.55Z" style="fill:url(#dn)"/><path d="M409.93,318c-21.72-9.23-26,5.63-26.42,13.59a22.12,22.12,0,0,0,3.6,13.28v-4.18c12.38-.18,19.84-10.22,21-11.87l.16-.23A12.24,12.24,0,0,0,409.93,318Z" style="fill:url(#dp)"/><path d="M383.5,387s7.25,14.84,2.81,18.89-9.74,1.25-9.89-7.32A12.35,12.35,0,0,1,383.5,387Z" style="fill:url(#dq)"/><path d="M348.54,428.52c4.75-9.5,9.5-17.21,14.56-28.28s6.55-17.13,10.21-18.77c0,0,5.06-2,9.11,3.66s2.57,14,.78,16.75-22.51,31.24-22.51,31.24a90.76,90.76,0,0,1,12.16,11.21c6.85,7.4,12.77,12.7,12.77,12.7l.25,0-3.72,7.05a1.57,1.57,0,0,0,0-.23s-23.6-14.49-28.35-19.17S343.79,438,348.54,428.52Z" style="fill:url(#dr)"/><path d="M392.16,465.44a53,53,0,0,1,1.17,12.94,20.48,20.48,0,0,0,2.34,5.6,3.11,3.11,0,0,1,.46,3.43s.55,1.79-.15,2.42-4.44-.78-10.05-8.65-3.13-12.89-3.78-17.06l3.72-7.05C386.9,457.27,390.81,458.5,392.16,465.44Z" style="fill:url(#ds)"/><path d="M396.76,498.48l-29-16.62a.86.86,0,0,1,0-1.49l48.73-28a.88.88,0,0,1,.86,0l29,16.62a.86.86,0,0,1,0,1.49l-48.72,28A.88.88,0,0,1,396.76,498.48Z" style="fill:#c8c8c8"/><polygon points="446.77 469.89 447.19 467.48 367.78 478.56 367.36 481 446.77 469.89" style="fill:#c8c8c8"/><path d="M397.18,496.11l-29-16.62a.86.86,0,0,1,0-1.49l48.72-28a.88.88,0,0,1,.86,0l29,16.62a.86.86,0,0,1,0,1.49l-48.73,28A.86.86,0,0,1,397.18,496.11Z" style="fill:#fff"/><g style="opacity:0.5"><polygon points="398.4 492.02 373.85 477.94 416.86 453.26 441.41 467.34 398.4 492.02" style="fill:url(#a)"/><g style="clip-path:url(#du)"><rect x="391.24" y="447.7" width="7.75" height="48.57" transform="translate(170.98 -101.3) rotate(18.58)" style="fill:#fff"/><rect x="407.13" y="437.03" width="7.75" height="61.75" transform="translate(170.51 -106.57) rotate(18.58)" style="fill:#fff"/></g></g><path d="M389.74,463c-.39,1.13-1.52,3.74-1.52,3.74a15.93,15.93,0,0,0,0,2.61c.24,3.63-2.09,3.84-3.17,3.64a.93.93,0,0,1-.77-.95,25.12,25.12,0,0,0-.51-6.06,4.23,4.23,0,0,0-1.65-2.12s-3.55-2.18-8.17-5.12c-.58-2.36,6.15-2.57,11.68-1.74A4.82,4.82,0,0,1,389.74,463Z" style="fill:url(#dv)"/><path d="M1062.46,400.36c0-13.14-1.23-26.26-7.64-37.4-.42-7.52-1.36-19.16,3.82-18.71,0,0,11.54,2.7,11.88,13.9a229.71,229.71,0,0,1-.57,27.31,107.65,107.65,0,0,0,12.78,9.62c2.71,1.61,5.21,1.93,6.46,3.9a16.8,16.8,0,0,0,5.1,4.21,51.34,51.34,0,0,1-.66,6.89C1083.82,406.17,1073.9,398.73,1062.46,400.36Z" style="fill:url(#dw)"/><path d="M1054.82,363c4.81,8.36,6.71,17.85,7.35,27.62a10.89,10.89,0,0,0,8.6,10.06c8.08,1.59,15.5,6.51,22.86,9.44-.11.76-.23,1.56-.39,2.45l-3.77-1.44a13.85,13.85,0,0,1-11.2-.79c-5.74-3.11-15.56-5.84-17.87-7.12s-2.45-7.79-2.45-7.79l-.64-3.12-1.26.41c-.66-7.77-1.29-20.62-1.11-25.34C1055,366.24,1054.91,364.71,1054.82,363Z" style="fill:url(#dx)"/><path d="M1093.2,411.62s5.72,2.85,7.22,3.44,6.74.54,7.82-.07.45-6,.23-7.1c-.58-3-.66-3.12-2.91-3.79S1093.2,411.62,1093.2,411.62Z" style="fill:#e7af82"/><path d="M1110.54,417s-2.68.07-2.46-2c0,0-2.23-.63-2.15-2.64,0,0-1.46-1,0-3.05a2.31,2.31,0,0,1,1.72-2.64,5.22,5.22,0,0,0,2.59-1.06l.11-1.25s3.51.49,3.58,2a30,30,0,0,1-.78,7.33C1112.62,415.05,1113,417.39,1110.54,417Z" style="fill:#e7af82"/><path d="M1100.81,406.68c-1.08.83-6.93,5.23-7.61,4.94s-.44-5.19.37-7.44C1096.37,403.79,1099.05,404.06,1100.81,406.68Z" style="fill:#e7af82"/><path d="M1044.12,524c-1.82-.24-1.81,3.68-2.18,8.21-.15,1.83-.15,1.63-.21,3.73-.06,1.91,5.5,4.22,10.06,6,4.9,1.92,8.2,6.7,14.67,9.47s10.15-.2,9.25-5.9c-.63-4-7.09-5.71-11.15-7.82-4.81-2.5-6.81-8.42-7.52-11.22a3.31,3.31,0,0,0-1.82-2.21h0Z" style="fill:#4391ce"/><path d="M1044.75,522.5c-2.11-.39-2.41,4.55-2.78,9.09-.31,3.83,2.61,5.86,8.77,7.95,5,1.68,9,7.58,15.48,10.35s10.25,1.18,9.49-4.38c-.51-3.73-8.51-7.29-8.51-7.29s-9.92-11.25-10.35-12.94c-.24-1-.51-2.37-1.44-2.8Z" style="fill:#032b3a"/><path d="M1055.36,523s-.06,3.55-1.4,4c-2.91.93-7.46,4.38-9-3.56l-.82-3.7,11.29-.71Z" style="fill:url(#dy)"/><path d="M1011.34,573.16s1.75,14.16-5.1,15.06c-5.34.7-11.43-1-10.44-11.7Z" style="fill:#4391ce"/><path d="M1010.12,548.36c3.35,1.33-.43,12,.32,16.78s4.6,21.6-6.67,20.75-7.6-10.28-7.1-15.64a127.17,127.17,0,0,0,.68-15.54C996.58,541.53,1010.12,548.36,1010.12,548.36Z" style="fill:#032b3a"/><path d="M1065.41,420.43s5.31,7.94,2.51,26.67-6.42,29.06-6.73,32.25-3.89,43-4,44.63-10.25,5.17-15.25-.26c0,0,.41-16.06-.12-24.68s1.58-13.52,2-17.46-2-23.3-2-23.3-10.19,23-11.33,27-2.41,11.21-4.82,14.19-6,11.07-6.25,12.49-5.49,39-5.65,40.72c-.86,8.76-18.47,6.39-18.38-.64,0,0,2.46-18.94,3.21-29.79s4.73-22.71,5.9-26.75,4-51.08,8.16-62.86S1051.22,400.28,1065.41,420.43Z" style="fill:url(#dz)"/><path d="M1008.43,560c1.26-10-7.45-12.69-9.06-2.31,0,0-.24,12.57,3.73,13.24C1006.5,571.55,1007.58,566.77,1008.43,560Z" style="fill:#032b3a"/><path d="M1051.66,531.21c-1.57-5.56.5-8.87,2.36-9.34s2.62,1.57,3.77,5.77c-.56.15,4,10.48,2,12.68C1057.74,542.29,1053.83,538.4,1051.66,531.21Z" style="fill:#032b3a"/><path d="M1008.28,560.92l-.41-.2a9.58,9.58,0,0,0-1-.44,5.58,5.58,0,0,0-.69-.23c-.24-.09-.51-.11-.76-.19a9.29,9.29,0,0,0-1.68-.16,9.09,9.09,0,0,0-1.67.16c-.26.08-.53.1-.77.19l-.69.23a10.58,10.58,0,0,0-1,.45l-.41.19s.08-.15.24-.4a3.88,3.88,0,0,1,.81-.91,5.26,5.26,0,0,1,1.52-.89,6,6,0,0,1,1-.27,5,5,0,0,1,2.08,0,6,6,0,0,1,1,.27,4.93,4.93,0,0,1,1.52.9,3.92,3.92,0,0,1,.82.9C1008.2,560.77,1008.28,560.92,1008.28,560.92Z" style="fill:#fff"/><path d="M1060.46,529.93l-.06-.09c-.05-.06-.11-.15-.2-.25l-.14-.17-.18-.17a2,2,0,0,0-.21-.2l-.24-.19-.27-.18-.3-.16a1.83,1.83,0,0,0-.32-.14l-.33-.11-.34-.06a2.06,2.06,0,0,0-.35,0,3.25,3.25,0,0,0-.69.08,2.91,2.91,0,0,0-.62.29,1.32,1.32,0,0,0-.29.19l-.25.23a3,3,0,0,0-.41.54l-.17.29-.12.3a1.57,1.57,0,0,0-.1.28c0,.1,0,.19-.07.27s0,.17-.06.24l0,.22c0,.14,0,.24,0,.31v.11l0-.06.15-.19.1-.14a.86.86,0,0,0,.13-.14,3.13,3.13,0,0,1,.31-.33l.17-.18.19-.16.1-.09.11-.07.22-.16c.16-.08.32-.19.49-.26a4.6,4.6,0,0,1,.52-.19,4.86,4.86,0,0,1,.55-.11,5.12,5.12,0,0,1,.56,0,4.53,4.53,0,0,1,.53.05l.26,0,.24.06c.16,0,.3.08.44.12l.18.06.17.06a2,2,0,0,0,.23.09Z" style="fill:#fff"/><path d="M1063,532.58l-.06-.09-.2-.24-.14-.17-.18-.18-.21-.2-.24-.18-.27-.19-.3-.16a2,2,0,0,0-.31-.13l-.34-.11a1.86,1.86,0,0,0-.34-.06,1.38,1.38,0,0,0-.35,0,3.09,3.09,0,0,0-.68.09,2.75,2.75,0,0,0-.63.28,1.1,1.1,0,0,0-.28.2l-.26.22a4.13,4.13,0,0,0-.41.55l-.17.28-.12.3a1.9,1.9,0,0,0-.1.28c0,.1-.05.19-.07.28l-.06.24,0,.22c0,.13,0,.24,0,.31v.11l0-.07a1.25,1.25,0,0,0,.15-.19l.1-.13.13-.15c.09-.1.19-.22.31-.33l.17-.17.2-.16.09-.09.11-.08.22-.16a4.52,4.52,0,0,1,.49-.25,3.7,3.7,0,0,1,.52-.2,3.76,3.76,0,0,1,.55-.1,5.27,5.27,0,0,1,.56,0c.18,0,.36,0,.53,0l.26,0,.24.06a4,4,0,0,1,.44.12l.18,0,.17.07.23.08Z" style="fill:#fff"/><path d="M1065.49,535.24l-.07-.1c-.05,0-.11-.14-.19-.24s-.09-.11-.14-.17l-.19-.17a2,2,0,0,0-.21-.2l-.24-.19-.27-.18-.3-.16a2.12,2.12,0,0,0-.31-.14l-.34-.11-.34-.06a1.37,1.37,0,0,0-.35,0,2.58,2.58,0,0,0-.68.08,2.75,2.75,0,0,0-.63.28,1.42,1.42,0,0,0-.28.2l-.26.23a3.49,3.49,0,0,0-.41.54l-.17.29-.12.3a1.57,1.57,0,0,0-.1.28c0,.1-.05.19-.07.27l-.06.24,0,.22a2.24,2.24,0,0,0,0,.31v.11l.06-.06s.09-.11.14-.19l.11-.14.12-.14a2.38,2.38,0,0,1,.31-.33l.17-.18.2-.16.1-.09.1-.07.22-.16c.16-.08.32-.19.49-.26a5.44,5.44,0,0,1,.52-.19,3.82,3.82,0,0,1,.55-.11,5.4,5.4,0,0,1,.56,0,4.93,4.93,0,0,1,.54,0l.25,0,.25.06a3.75,3.75,0,0,1,.43.12l.18.06.17.06a2,2,0,0,0,.23.09Z" style="fill:#fff"/><path d="M1008.28,564.3l-.41-.19a7.81,7.81,0,0,0-1-.45c-.21-.08-.44-.16-.69-.23s-.51-.11-.76-.19a9.29,9.29,0,0,0-1.68-.16,9.09,9.09,0,0,0-1.67.16c-.26.08-.53.11-.77.19l-.69.23a10.58,10.58,0,0,0-1,.45l-.41.19s.08-.15.24-.39a3.69,3.69,0,0,1,.81-.91,5.05,5.05,0,0,1,1.52-.9,6,6,0,0,1,1-.27,5.46,5.46,0,0,1,2.08,0,6,6,0,0,1,1,.27,5.14,5.14,0,0,1,1.52.9,3.74,3.74,0,0,1,.82.91C1008.2,564.15,1008.28,564.3,1008.28,564.3Z" style="fill:#fff"/><path d="M1008.2,567.71s-.16-.06-.42-.19a10.58,10.58,0,0,0-1-.45c-.21-.08-.44-.15-.68-.22s-.51-.12-.77-.2a10.16,10.16,0,0,0-1.67-.16,11.39,11.39,0,0,0-1.68.16c-.25.08-.53.11-.76.2a5.58,5.58,0,0,0-.69.23,9.87,9.87,0,0,0-1,.44c-.26.13-.42.19-.42.19l.24-.39a4.21,4.21,0,0,1,.82-.91,5,5,0,0,1,2.49-1.16,7,7,0,0,1,1-.11,8.94,8.94,0,0,1,1,.11,6,6,0,0,1,1,.26,5.21,5.21,0,0,1,1.51.9,3.93,3.93,0,0,1,.82.91C1008.12,567.56,1008.2,567.71,1008.2,567.71Z" style="fill:#fff"/><path d="M1067.92,447.1c2.8-18.73-2.51-26.67-2.51-26.67a19.13,19.13,0,0,0-10.62-7.63c-8.63,11.31-25.59,33.55-25.38,33.55s16-10.2,26.28-12.54,3.35,18.95,3.13,24.53-2,12.72-3.41,19.64-2,13.38-2,13.38l-3.62,35.25c3.85-.11,7.29-1.7,7.36-2.63.1-1.59,3.67-41.44,4-44.63S1065.12,465.83,1067.92,447.1Z" style="fill:url(#ea)"/><path d="M1043.94,451.27c1.45-6,5.13-7.46,5.13-7.46l-30.86,1-8.9,5.83c-.1.77-.2,1.55-.29,2.35,2.1,2.5,6.61,7.52,9.11,7.74,3.35.3,2.68-.67,5.36-.59a12.53,12.53,0,0,0,5.21-.67c1.56-.53,2.16-1.19.71-4.39s-1.75-4.84,0-4.91,6.72.15,7.91,1.11-1.86,5.55-3,9.51-8.14,25.34-9.59,27.35-7.14,10.71-8.26,14.17c-1,3.25-8.54,48.63-8.63,55.83,3.12-.54,5.67-2.25,6-5.46.16-1.71,5.37-39.3,5.65-40.72s3.83-9.51,6.25-12.49,3.69-10.21,4.82-14.19,11.33-27,11.33-27S1042.55,457.09,1043.94,451.27Z" style="fill:url(#eb)"/><path d="M1006.14,438.83a7.89,7.89,0,0,0,2.91-3.41,6.27,6.27,0,0,1,3.83-3.12l1,4.07s-1.77,4.08,2.33,5.15-7.93,1-8.93.43S1006.14,438.83,1006.14,438.83Z" style="fill:url(#ec)"/><path d="M1059.91,344.62a9.86,9.86,0,0,1,5.53,7c1.28,5.37-.69,14.1-.69,14.1s.09,19.69-5.73,24.16c0,0,1.1,15.22,5.46,23.52a49.21,49.21,0,0,1,3.44,9,10.64,10.64,0,0,1,0,6.67c-1.85,5-7.17,13.42-26.21,16.39-26.61,4.15-29.75-6.17-29.84-10,0-1.43-1.09-21.49-1.52-26.74s-5.68-21.49-6.81-31-6.73-14.69-3.62-17.4c0,0,9.54-6.33,17.31-10.8s15.22-8.41,25.23-7.45A149.86,149.86,0,0,1,1059.91,344.62Z" style="fill:url(#ed)"/><path d="M1052.84,352.57c-.94,2-22.86-2.89-25.15-1.24-1.68,1.21-9.78,4.89-17.27,10.42-1.46,1.08,3,10.13,1.89,13.58s3.11,10.45,6.9,17.05,2.57,24.46,3.46,32.49,0,15.49-6.59,18c3.94,2.83,11.46,4.73,25.63,2.52,19-3,24.36-11.41,26.21-16.39a10.64,10.64,0,0,0,0-6.67,49.21,49.21,0,0,0-3.44-9c-4.36-8.3-5.46-23.52-5.46-23.52,5.82-4.47,5.73-24.16,5.73-24.16s2-8.73.69-14.1C1065.44,351.59,1053.77,350.57,1052.84,352.57Z" style="fill:url(#ee)"/><path d="M995.46,441.56a20.45,20.45,0,0,0,2.19,5.83c1.35,1.91,10.64,5.25,12.56,6.67s6.67,6.1,10.43,4.25c0,0,4,1.42,4.61-.35,0,0,2.27,1.35,3.62-.29s-2.2-4.68-2.2-4.68l-3.69-4.61,3.33.57s2.9.14,2.42-1.42-4.83-3.27-6.74-4.54c-1.73-1.15-12.22-3.2-15.31-4.24a4.16,4.16,0,0,1-.73-.3l-1.46-2.67Z" style="fill:url(#ef)"/><path d="M997.07,363.88s3.92-9.29,13.35-2.13c6.8,5.16,1.82,19.65-2.65,23.7s-10.76,13-14.59,16,9.29,18.83,10.07,31.29c0,0,2,3.4,1.16,5.16s-6.76,5.58-9.42,3.35-8-13.2-10.85-18.73-10.33-15.75-7.45-23.31S987,379.74,997.07,363.88Z" style="fill:url(#eg)"/><path d="M1010.42,361.75c1,.9-.8,12.47-9.95,21.62s-12.5,16.38-14.28,17.11.44,3.9,3.68,11.47,10,19.06,10.15,21.29.87,5.31,1.56,6c.18.18.43.43.73.69a6.78,6.78,0,0,0,2.1-2.05c.85-1.76-1.15-5.16-1.15-5.16-.79-12.46-13.91-28.31-10.08-31.29s10.12-12,14.59-16S1017.22,366.91,1010.42,361.75Z" style="fill:url(#eh)"/><path d="M1027.24,353.88c-3.92-6.71,2-10.26,2.14-10.36a30.75,30.75,0,0,1,13.08-1.56c3.12.3,6,.67,8.48,1,10.57,4.8-6,28.9-6,28.9S1031.21,360.69,1027.24,353.88Z" style="fill:url(#ei)"/><path d="M1048.57,406.28l7.34-2.72a1.5,1.5,0,0,0,1-1.41V391a1.5,1.5,0,0,0-2-1.41l-7.34,2.72a1.51,1.51,0,0,0-1,1.41v11.11A1.5,1.5,0,0,0,1048.57,406.28Z" style="fill:#fff"/><path d="M1051,392.36l1.59-.59a.33.33,0,0,0,.21-.3v-2.4a.33.33,0,0,0-.44-.31l-1.59.59a.34.34,0,0,0-.21.3v2.41A.33.33,0,0,0,1051,392.36Z" style="fill:#1fbcd4"/><path d="M1051.47,388.71c1-2.77,1.8-5.58,2.63-8.39s1.52-5.65,2.18-8.49a79.39,79.39,0,0,0,1.51-8.6,46.54,46.54,0,0,0,.39-8.66,16,16,0,0,0-2.39-8.12,8.37,8.37,0,0,0-3.19-2.77,20,20,0,0,0-4.14-1.3,54,54,0,0,0-8.63-1.44,26,26,0,0,0-4.32,0,11.37,11.37,0,0,0-2.06.38,4.39,4.39,0,0,0-.92.35,2.36,2.36,0,0,0-.58.42l-.18.22-.12.06a14.37,14.37,0,0,0-2.93,1.95,11.72,11.72,0,0,0-2.32,2.61,8.47,8.47,0,0,0-1.24,3.17,8.91,8.91,0,0,0,.11,3.41,12.87,12.87,0,0,0,1.24,3.27,22.86,22.86,0,0,0,2,3c.71,1,1.53,1.92,2.3,2.88l2.33,2.87c3.15,3.8,6.21,7.69,9.33,11.52s6.15,7.74,9.17,11.65l-.11.1q-5-5.46-9.9-11.05c-3.22-3.75-6.49-7.46-9.63-11.28l-2.36-2.86c-.79-1-1.57-1.88-2.35-2.9a17.21,17.21,0,0,1-3.4-6.89,10.29,10.29,0,0,1-.07-3.95,10,10,0,0,1,1.49-3.66,13.34,13.34,0,0,1,2.62-2.88,15.37,15.37,0,0,1,3.28-2.06l-.29.27a1.84,1.84,0,0,1,.57-.58,4.18,4.18,0,0,1,.57-.33,5.7,5.7,0,0,1,1.14-.39,10.66,10.66,0,0,1,2.29-.3,27.48,27.48,0,0,1,4.46.26c1.47.19,2.93.47,4.37.77s2.88.62,4.3,1a22.13,22.13,0,0,1,4.26,1.28,9.69,9.69,0,0,1,3.49,2.83,16.68,16.68,0,0,1,3,8.43,40.81,40.81,0,0,1-.19,8.91,82,82,0,0,1-1.7,8.7c-.69,2.87-1.59,5.68-2.54,8.47s-2,5.53-3.24,8.21Z" style="fill:#374047"/><path d="M1041.6,347s-8.41,4.47-4.81,8.3a35.68,35.68,0,0,0,6.31,5.54s6.6-9.37,6-11.35S1041.6,347,1041.6,347Z" style="fill:url(#ej)"/><path d="M1031.26,342.67s-3.62,0-2.84,4.82c1.07,6.65,14.68,13.34,14.68,13.34Z" style="fill:#fff"/><path d="M1050.53,342.94s3.9-.62,3.94,2.63-2.8,7.19-5.66,10.16a51.82,51.82,0,0,1-5.71,5.1l2.5-6Z" style="fill:#fff"/><path d="M1055.93,325.74s1.6-2.75,3-1.38-1.56,13-4.14,10.93S1055.93,325.74,1055.93,325.74Z" style="fill:url(#ek)"/><path d="M1027.71,325.74s-1.6-2.75-3-1.38,1.56,13,4.14,10.93S1027.71,325.74,1027.71,325.74Z" style="fill:url(#el)"/><path d="M1041.78,305.49s16.64-.41,14.5,16.7c0,0-1.67,18.45-3.8,24.45s-7,9.19-10.7,9.19-8.58-3.19-10.71-9.19-3.79-24.45-3.79-24.45C1025.14,305.08,1041.78,305.49,1041.78,305.49Z" style="fill:url(#em)"/><path d="M1034.59,305.16c2.87-5.94,13.92-5.94,19.82-1.12,8.29,6.77.95,26.22.95,26.22h0c0-15.64-8.69-3.29-13.56-3.29s-13.66-12.35-13.66,3.29h0S1017.39,297.67,1034.59,305.16Z" style="fill:url(#en)"/><path d="M1055.35,329.76c0,.17,0,.33,0,.5,0,0,7.34-19.45-.95-26.22-5.9-4.82-17-4.82-19.82,1.12,0,0-3.59,11.86,6.38,12s16.87-7.26,14.38,12.59Z" style="fill:url(#eo)"/><path d="M1100.62,434.49l-21.36-12.25a.63.63,0,0,1,0-1.1l35.92-20.62a.66.66,0,0,1,.64,0l21.36,12.25a.63.63,0,0,1,0,1.1l-35.93,20.62A.6.6,0,0,1,1100.62,434.49Z" style="fill:#534741"/><polygon points="1137.49 413.41 1137.81 411.64 1079.26 419.81 1078.94 421.6 1137.49 413.41" style="fill:#534741"/><path d="M1100.93,432.75l-21.37-12.26a.64.64,0,0,1,0-1.1l35.93-20.62a.64.64,0,0,1,.63,0L1137.49,411a.64.64,0,0,1,0,1.1l-35.93,20.63A.64.64,0,0,1,1100.93,432.75Z" style="fill:#3a2f2a"/><g style="opacity:0.5"><polygon points="1101.83 429.73 1083.73 419.35 1115.44 401.15 1133.55 411.53 1101.83 429.73" style="fill:url(#b)"/><g style="clip-path:url(#eq)"><rect x="1096.56" y="397.05" width="5.71" height="35.81" transform="translate(189.52 -328.68) rotate(18.58)" style="fill:#fff"/><rect x="1108.27" y="389.18" width="5.71" height="45.53" transform="matrix(0.95, 0.32, -0.32, 0.95, 189.17, -332.57)" style="fill:#fff"/></g></g><path d="M1093.57,404.18a1.85,1.85,0,0,1,.71-1.08c1.39-.6,3.18-2.33,6-3s6.21.16,9.23-.29,5.85-.72,5.87,1.54-2.48,2.47-4.56,2.62a14,14,0,0,0-5.29,1.17,23.78,23.78,0,0,1-4.54,1.37l-.19.14C1099.05,404.06,1096.37,403.79,1093.57,404.18Z" style="fill:#e7af82"/><circle cx="1039.29" cy="188.14" r="63.92" transform="translate(617.4 1156.4) rotate(-76.72)" style="fill:#1fbcd4;opacity:0.5"/><circle cx="1039.29" cy="188.14" r="51.73" transform="translate(7.11 412.04) rotate(-22.5)" style="fill:#1fbcd4;opacity:0.5"/><path d="M1039.92,280.84h0A14.83,14.83,0,0,0,1054.74,266v-9.33h-29.63V266A14.82,14.82,0,0,0,1039.92,280.84Z" style="fill:#032b3a"/><ellipse cx="1039.92" cy="258.85" rx="19.64" ry="11.1" style="fill:#034768"/><rect x="1020.29" y="237.71" width="39.28" height="21.13" style="fill:#034768"/><ellipse cx="1039.92" cy="237.71" rx="19.64" ry="11.1" style="fill:#366c88"/><path d="M1078,185.94c-1.27-17.87-17.12-33.85-35-35.26a38.17,38.17,0,0,0-30.25,64.87,33,33,0,0,1,9.46,21.38h0c0,5.53,7.92,10,17.69,10s17.7-4.48,17.7-10a32.57,32.57,0,0,1,9.36-21.28A38.07,38.07,0,0,0,1078,185.94Z" style="fill:url(#er)"/><path d="M1073.94,189.59c0,18.92-14.86-2.72-54.66-7.43-18.79-2.22.43-26.84,20.4-26.84A34.26,34.26,0,0,1,1073.94,189.59Z" style="opacity:0.2;fill:url(#es)"/><path d="M1064.51,199.55c3.35,2.46,3.37,8.13,0,12.68s-8.75,6.25-12.1,3.8-2-6.3,1.33-10.85S1061.16,197.1,1064.51,199.55Z" style="opacity:0.2;fill:url(#et)"/><path d="M739.81,194.17a9.67,9.67,0,0,1-8.75,0c-2.42-1.4-2.43-3.66,0-5a9.67,9.67,0,0,1,8.75,0C742.21,190.52,742.22,192.78,739.81,194.17Z" style="fill:#ff5980"/><g style="opacity:0.30000000000000004"><g style="clip-path:url(#eu)"><rect x="815.11" y="272.16" width="32.69" height="368.41" transform="translate(265.88 -305.03) rotate(24.63)" style="fill:#fff"/><rect x="878.63" y="273.33" width="32.69" height="368.41" transform="translate(272.15 -331.39) rotate(24.63)" style="fill:#fff"/></g></g><g style="opacity:0.30000000000000004"><g style="clip-path:url(#ev)"><rect x="598.5" y="243.89" width="32.69" height="368.41" transform="translate(234.39 -217.31) rotate(24.63)" style="fill:#fff"/><rect x="662.02" y="245.07" width="32.69" height="368.41" transform="translate(240.66 -243.68) rotate(24.63)" style="fill:#fff"/></g></g><path d="M404.09,160.93a59.09,59.09,0,1,0-94.22,47.5,20,20,0,0,1,5.84,25.25C309.64,245.47,306,259.05,306,269a39.05,39.05,0,1,0,78.1,0c0-9.91-3.69-23.49-9.76-35.29a20.09,20.09,0,0,1,5.92-25.3A59,59,0,0,0,404.09,160.93Z" style="fill:url(#ew)"/><polygon points="456.19 759.49 324.19 680.7 472.87 593.3 576.17 587.96 604.88 672.09 456.19 759.49" style="opacity:0.30000000000000004;fill:url(#ex)"/><polygon points="485.37 727.49 381.87 664.63 530.56 577.23 634.06 640.09 485.37 727.49" style="opacity:0.30000000000000004;fill:url(#ey)"/><path d="M621.51,619.5v3.36h-7.06c-3.27,0-6.18-1.22-7.19-3a34.53,34.53,0,0,0-4.3-6c-1.48-1.68-.92-3.72,1.39-5.06l9.38-5.41c1.56-.89,2.29-2.08,2.2-3.26h0v-16.9s-17.2,3.37-17.44,3.61a13.53,13.53,0,0,0-.56,1.66,12,12,0,0,0-8.51.88l-9.38,5.41a12,12,0,0,1-8.77.8,104.28,104.28,0,0,0-10.38-2.48c-3.11-.59-5.21-2.26-5.21-4.15v-7.65c0-2.4-3.38-4.36-7.56-4.36H528.89c-4.18,0-7.57,2-7.57,4.36V589c0,1.89-2.1,3.56-5.2,4.15a103.61,103.61,0,0,0-10.38,2.48,12,12,0,0,1-8.78-.8l-9.37-5.41a11.8,11.8,0,0,0-10.7,0l-.65.37-3.09-3.63-12.07-3v17.38h0a3.87,3.87,0,0,0,2.19,2.84l9.38,5.41c2.32,1.34,2.88,3.38,1.39,5.06a35.63,35.63,0,0,0-4.3,6c-1,1.79-3.91,3-7.18,3H450.75v-2.93h-9v18.39c0,2.41,3.38,4.36,7.56,4.36h13.26c3.27,0,6.17,1.21,7.18,3a34.84,34.84,0,0,0,4.3,6,3.16,3.16,0,0,1,.75,1.4l-13.65-5.37-.07,17.4v.34h0a3.88,3.88,0,0,0,2.19,2.87l13.61,7.85a11.86,11.86,0,0,0,10.7,0l9.37-5.41a12,12,0,0,1,8.78-.8q5,1.45,10.38,2.48c3.1.58,5.2,2.25,5.2,4.14v7.65c0,2.41,3.39,4.36,7.57,4.36h19.24c4.18,0,7.56-2,7.56-4.36v-7.65c0-1.89,2.1-3.56,5.21-4.14,3.59-.68,7.06-1.51,10.38-2.48a11.92,11.92,0,0,1,8.77.8l9.38,5.41a11.86,11.86,0,0,0,10.7,0l13.6-7.85c1.56-.9,2.29-2.09,2.2-3.26h0v-16.9l-12.07,2.45a34,34,0,0,0,3.39-4.92c1-1.79,3.92-3,7.19-3h13.26c4.17,0,7.56-1.95,7.56-4.36V619.5Zm-83,35c-20.8,0-37.66-9.73-37.66-21.72S517.71,611,538.51,611s37.66,9.73,37.66,21.73S559.31,654.49,538.51,654.49Z" style="fill:url(#ez)"/><path d="M627.71,606H614.45c-3.27,0-6.18-1.22-7.19-3a34.53,34.53,0,0,0-4.3-6c-1.48-1.68-.92-3.72,1.39-5.06l9.38-5.41c3-1.7,3-4.46,0-6.16l-13.6-7.85a11.8,11.8,0,0,0-10.7,0l-9.38,5.41a12,12,0,0,1-8.77.8,104.28,104.28,0,0,0-10.38-2.48c-3.11-.59-5.21-2.26-5.21-4.15v-7.65c0-2.4-3.38-4.36-7.56-4.36H528.89c-4.18,0-7.57,2-7.57,4.36v7.65c0,1.89-2.1,3.56-5.2,4.15a103.61,103.61,0,0,0-10.38,2.48,12,12,0,0,1-8.78-.8l-9.37-5.41a11.8,11.8,0,0,0-10.7,0l-13.61,7.85c-2.95,1.7-2.95,4.46,0,6.16l9.38,5.41c2.32,1.34,2.88,3.38,1.39,5.06a35.63,35.63,0,0,0-4.3,6c-1,1.79-3.91,3-7.18,3H449.31c-4.18,0-7.56,1.95-7.56,4.36v11.1c0,2.41,3.38,4.36,7.56,4.36h13.26c3.27,0,6.17,1.21,7.18,3a34.84,34.84,0,0,0,4.3,6c1.49,1.68.93,3.73-1.39,5.06l-9.38,5.41c-2.95,1.7-2.95,4.47,0,6.17l13.61,7.85a11.86,11.86,0,0,0,10.7,0l9.37-5.41a12,12,0,0,1,8.78-.8q5,1.46,10.38,2.48c3.1.58,5.2,2.25,5.2,4.14v7.65c0,2.41,3.39,4.36,7.57,4.36h19.24c4.18,0,7.56-1.95,7.56-4.36v-7.65c0-1.89,2.1-3.56,5.21-4.14,3.59-.68,7.06-1.51,10.38-2.48a11.92,11.92,0,0,1,8.77.8l9.38,5.41a11.86,11.86,0,0,0,10.7,0l13.6-7.85c3-1.7,3-4.47,0-6.17l-9.38-5.41c-2.31-1.33-2.87-3.38-1.39-5.06a33.79,33.79,0,0,0,4.3-6c1-1.79,3.92-3,7.19-3h13.26c4.17,0,7.56-1.95,7.56-4.36v-11.1C635.27,607.91,631.88,606,627.71,606Zm-89.2,31.63c-20.8,0-37.66-9.73-37.66-21.72s16.86-21.73,37.66-21.73,37.66,9.73,37.66,21.73S559.31,637.59,538.51,637.59Z" style="fill:url(#fa)"/><path d="M393.81,158.58c0,26.76-21-3.85-77.32-10.51-26.59-3.14.6-38,28.85-38A48.47,48.47,0,0,1,393.81,158.58Z" style="fill:#fff;opacity:0.2"/><path d="M380.46,172.67c4.74,3.47,4.77,11.5.06,17.94s-12.38,8.83-17.12,5.36-2.82-8.9,1.89-15.34S375.72,169.2,380.46,172.67Z" style="fill:#fff;opacity:0.2"/><circle cx="237.88" cy="239.87" r="31.63" style="fill:url(#fb)"/><circle cx="1117.86" cy="319.58" r="31.63" transform="translate(-37.21 452.11) rotate(-22.5)" style="fill:url(#fc)"/><circle cx="234.48" cy="144.73" r="10.41" transform="translate(39.75 339.68) rotate(-76.72)" style="fill:url(#fd)"/><path d="M1143.6,320.46c0,14.55-11.42-2.09-42-5.71-14.45-1.71.33-20.64,15.69-20.64A26.34,26.34,0,0,1,1143.6,320.46Z" style="fill:#fff;opacity:0.2"/><path d="M1136.35,328.12c2.58,1.89,2.59,6.25,0,9.75s-6.73,4.81-9.3,2.92-1.54-4.84,1-8.34S1133.77,326.24,1136.35,328.12Z" style="fill:#fff;opacity:0.2"/><path d="M263.83,239.53c0,14.55-11.43-2.09-42-5.71-14.46-1.71.32-20.64,15.68-20.64A26.35,26.35,0,0,1,263.83,239.53Z" style="fill:#fff;opacity:0.2"/><path d="M256.57,247.19c2.58,1.89,2.59,6.25,0,9.75s-6.72,4.81-9.3,2.92-1.53-4.84,1-8.34S254,245.31,256.57,247.19Z" style="fill:#fff;opacity:0.2"/><path d="M1169.62,491a16.88,16.88,0,0,0,2.35-3,26.18,26.18,0,0,0-14.42-38,24.73,24.73,0,0,1,2.62-8.19,26.16,26.16,0,0,1,45,26.62C1200.39,476.56,1181.74,485.7,1169.62,491Z" style="fill:url(#fe)"/><path d="M1152.45,506.25s11.94-26.48,20.9-31a18.37,18.37,0,0,1,24.57,8l.06.12c4-2.92,7.14-5.9,8.84-8.77A30.7,30.7,0,0,0,1154,443.36C1145.41,457.83,1152.45,506.25,1152.45,506.25Z" style="opacity:0.8;fill:url(#ff)"/><path d="M1157.56,483.83a16.77,16.77,0,0,1,1.51-3.51,26.19,26.19,0,0,1,40.21-5.66,24.76,24.76,0,0,0,5.92-6.24,26.16,26.16,0,0,0-45-26.62C1155.36,449.93,1156.34,470.68,1157.56,483.83Z" style="fill:#f9ea3e;opacity:0.30000000000000004"/><path d="M1210.6,349.35l-32.88,64c-4.14,7,2.34,18.5,14.47,25.67s25.32,7.31,29.46.31l40.25-59.66Z" style="fill:url(#fg)"/><path d="M1261.9,379.68c4.83-8.18,17.66-56.09,3.49-64.46s-50,25.95-54.79,34.13,2.73,21.6,16.89,30S1257.06,387.86,1261.9,379.68Z" style="fill:url(#fh)"/><path d="M1265.39,315.22c-4.23-2.5-10.39-1.19-17.08,2.09l0,.05c-2.21,3.74,1.25,9.89,7.73,13.72s13.54,3.91,15.76.17l0-.05C1271.45,323.75,1269.63,317.72,1265.39,315.22Z" style="fill:url(#fi)"/><path d="M1187.89,446.3h0a2.23,2.23,0,0,1-.76-3.11l25.65-41.07a1.07,1.07,0,0,1,1.44-.35h0a1.06,1.06,0,0,1,.38,1.43L1191,445.47A2.24,2.24,0,0,1,1187.89,446.3Z" style="fill:url(#fj)"/><path d="M1238.45,409.76,1237,444.42c0,5.79-5.4,8.88-9.43,5.35l-9.79-9.38Z" style="fill:url(#fk)"/><path d="M1195.74,384.5l-29.68,18c-5.09,2.77-5.17,9-.15,10.85l12.94,4.05Z" style="fill:url(#fl)"/></svg>