<svg xmlns="http://www.w3.org/2000/svg" xmlns:xlink="http://www.w3.org/1999/xlink" viewBox="0 0 1366 768"><defs><filter id="b" x="231.91" y="-8576" width="962.47" height="32766" filterUnits="userSpaceOnUse" color-interpolation-filters="sRGB"><feFlood flood-color="#fff" result="bg"/><feBlend in="SourceGraphic" in2="bg"/></filter><mask id="a" x="231.91" y="-8576" width="962.47" height="32766" maskUnits="userSpaceOnUse"><g style="filter:url(#b)"/></mask><linearGradient id="c" x1="540.59" y1="552.48" x2="972.76" y2="145.07" gradientUnits="userSpaceOnUse"><stop offset="0"/><stop offset="1" stop-color="#fff"/></linearGradient><filter id="e" x="231.91" y="72.95" width="962.47" height="688.89" filterUnits="userSpaceOnUse" color-interpolation-filters="sRGB"><feFlood flood-color="#fff" result="bg"/><feBlend in="SourceGraphic" in2="bg"/></filter><mask id="d" x="231.91" y="72.95" width="962.47" height="688.89" maskUnits="userSpaceOnUse"><g style="mask:url(#a);filter:url(#e)"><path d="M502.07,84.18c65.41,16.4,138.1,65.88,264,51.79,235.55-26.37,460.1,78.31,424.56,326.51s-204.21,371.4-435.4,255.34C585.52,632.61,574.29,518.53,464,489.66,258.56,435.9,189.08,292.83,257.26,177.56S415.11,62.38,502.07,84.18Z" style="mix-blend-mode:multiply;fill:url(#c)"/></g></mask><linearGradient id="f" x1="540.59" y1="552.48" x2="972.76" y2="145.07" gradientUnits="userSpaceOnUse"><stop offset="0" stop-color="#8dcfff"/><stop offset="1" stop-color="#8dcfff"/></linearGradient><clipPath id="g"><path d="M755.6,378.28l-12.86-25.5c-5.91-11.73,2.52-29.32,20.92-47.22,11.7-11.37,27.43-22.87,46.07-33.06,50.58-27.65,103.46-35.2,118.12-16.87l12.86,25.51c-14.65-18.33-67.54-10.77-118.12,16.88-18.65,10.19-34.37,21.68-46.07,33.06C758.12,349,749.69,366.57,755.6,378.28Z" style="fill:none"/></clipPath><clipPath id="h"><path d="M929.77,258.61q6.43,12.76,12.86,25.52a17,17,0,0,0-1.92-3l-12.86-25.51A16.42,16.42,0,0,1,929.77,258.61Z" style="fill:none"/></clipPath><clipPath id="i"><path d="M961,243.86l12.86,25.52a25,25,0,0,1,2,8.67L963,252.54A24.91,24.91,0,0,0,961,243.86Z" style="fill:none"/></clipPath><clipPath id="j"><path d="M726.89,381.1l12.86,25.51a34.46,34.46,0,0,1-8.61-5.09L718.28,376A34.76,34.76,0,0,0,726.89,381.1Z" style="fill:none"/></clipPath><clipPath id="k"><path d="M961.29,264.89l12.87,25.52a64.37,64.37,0,0,1-4.9,11.23L956.4,276.12A63.21,63.21,0,0,0,961.29,264.89Z" style="fill:none"/></clipPath><clipPath id="l"><path d="M755.43,385.57l12.86,25.51a101.37,101.37,0,0,1-14.21-.85l-12.87-25.51A101.6,101.6,0,0,0,755.43,385.57Z" style="fill:none"/></clipPath><clipPath id="m"><path d="M946.52,290.84l12.86,25.52c-3,3.77-6.89,8.09-11.18,12.43l-12.87-25.52A161.5,161.5,0,0,0,946.52,290.84Z" style="fill:none"/></clipPath><clipPath id="n"><path d="M793.74,380.41l12.85,25.52c-5.69,1.32-12,2.56-18.09,3.45l-12.85-25.51C781.71,383,788,381.73,793.74,380.41Z" style="fill:none"/></clipPath><clipPath id="o"><path d="M918.47,318.58l12.85,25.52c-4.71,3.81-10.23,8-16.11,12.12l-12.86-25.5C908.24,326.59,913.76,322.4,918.47,318.58Z" style="fill:none"/></clipPath><clipPath id="p"><path d="M837.16,366.23,850,391.75c-6.27,2.58-13.09,5.12-19.8,7.37L817.36,373.6C824.07,371.36,830.89,368.81,837.16,366.23Z" style="fill:none"/></clipPath><clipPath id="q"><path d="M881.3,344.24l12.86,25.51c-3.2,1.89-6.45,3.75-9.79,5.58s-6.76,3.61-10.13,5.31l-12.87-25.52q5.07-2.55,10.15-5.3C874.85,348,878.1,346.13,881.3,344.24Z" style="fill:none"/></clipPath><clipPath id="r"><path d="M1006.36,324.34l7.26,18.88c-2-5.17-13.27-6-26.62-1.63a60.66,60.66,0,0,0-18.41,9.48c-4.64,3.65-7.42,7.52-7.24,10.73a4.73,4.73,0,0,0,.3,1.43l-7.26-18.88a4.5,4.5,0,0,1-.3-1.43c-.17-3.22,2.6-7.09,7.24-10.74a61.28,61.28,0,0,1,18.4-9.48C993.09,318.35,1004.37,319.16,1006.36,324.34Z" style="fill:none"/></clipPath><clipPath id="s"><path d="M926.16,367.18l7.26,18.89c-4.15-1.58-7.18-3.86-8.84-6.82l-7.26-18.87C919,363.32,922,365.6,926.16,367.18Z" style="fill:none"/></clipPath><clipPath id="t"><path d="M1043.46,320.6l7.27,18.88a40.44,40.44,0,0,1-8.8,12.39L1034.68,333C1038.8,328.79,1041.83,324.6,1043.46,320.6Z" style="fill:none"/></clipPath><clipPath id="u"><path d="M966.79,367.05l7.27,18.88a113.88,113.88,0,0,1-21.33,2.74l-7.26-18.88A114.51,114.51,0,0,0,966.79,367.05Z" style="fill:none"/></clipPath><clipPath id="v"><path d="M1015.4,347.75l7.26,18.88a155.31,155.31,0,0,1-21.32,10.7l-7.26-18.89A154.17,154.17,0,0,0,1015.4,347.75Z" style="fill:none"/></clipPath><clipPath id="w"><path d="M770.3,471.08q3.41,9.56,6.83,19.11c-1.46-4.08.39-9.38,6-15.28,13.24-13.94,42.46-26,65.25-26.84,13.16-.5,21.31,2.81,23.3,8.38l-6.83-19.12c-2-5.57-10.14-8.88-23.3-8.37-22.79.88-52,12.89-65.25,26.84C770.68,461.7,768.84,467,770.3,471.08Z" style="fill:none"/></clipPath><clipPath id="x"><path d="M695.23,497.86,702.06,517a21.63,21.63,0,0,0,4,6.82l-6.83-19.11A21.74,21.74,0,0,1,695.23,497.86Z" style="fill:none"/></clipPath><clipPath id="y"><path d="M935,436.58l6.83,19.12a46.12,46.12,0,0,0,4.18-8.76l-6.83-19.12A46.45,46.45,0,0,1,935,436.58Z" style="fill:none"/></clipPath><clipPath id="z"><path d="M720.51,516.49l6.83,19.12a93,93,0,0,0,13.86,2.5L734.37,519A91.71,91.71,0,0,1,720.51,516.49Z" style="fill:none"/></clipPath><clipPath id="aa"><path d="M898.67,471.37l6.83,19.11q7.31-5,13.65-10.17l-6.83-19.12Q906,466.41,898.67,471.37Z" style="fill:none"/></clipPath><clipPath id="ab"><path d="M773.22,518.05l6.83,19.11q10-1.24,20.31-3.36l-6.84-19.12Q783.24,516.8,773.22,518.05Z" style="fill:none"/></clipPath><clipPath id="ac"><path d="M839,501.53l6.83,19.11c6.87-2.56,13.63-5.33,20.2-8.31l-6.83-19.11C852.58,496.19,845.82,499,839,501.53Z" style="fill:none"/></clipPath><clipPath id="ad"><rect x="795.85" y="92.72" width="71.29" height="237.13" style="fill:none"/></clipPath></defs><g style="isolation:isolate"><g style="mask:url(#d)"><path d="M502.07,84.18c65.41,16.4,138.1,65.88,264,51.79,235.55-26.37,460.1,78.31,424.56,326.51s-204.21,371.4-435.4,255.34C585.52,632.61,574.29,518.53,464,489.66,258.56,435.9,189.08,292.83,257.26,177.56S415.11,62.38,502.07,84.18Z" style="mix-blend-mode:multiply;fill:url(#f)"/></g><rect x="198.94" y="312.23" width="753.13" height="332.86" style="fill:#bcd0e2"/><rect x="198.94" y="312.23" width="753.13" height="20.57" style="fill:#e1eefe"/><path d="M214,322.52a4.12,4.12,0,1,1-4.12-4.11A4.13,4.13,0,0,1,214,322.52Z" style="fill:#ad5c49"/><path d="M227,322.52a4.12,4.12,0,1,1-4.12-4.11A4.12,4.12,0,0,1,227,322.52Z" style="fill:#ffc40e"/><path d="M240.06,322.52a4.11,4.11,0,1,1-4.11-4.11A4.12,4.12,0,0,1,240.06,322.52Z" style="fill:#3bb6d5"/><rect x="260.82" y="354.31" width="671.91" height="269.66" style="fill:#edf4fc"/><rect x="295.37" y="383.32" width="107.94" height="4.44" style="fill:#d9e1e4"/><rect x="295.37" y="373.86" width="34.97" height="4.44" style="fill:#d9e1e4"/><rect x="522.1" y="383.32" width="107.94" height="4.44" style="fill:#d9e1e4"/><rect x="522.1" y="540.88" width="5.45" height="4.44" style="fill:#ffc40e"/><rect x="522.1" y="551.56" width="90.86" height="4.44" style="fill:#d9e1e4"/><rect x="643.8" y="540.88" width="5.45" height="4.44" style="fill:#3bb6d5"/><rect x="643.8" y="551.56" width="90.86" height="4.44" style="fill:#d9e1e4"/><rect x="522.1" y="373.86" width="34.97" height="4.44" style="fill:#d9e1e4"/><rect x="797.14" y="383.32" width="107.94" height="4.44" style="fill:#d9e1e4"/><rect x="797.14" y="373.86" width="34.97" height="4.44" style="fill:#d9e1e4"/><path d="M468.22,588.21H299.48V396.94H468.22ZM299.68,588H468V397.14H299.68Z" style="fill:#bac2c6"/><rect x="299.58" y="560.71" width="168.54" height="0.2" style="fill:#bac2c6"/><rect x="299.58" y="533.42" width="168.54" height="0.2" style="fill:#bac2c6"/><rect x="299.58" y="506.13" width="168.54" height="0.2" style="fill:#bac2c6"/><rect x="299.58" y="478.83" width="168.54" height="0.2" style="fill:#bac2c6"/><rect x="299.58" y="451.53" width="168.54" height="0.2" style="fill:#bac2c6"/><rect x="299.58" y="424.24" width="168.54" height="0.2" style="fill:#bac2c6"/><rect x="411.84" y="397.04" width="0.2" height="191.07" style="fill:#bac2c6"/><rect x="355.66" y="397.04" width="0.2" height="191.07" style="fill:#bac2c6"/><polygon points="290.93 405.83 290.79 405.69 299.51 396.97 299.65 397.11 290.93 405.83" style="fill:#bac2c6"/><rect x="289.06" y="428.59" width="12.33" height="0.2" transform="translate(-216.68 334.37) rotate(-45.01)" style="fill:#bac2c6"/><rect x="289.06" y="455.89" width="12.33" height="0.2" transform="translate(-235.06 338.15) rotate(-44.55)" style="fill:#bac2c6"/><rect x="289.06" y="483.19" width="12.33" height="0.2" transform="translate(-254.82 348.46) rotate(-44.81)" style="fill:#bac2c6"/><polygon points="290.93 515.01 290.79 514.87 299.51 506.15 299.65 506.3 290.93 515.01" style="fill:#bac2c6"/><rect x="289.06" y="537.78" width="12.33" height="0.2" transform="translate(-291.9 359.68) rotate(-44.36)" style="fill:#bac2c6"/><polygon points="290.93 569.61 290.79 569.46 299.51 560.75 299.65 560.89 290.93 569.61" style="fill:#bac2c6"/><path d="M283.11,570.29h0l-.86.47-.13-.51,1.08-.58h.57v5h-.65Z" style="fill:#bac2c6"/><path d="M288.86,572.09c0,1.69-.62,2.62-1.72,2.62s-1.62-.91-1.64-2.55.72-2.58,1.73-2.58S288.86,570.51,288.86,572.09Zm-2.69.08c0,1.29.4,2,1,2s1-.8,1-2.07-.31-2-1-2S286.17,570.82,286.17,572.17Z" style="fill:#bac2c6"/><path d="M281.66,547.52v-.41l.53-.51c1.26-1.2,1.83-1.85,1.84-2.59a.88.88,0,0,0-1-1,1.69,1.69,0,0,0-1.05.42l-.22-.47a2.19,2.19,0,0,1,1.41-.51,1.39,1.39,0,0,1,1.51,1.44c0,.92-.66,1.66-1.7,2.66l-.4.37h2.22v.56Z" style="fill:#bac2c6"/><path d="M288.86,545c0,1.69-.62,2.61-1.72,2.61s-1.62-.9-1.64-2.54.72-2.58,1.73-2.58S288.86,543.41,288.86,545Zm-2.69.08c0,1.28.4,2,1,2s1-.8,1-2.07-.31-2-1-2S286.17,543.72,286.17,545.07Z" style="fill:#bac2c6"/><path d="M281.82,519.65a2.26,2.26,0,0,0,1.1.31c.86,0,1.13-.55,1.12-1,0-.69-.63-1-1.28-1h-.38v-.5h.38c.49,0,1.1-.25,1.1-.84,0-.4-.25-.75-.86-.75a1.88,1.88,0,0,0-1,.33l-.17-.49a2.35,2.35,0,0,1,1.29-.38c1,0,1.42.58,1.42,1.18a1.23,1.23,0,0,1-.91,1.17h0a1.29,1.29,0,0,1,1.1,1.28c0,.79-.62,1.48-1.8,1.48a2.51,2.51,0,0,1-1.29-.33Z" style="fill:#bac2c6"/><path d="M288.86,517.89c0,1.68-.62,2.61-1.72,2.61s-1.62-.91-1.64-2.54.72-2.58,1.73-2.58S288.86,516.31,288.86,517.89Zm-2.69.07c0,1.29.4,2,1,2s1-.8,1-2.06-.31-2-1-2S286.17,516.61,286.17,518Z" style="fill:#bac2c6"/><path d="M283.73,493.32V492h-2.3v-.44l2.21-3.17h.73v3.08h.69V492h-.69v1.35Zm0-1.88v-1.65q0-.39,0-.78h0c-.15.29-.27.51-.41.73l-1.21,1.69h1.62Z" style="fill:#bac2c6"/><path d="M288.86,490.79c0,1.68-.62,2.61-1.72,2.61s-1.62-.91-1.64-2.54.72-2.58,1.73-2.58S288.86,489.21,288.86,490.79Zm-2.69.07c0,1.29.4,2,1,2s1-.8,1-2.06-.31-2-1-2S286.17,489.52,286.17,490.86Z" style="fill:#bac2c6"/><path d="M284.62,461.82h-1.89l-.19,1.28a2.1,2.1,0,0,1,.4,0,2.15,2.15,0,0,1,1.07.26,1.43,1.43,0,0,1,.71,1.28,1.72,1.72,0,0,1-1.85,1.69,2.31,2.31,0,0,1-1.23-.31l.16-.51a2.18,2.18,0,0,0,1.07.28,1.09,1.09,0,0,0,1.17-1.08c0-.64-.44-1.09-1.43-1.09a4.12,4.12,0,0,0-.68.05l.32-2.38h2.37Z" style="fill:#bac2c6"/><path d="M288.86,463.68c0,1.69-.62,2.62-1.72,2.62s-1.62-.91-1.64-2.55.72-2.57,1.73-2.57S288.86,462.11,288.86,463.68Zm-2.69.08c0,1.29.4,2,1,2s1-.8,1-2.07-.31-2-1-2S286.17,462.41,286.17,463.76Z" style="fill:#bac2c6"/><path d="M284.49,434.63a2.38,2.38,0,0,0-.51,0,2,2,0,0,0-1.72,1.76h0a1.51,1.51,0,0,1,2.69,1,1.65,1.65,0,0,1-1.65,1.74c-1.06,0-1.75-.82-1.75-2.11a3.11,3.11,0,0,1,.84-2.23,2.68,2.68,0,0,1,1.58-.73,3.39,3.39,0,0,1,.49,0Zm-.19,2.86a1,1,0,0,0-1-1.14,1.09,1.09,0,0,0-1,.61.56.56,0,0,0-.08.3c0,.82.39,1.42,1.09,1.42S284.3,438.2,284.3,437.49Z" style="fill:#bac2c6"/><path d="M288.86,436.58c0,1.69-.62,2.61-1.72,2.61s-1.62-.9-1.64-2.54.72-2.58,1.73-2.58S288.86,435,288.86,436.58Zm-2.69.08c0,1.29.4,2,1,2s1-.8,1-2.07-.31-2-1-2S286.17,435.31,286.17,436.66Z" style="fill:#bac2c6"/><path d="M284.88,407.06v.44L282.72,412H282l2.15-4.38v0h-2.43v-.55Z" style="fill:#bac2c6"/><path d="M288.86,409.48c0,1.69-.62,2.61-1.72,2.61s-1.62-.9-1.64-2.54.72-2.58,1.73-2.58S288.86,407.9,288.86,409.48Zm-2.69.08c0,1.28.4,2,1,2s1-.8,1-2.07-.31-2-1-2S286.17,408.21,286.17,409.56Z" style="fill:#bac2c6"/><path d="M317.32,598.2v-.42l.52-.51c1.27-1.2,1.84-1.84,1.85-2.59a.88.88,0,0,0-1-1,1.69,1.69,0,0,0-1.06.41l-.21-.47a2.16,2.16,0,0,1,1.4-.5,1.39,1.39,0,0,1,1.52,1.44c0,.91-.67,1.66-1.71,2.66l-.4.36v0h2.23v.56Z" style="fill:#bac2c6"/><path d="M324.52,595.67c0,1.68-.62,2.61-1.72,2.61s-1.63-.91-1.64-2.54.71-2.58,1.72-2.58S324.52,594.09,324.52,595.67Zm-2.69.07c0,1.29.4,2,1,2s1-.8,1-2.06-.31-2-1-2S321.83,594.39,321.83,595.74Z" style="fill:#bac2c6"/><path d="M326.59,593.87h0l-.86.46-.13-.51,1.08-.58h.57v5h-.65Z" style="fill:#bac2c6"/><path d="M332.27,593.24v.44l-2.16,4.52h-.7l2.15-4.39h-2.42v-.56Z" style="fill:#bac2c6"/><path d="M374.63,598.2v-.42l.53-.51c1.26-1.2,1.83-1.84,1.84-2.59a.88.88,0,0,0-1-1,1.68,1.68,0,0,0-1,.41l-.22-.47a2.19,2.19,0,0,1,1.41-.5,1.39,1.39,0,0,1,1.51,1.44c0,.91-.66,1.66-1.7,2.66l-.4.36v0h2.22v.56Z" style="fill:#bac2c6"/><path d="M381.84,595.67c0,1.68-.63,2.61-1.73,2.61s-1.62-.91-1.64-2.54.72-2.58,1.73-2.58S381.84,594.09,381.84,595.67Zm-2.7.07c0,1.29.4,2,1,2s1-.8,1-2.06-.31-2-1-2S379.14,594.39,379.14,595.74Z" style="fill:#bac2c6"/><path d="M383.91,593.87h0l-.86.46-.13-.51,1.08-.58h.58v5h-.65Z" style="fill:#bac2c6"/><path d="M386.3,596.94a1.43,1.43,0,0,1,1-1.33v0a1.24,1.24,0,0,1-.79-1.11,1.38,1.38,0,0,1,1.53-1.32,1.28,1.28,0,0,1,1.44,1.22,1.25,1.25,0,0,1-.81,1.16v0a1.37,1.37,0,0,1,1,1.28,1.53,1.53,0,0,1-1.69,1.44C386.93,598.28,386.3,597.66,386.3,596.94Zm2.67,0c0-.6-.42-.89-1.09-1.08a1.06,1.06,0,0,0-.89,1,.92.92,0,0,0,1,.94A.89.89,0,0,0,389,596.91Zm-1.84-2.48c0,.5.37.76.94.92a1,1,0,0,0,.75-.9.76.76,0,0,0-.83-.81A.78.78,0,0,0,387.13,594.43Z" style="fill:#bac2c6"/><path d="M431.94,598.2v-.42l.53-.51c1.26-1.2,1.84-1.84,1.84-2.59a.88.88,0,0,0-1-1,1.68,1.68,0,0,0-1.05.41l-.21-.47a2.16,2.16,0,0,1,1.4-.5A1.39,1.39,0,0,1,435,594.6c0,.91-.66,1.66-1.7,2.66l-.4.36v0h2.23v.56Z" style="fill:#bac2c6"/><path d="M439.15,595.67c0,1.68-.63,2.61-1.72,2.61s-1.63-.91-1.65-2.54.72-2.58,1.73-2.58S439.15,594.09,439.15,595.67Zm-2.7.07c0,1.29.4,2,1,2s1-.8,1-2.06-.32-2-1-2S436.45,594.39,436.45,595.74Z" style="fill:#bac2c6"/><path d="M441.22,593.87h0l-.87.46-.13-.51,1.09-.58h.57v5h-.65Z" style="fill:#bac2c6"/><path d="M444.06,597.72a2.59,2.59,0,0,0,.54,0,1.82,1.82,0,0,0,1-.48,2.21,2.21,0,0,0,.66-1.32h0a1.48,1.48,0,0,1-2.62-1,1.69,1.69,0,0,1,1.69-1.76c1,0,1.64.82,1.64,2.09a3.11,3.11,0,0,1-.86,2.32,2.43,2.43,0,0,1-1.44.66,2.86,2.86,0,0,1-.62,0Zm.25-2.85a1,1,0,0,0,.95,1.06,1.14,1.14,0,0,0,1-.52.54.54,0,0,0,.06-.25c0-.84-.32-1.49-1-1.49S444.31,594.17,444.31,594.87Z" style="fill:#bac2c6"/><rect x="299.58" y="424.34" width="168.54" height="27.29" style="fill:#fff;opacity:0.34"/><rect x="299.58" y="478.93" width="168.54" height="27.3" style="fill:#fff;opacity:0.34"/><rect x="299.58" y="533.52" width="168.54" height="27.3" style="fill:#fff;opacity:0.34"/><rect x="299.58" y="424.34" width="75.74" height="4.36" style="fill:#ffc40e"/><rect x="299.58" y="435.81" width="130.1" height="4.36" style="fill:#165670"/><rect x="299.58" y="447.28" width="46.37" height="4.36" style="fill:#3bb6d5"/><rect x="299.58" y="478.93" width="136.72" height="4.36" style="fill:#ffc40e"/><rect x="299.58" y="490.4" width="56.18" height="4.36" style="fill:#165670"/><rect x="299.58" y="501.87" width="112.36" height="4.36" style="fill:#3bb6d5"/><rect x="299.58" y="533.87" width="56.18" height="4.36" style="fill:#ffc40e"/><rect x="299.58" y="545.34" width="112.36" height="4.36" style="fill:#165670"/><rect x="299.58" y="556.81" width="92.74" height="4.36" style="fill:#3bb6d5"/><rect x="797.14" y="404.91" width="5.76" height="5.76" style="fill:#d9e1e4"/><rect x="813.47" y="404.91" width="5.76" height="5.76" style="fill:#d9e1e4"/><rect x="829.8" y="404.91" width="5.76" height="5.76" style="fill:#d9e1e4"/><rect x="846.14" y="404.91" width="5.77" height="5.76" style="fill:#bac2c6"/><rect x="862.47" y="404.91" width="5.76" height="5.76" style="fill:#bac2c6"/><rect x="878.8" y="404.91" width="5.76" height="5.76" style="fill:#ffc40e"/><rect x="895.14" y="404.91" width="5.76" height="5.76" style="fill:#ffc40e"/><rect x="797.14" y="419.32" width="5.76" height="5.76" style="fill:#bac2c6"/><rect x="813.47" y="419.32" width="5.76" height="5.76" style="fill:#bac2c6"/><rect x="829.8" y="419.32" width="5.76" height="5.76" style="fill:#bac2c6"/><rect x="846.14" y="419.32" width="5.77" height="5.76" style="fill:#bac2c6"/><rect x="862.47" y="419.32" width="5.76" height="5.76" style="fill:#bac2c6"/><rect x="878.8" y="419.32" width="5.76" height="5.76" style="fill:#ffc40e"/><rect x="895.14" y="419.32" width="5.76" height="5.76" style="fill:#ffc40e"/><rect x="797.14" y="433.73" width="5.76" height="5.76" style="fill:#bac2c6"/><rect x="813.47" y="433.73" width="5.76" height="5.76" style="fill:#bac2c6"/><rect x="829.8" y="433.73" width="5.76" height="5.76" style="fill:#3bb6d5"/><rect x="846.14" y="433.73" width="5.77" height="5.76" style="fill:#3bb6d5"/><rect x="862.47" y="433.73" width="5.76" height="5.76" style="fill:#bac2c6"/><rect x="878.8" y="433.73" width="5.76" height="5.76" style="fill:#ffc40e"/><rect x="895.14" y="433.73" width="5.76" height="5.76" style="fill:#ffc40e"/><rect x="797.14" y="448.14" width="5.76" height="5.76" style="fill:#165670"/><rect x="813.47" y="448.14" width="5.76" height="5.76" style="fill:#bac2c6"/><rect x="829.8" y="448.14" width="5.76" height="5.76" style="fill:#bac2c6"/><rect x="846.14" y="448.14" width="5.77" height="5.76" style="fill:#bac2c6"/><rect x="862.47" y="448.14" width="5.76" height="5.76" style="fill:#bac2c6"/><rect x="878.8" y="448.14" width="5.76" height="5.76" style="fill:#ffc40e"/><rect x="895.14" y="448.14" width="5.76" height="5.76" style="fill:#ffc40e"/><rect x="797.14" y="462.56" width="5.76" height="5.76" style="fill:#bac2c6"/><rect x="813.47" y="462.56" width="5.76" height="5.76" style="fill:#bac2c6"/><rect x="829.8" y="462.56" width="5.76" height="5.76" style="fill:#bac2c6"/><rect x="846.14" y="462.56" width="5.77" height="5.76" style="fill:#bac2c6"/><rect x="862.47" y="462.56" width="5.76" height="5.76" style="fill:#bac2c6"/><rect x="878.8" y="462.56" width="5.76" height="5.76" style="fill:#ffc40e"/><rect x="895.14" y="462.56" width="5.76" height="5.76" style="fill:#ffc40e"/><rect x="797.14" y="476.97" width="5.76" height="5.76" style="fill:#bac2c6"/><rect x="813.47" y="476.97" width="5.76" height="5.76" style="fill:#bac2c6"/><rect x="829.8" y="476.97" width="5.76" height="5.76" style="fill:#bac2c6"/><rect x="846.14" y="476.97" width="5.77" height="5.76" style="fill:#bac2c6"/><rect x="862.47" y="476.97" width="5.76" height="5.76" style="fill:#bac2c6"/><rect x="878.8" y="476.97" width="5.76" height="5.76" style="fill:#d9e1e4"/><rect x="895.14" y="476.97" width="5.76" height="5.76" style="fill:#d9e1e4"/><rect x="693.94" y="396.37" width="0.22" height="104.57" style="fill:#bac2c6"/><rect x="651.33" y="396.37" width="0.22" height="104.57" style="fill:#bac2c6"/><rect x="608.72" y="396.37" width="0.22" height="104.57" style="fill:#bac2c6"/><rect x="566.11" y="396.37" width="0.22" height="104.57" style="fill:#bac2c6"/><rect x="608.83" y="396.37" width="85.22" height="104.57" style="fill:#fff;opacity:0.34"/><path d="M736.78,501.05H523.51V396.26H736.78Zm-213-.22H736.55V396.48H523.73Z" style="fill:#bac2c6"/><rect x="523.62" y="483.4" width="213.05" height="0.22" style="fill:#bac2c6"/><rect x="523.62" y="465.97" width="213.05" height="0.22" style="fill:#bac2c6"/><rect x="523.62" y="448.54" width="213.05" height="0.22" style="fill:#bac2c6"/><rect x="523.62" y="431.12" width="213.05" height="0.22" style="fill:#bac2c6"/><rect x="523.62" y="413.69" width="213.05" height="0.22" style="fill:#bac2c6"/><path d="M520,500c0,1.54-.57,2.39-1.58,2.39s-1.48-.83-1.49-2.32.65-2.36,1.57-2.36S520,498.54,520,500Zm-2.46.07c0,1.18.36,1.85.92,1.85s.92-.73.92-1.89-.28-1.85-.91-1.85S517.57,498.82,517.57,500.05Z" style="fill:#bac2c6"/><path d="M514.77,480.85h0l-.79.43-.11-.47,1-.53h.53v4.53h-.6Z" style="fill:#bac2c6"/><path d="M520,482.5c0,1.54-.57,2.39-1.58,2.39s-1.48-.83-1.49-2.33.65-2.35,1.57-2.35S520,481.06,520,482.5Zm-2.46.07c0,1.18.36,1.84.92,1.84s.92-.73.92-1.88-.28-1.85-.91-1.85S517.57,481.34,517.57,482.57Z" style="fill:#bac2c6"/><path d="M513.44,467.33V467l.49-.46c1.15-1.1,1.67-1.69,1.68-2.37a.81.81,0,0,0-.9-.89,1.51,1.51,0,0,0-1,.39l-.19-.44a2,2,0,0,1,1.28-.46,1.27,1.27,0,0,1,1.38,1.32c0,.84-.6,1.51-1.56,2.43l-.36.33v0h2v.51Z" style="fill:#bac2c6"/><path d="M520,465c0,1.54-.57,2.39-1.58,2.39s-1.48-.83-1.49-2.33.65-2.36,1.57-2.36S520,463.57,520,465Zm-2.46.07c0,1.17.36,1.84.92,1.84s.92-.73.92-1.89-.28-1.84-.91-1.84S517.57,463.85,517.57,465.09Z" style="fill:#bac2c6"/><path d="M513.59,449.14a2.09,2.09,0,0,0,1,.29c.79,0,1-.5,1-.88,0-.63-.58-.9-1.17-.9h-.34v-.46h.34c.44,0,1-.23,1-.77,0-.36-.23-.68-.8-.68a1.63,1.63,0,0,0-.9.3l-.16-.45a2.15,2.15,0,0,1,1.18-.35c.89,0,1.3.53,1.3,1.08a1.13,1.13,0,0,1-.84,1.07h0a1.18,1.18,0,0,1,1,1.17c0,.72-.56,1.35-1.65,1.35a2.4,2.4,0,0,1-1.18-.3Z" style="fill:#bac2c6"/><path d="M520,447.53c0,1.54-.57,2.39-1.58,2.39s-1.48-.83-1.49-2.32.65-2.36,1.57-2.36S520,446.09,520,447.53Zm-2.46.07c0,1.18.36,1.85.92,1.85s.92-.73.92-1.89-.28-1.84-.91-1.84S517.57,446.37,517.57,447.6Z" style="fill:#bac2c6"/><path d="M515.34,432.36v-1.23h-2.1v-.4l2-2.89h.67v2.81h.63v.48h-.63v1.23Zm0-1.71v-1.51c0-.24,0-.47,0-.71h0c-.14.26-.25.46-.38.67l-1.1,1.54h1.48Z" style="fill:#bac2c6"/><path d="M520,430.05c0,1.54-.57,2.39-1.58,2.39s-1.48-.83-1.49-2.32.65-2.36,1.57-2.36S520,428.61,520,430.05Zm-2.46.07c0,1.18.36,1.85.92,1.85s.92-.73.92-1.89-.28-1.85-.91-1.85S517.57,428.89,517.57,430.12Z" style="fill:#bac2c6"/><path d="M516.15,410.87h-1.73l-.17,1.16a2.87,2.87,0,0,1,.36,0,1.91,1.91,0,0,1,1,.25,1.28,1.28,0,0,1,.65,1.16,1.58,1.58,0,0,1-1.69,1.55,2.24,2.24,0,0,1-1.13-.28l.16-.47a2,2,0,0,0,1,.25,1,1,0,0,0,1.08-1c0-.59-.4-1-1.3-1a3.56,3.56,0,0,0-.63,0l.29-2.18h2.17Z" style="fill:#bac2c6"/><path d="M520,412.57c0,1.54-.57,2.39-1.58,2.39s-1.48-.83-1.49-2.33.65-2.35,1.57-2.35S520,411.13,520,412.57Zm-2.46.07c0,1.17.36,1.84.92,1.84s.92-.73.92-1.88-.28-1.85-.91-1.85S517.57,411.4,517.57,412.64Z" style="fill:#bac2c6"/><path d="M544.25,506.7h0l-.73.4-.12-.44.93-.5h.49v4.25h-.55Z" style="fill:#bac2c6"/><path d="M585.62,510.41v-.35l.45-.44c1.08-1,1.57-1.58,1.58-2.22a.76.76,0,0,0-.84-.83,1.43,1.43,0,0,0-.91.36l-.18-.41a1.86,1.86,0,0,1,1.2-.43,1.19,1.19,0,0,1,1.3,1.24c0,.78-.56,1.41-1.46,2.28l-.34.31h1.91v.48Z" style="fill:#bac2c6"/><path d="M628.37,509.75a2,2,0,0,0,.94.27c.74,0,1-.47,1-.83,0-.59-.54-.84-1.09-.84h-.33v-.44h.33c.41,0,.94-.21.94-.72,0-.34-.22-.64-.74-.64a1.64,1.64,0,0,0-.85.28l-.15-.41a2,2,0,0,1,1.11-.33c.83,0,1.21.5,1.21,1a1.05,1.05,0,0,1-.78,1v0a1.1,1.1,0,0,1,1,1.09c0,.68-.53,1.27-1.55,1.27a2.15,2.15,0,0,1-1.11-.29Z" style="fill:#bac2c6"/><path d="M672.63,510.41v-1.16h-2v-.38l1.89-2.71h.62v2.64h.59v.45h-.59v1.16Zm0-1.61v-1.42c0-.22,0-.44,0-.66h0c-.13.25-.24.43-.35.62l-1,1.45h1.39Z" style="fill:#bac2c6"/><path d="M716,506.65h-1.62l-.16,1.09a1.62,1.62,0,0,1,.35,0,1.76,1.76,0,0,1,.91.23,1.2,1.2,0,0,1,.61,1.09,1.47,1.47,0,0,1-1.58,1.45,2.07,2.07,0,0,1-1.06-.26l.14-.44a1.87,1.87,0,0,0,.91.24.94.94,0,0,0,1-.92c0-.55-.38-.94-1.23-.94a4.39,4.39,0,0,0-.58,0l.27-2h2Z" style="fill:#bac2c6"/><polygon points="523.86 502.25 523.37 501.06 565.98 483.64 608.58 464.99 651.32 447.72 694.32 447.72 736.43 430.68 736.91 431.87 694.57 449 651.57 449 609.08 466.17 566.48 484.81 523.86 502.25" style="fill:#ffc40e"/><polygon points="608.83 484.2 608.59 484.11 566.22 466.78 523.86 484.11 523.37 482.92 566.22 465.39 608.84 482.82 651.06 466.79 693.66 414.35 736.41 395.78 736.92 396.96 694.46 415.4 651.84 467.87 651.67 467.93 608.83 484.2" style="fill:#3bb6d5"/><path d="M696.49,414.88a2.44,2.44,0,1,1-2.43-2.44A2.44,2.44,0,0,1,696.49,414.88Z" style="fill:#fff"/><path d="M694.06,418a3.08,3.08,0,1,1,3.07-3.08A3.08,3.08,0,0,1,694.06,418Zm0-4.88a1.8,1.8,0,1,0,1.8,1.8A1.8,1.8,0,0,0,694.06,413.08Z" style="fill:#3bb6d5"/><path d="M653.88,467.33a2.44,2.44,0,1,1-2.43-2.44A2.44,2.44,0,0,1,653.88,467.33Z" style="fill:#fff"/><path d="M651.45,470.41a3.08,3.08,0,1,1,3.08-3.08A3.08,3.08,0,0,1,651.45,470.41Zm0-4.88a1.8,1.8,0,1,0,1.79,1.8A1.8,1.8,0,0,0,651.45,465.53Z" style="fill:#3bb6d5"/><path d="M611.27,483.51a2.44,2.44,0,1,1-2.44-2.44A2.44,2.44,0,0,1,611.27,483.51Z" style="fill:#fff"/><path d="M608.83,486.59a3.08,3.08,0,1,1,3.08-3.08A3.08,3.08,0,0,1,608.83,486.59Zm0-4.88a1.8,1.8,0,1,0,1.8,1.8A1.8,1.8,0,0,0,608.83,481.71Z" style="fill:#3bb6d5"/><path d="M568.66,466.08a2.44,2.44,0,1,1-2.44-2.43A2.44,2.44,0,0,1,568.66,466.08Z" style="fill:#fff"/><path d="M566.22,469.16a3.08,3.08,0,1,1,3.08-3.08A3.09,3.09,0,0,1,566.22,469.16Zm0-4.87a1.8,1.8,0,1,0,1.8,1.79A1.79,1.79,0,0,0,566.22,464.29Z" style="fill:#3bb6d5"/><path d="M652.91,448.57a2.44,2.44,0,1,1-2.45-2.44A2.45,2.45,0,0,1,652.91,448.57Z" style="fill:#fff"/><path d="M650.46,451.65a3.08,3.08,0,1,1,3.08-3.08A3.08,3.08,0,0,1,650.46,451.65Zm0-4.88a1.8,1.8,0,1,0,1.8,1.8A1.8,1.8,0,0,0,650.46,446.77Z" style="fill:#ffc40e"/><path d="M696.46,448.57a2.44,2.44,0,1,1-2.44-2.44A2.44,2.44,0,0,1,696.46,448.57Z" style="fill:#fff"/><path d="M694,451.65a3.08,3.08,0,1,1,3.08-3.08A3.08,3.08,0,0,1,694,451.65Zm0-4.88a1.8,1.8,0,1,0,1.8,1.8A1.81,1.81,0,0,0,694,446.77Z" style="fill:#ffc40e"/><rect x="215.9" y="361.5" width="7.68" height="3.84" style="fill:#b0bfde"/><rect x="215.9" y="371.11" width="32.67" height="3.84" style="fill:#b0bfde"/><rect x="215.9" y="396.08" width="7.68" height="3.84" style="fill:#b0bfde"/><rect x="215.9" y="405.69" width="32.67" height="3.84" style="fill:#b0bfde"/><rect x="215.9" y="430.67" width="7.68" height="3.84" style="fill:#b0bfde"/><rect x="215.9" y="440.28" width="32.67" height="3.84" style="fill:#b0bfde"/><rect x="215.9" y="465.26" width="7.68" height="3.84" style="fill:#b0bfde"/><rect x="215.9" y="474.87" width="32.67" height="3.84" style="fill:#b0bfde"/><rect x="215.9" y="499.84" width="7.68" height="3.84" style="fill:#b0bfde"/><rect x="215.9" y="509.45" width="32.67" height="3.84" style="fill:#b0bfde"/><rect x="215.9" y="534.43" width="7.68" height="3.84" style="fill:#b0bfde"/><rect x="215.9" y="544.04" width="32.67" height="3.84" style="fill:#b0bfde"/><polygon points="536.45 655.04 534.06 655.04 589.7 447.39 592.09 447.39 536.45 655.04" style="fill:#b0bfde"/><polygon points="569.18 655.04 566.78 655.04 622.42 447.39 624.82 447.39 569.18 655.04" style="fill:#b0bfde"/><polygon points="587.44 460.27 588.08 457.87 621.61 457.87 620.97 460.27 587.44 460.27" style="fill:#b0bfde"/><polygon points="582.55 478.53 583.19 476.13 616.72 476.13 616.08 478.53 582.55 478.53" style="fill:#b0bfde"/><polygon points="577.66 496.79 578.3 494.39 611.83 494.39 611.19 496.79 577.66 496.79" style="fill:#b0bfde"/><polygon points="572.77 515.05 573.41 512.65 606.94 512.65 606.29 515.05 572.77 515.05" style="fill:#b0bfde"/><polygon points="567.87 533.3 568.51 530.91 602.04 530.91 601.4 533.3 567.87 533.3" style="fill:#b0bfde"/><polygon points="562.98 551.57 563.62 549.17 597.15 549.17 596.51 551.57 562.98 551.57" style="fill:#b0bfde"/><polygon points="558.09 569.83 558.73 567.43 592.26 567.43 591.62 569.83 558.09 569.83" style="fill:#b0bfde"/><polygon points="553.2 588.09 553.84 585.7 587.36 585.7 586.72 588.09 553.2 588.09" style="fill:#b0bfde"/><polygon points="548.3 606.35 548.94 603.95 582.47 603.95 581.83 606.35 548.3 606.35" style="fill:#b0bfde"/><polygon points="543.41 624.61 544.05 622.21 577.58 622.21 576.94 624.61 543.41 624.61" style="fill:#b0bfde"/><polygon points="538.51 642.87 539.16 640.47 572.69 640.47 572.04 642.87 538.51 642.87" style="fill:#b0bfde"/><path d="M575.66,531.49c.3-.3.17-1.16.17-1.16s-4.61-.89-6.13-.66a7.69,7.69,0,0,0-1.73.65c-.11,0-.32.39-.43.44s-.28-.1-.45,0a7.79,7.79,0,0,0-.75.43c-.58,2.1-.1,3-.1,3s3.73,1.5,4.67.78C573.29,533.14,575,532.15,575.66,531.49Z" style="fill:#161711"/><path d="M586.39,527.62l-.32,3.52,3.4,1s.33-.42.62-.33.42.63.75.73l1.83.52,6.83,2s.36-.65.24-1a3.66,3.66,0,0,0-.91-.75c-1.62-1-6.21-4-6.6-5.93C591.75,525,586.39,527.62,586.39,527.62Z" style="fill:#161711"/><path d="M589.08,414.35l-.55-4.26s2.91-.74,2.94-2.46c.07-3.43-2.52-8-3.65-9.15-3.23-3.26-6.36-9.81-13.45-1.35-2.7,3.22,5.94,11.46,7.07,13.5a9.71,9.71,0,0,1,.81,4.92l2.62.86Z" style="fill:#e9d6b8"/><path d="M570.65,443.15l17.73,5.14s-10.49,2.34-19.25.46S569.79,443.24,570.65,443.15Z" style="fill:#e2c59c"/><path d="M578.12,486.52s7.1,8.89,4.51,16.45c-4.61,13.44-8.33,24.22-9.86,28.72-.6,1.74-1.08,1.38-1.08,1.38l-3.9.12-1.71-1.74,8-31Z" style="fill:#163f59"/><path d="M616.26,413.19l10.93-13.25s-4.19,18.22-10.11,19.7S616.26,413.19,616.26,413.19Z" style="fill:#e9d6b8"/><path d="M581.75,415.19s-3.89-.45-11.31,13.9-5.82,14.25-5.82,14.25l-.8,3.58,5.47,2.58,7.59-12Z" style="fill:#7eb3ff"/><path d="M596.56,461.18s-7.24,29.86-16.95,46.87c-5.19,9.11-4.86-4-4.86-4l8-53.72,18.53-.87S599.38,451.92,596.56,461.18Z" style="fill:#163f59"/><path d="M584.18,459.71s14.9,30.06,15.61,32.2c3.49,10.47,7.93-2.39,8.15-4.94s-.77-15.68-4.27-28.29l-3.51-12.61Z" style="fill:#163f59"/><path d="M599.42,486.06s-2.55,5.18-5.37,11.91c-2.07,4.95-6.3,19.56-8.28,30-.12.64,6.88.61,6.88.61s10.55-27.75,12.92-34S604.78,482.68,599.42,486.06Z" style="fill:#163f59"/><path d="M576.21,419.56l4.53-4.81,1.91-2.57L591,411l1.77,2.57,6.85,2.45s1.92,2.67,1.71,13.41c-.23,11.89,5.69,28.18,3.32,30-15.54,11.66-23.76,2.54-23.76,2.54S573,439.53,576.21,419.56Z" style="fill:#73a9ff"/><path d="M588.11,417.66s-.93,2,4.56,3.56c9.37,2.66,19.18,1.72,21.11,1.59s4.61-.38,6.42-3.86c1.39-2.66,1.87-3.53,1.87-3.53l-5.28-3.72-1.17,1.43-.51.88s-7.1-.39-13.75-.81C585.83,412.21,588.11,417.66,588.11,417.66Z" style="fill:#73a9ff"/><path d="M585.69,400.48s-1.22-.28-1.12.55,1.24,2.35,1.76,2.35,1.38,2.05,1.38,2.05l-.45,2.75L581,410.31s-2.24-.19-2.87-1.54-5.53-10.69-5.53-10.69l3.64-3.83a30.6,30.6,0,0,1,3.41-3c2.26-1.57,3.24-.41,3.4.32s1,.54,2,.19,2.52,0,2.13.67c-.16.27,1.06.54.91,1.42-.21,1.25-2,2.24-1.58,4C586.64,398.68,587.19,401.35,585.69,400.48Z" style="fill:#194866"/><path d="M626.51,403.58s-2.64-1.25-2.83-2.06-.69-3.83-.69-3.83l0-.78s.82-.55,1.14,1.48.69.95.69.95l.42-1.95.7-2.36.18-1.08a2,2,0,0,1,.19-.77c.4-.4.55.06.55.06l-.33,4.27,1.38-3.87s.26-.47.53-.43.22.2.22.2l-.53,4.73.93-1.92s.26-.45.53-.43l.38,0-2.58,7.87Z" style="fill:#e9d6b8"/><polygon points="836.27 112.74 853.86 294.84 871.46 632.08 836.27 632.08 801.09 632.08 818.68 294.84 836.27 112.74" style="fill:#73a9ff"/><polygon points="836.27 112.74 848.52 294.84 860.78 632.08 836.27 632.08 811.75 632.08 824.01 294.84 836.27 112.74" style="fill:#8dcfff"/><polygon points="836.27 112.74 839.9 294.84 843.52 632.08 836.27 632.08 829 632.08 832.63 294.84 836.27 112.74" style="fill:#73a9ff"/><path d="M845,616.84a43.5,43.5,0,1,1-43.49-43.48A43.5,43.5,0,0,1,845,616.84Z" style="fill:#8dcfff"/><path d="M1039.87,664.27a40,40,0,1,0-71.88,0Z" style="fill:#8dcfff"/><path d="M984.1,624.51a46.44,46.44,0,0,0,.33-5.17A43.42,43.42,0,0,0,922,580.24a54.46,54.46,0,0,0-106,6.45,58.24,58.24,0,0,0-34.84,20.24,29.38,29.38,0,1,0-9.67,57.32v0H981.79l.06-.15c.55,0,1.07.15,1.63.15a19.88,19.88,0,0,0,.62-39.76Z" style="fill:#73a9ff"/><path d="M812.89,634.87a42,42,0,0,0-22.35,6.43A64.22,64.22,0,0,0,666,619.7,64.05,64.05,0,0,0,584.15,657a34.49,34.49,0,0,0,20.42,7.21,0,0,0,0,0,0,0h248c0-.06,0-.13.08-.19l.43,0A42.26,42.26,0,0,0,812.89,634.87Z" style="fill:#8dcfff"/><g style="isolation:isolate"><polygon points="792.03 266.61 804.9 292.12 804.06 292.67 791.2 267.15 792.03 266.61" style="fill:#c2e7ff"/><polygon points="832.2 238.54 845.05 264.06 848.21 270.66 835.36 245.14 832.2 238.54" style="fill:#92badf"/><polygon points="770.17 280.66 783.02 306.18 776.94 301.2 764.08 275.68 770.17 280.66" style="fill:#92bade"/><polygon points="881.42 221.96 894.28 247.47 891.63 256.49 878.77 230.97 881.42 221.96" style="fill:#a5cdf1"/><polygon points="737.17 308.11 750.03 333.63 739 332.1 726.14 306.59 737.17 308.11" style="fill:#a0c9ed"/><polygon points="925.2 215.48 938.06 241 929.94 251.33 917.08 225.81 925.2 215.48" style="fill:#b5ddff"/><polygon points="716.12 335.26 728.97 360.77 714.32 362.89 701.46 337.38 716.12 335.26" style="fill:#b3dbff"/><polygon points="958.27 219.88 971.13 245.4 958.48 255.81 945.62 230.3 958.27 219.88" style="fill:#bfe5ff"/><polygon points="709.53 358.85 722.39 384.37 705.91 389.88 693.05 364.36 709.53 358.85" style="fill:#bae0ff"/><g style="isolation:isolate"><g style="clip-path:url(#g)"><path d="M908.73,246.38a69.68,69.68,0,0,0-10.35-.76c-3.09,0-6.35.14-9.74.45-3.12.28-6.35.71-9.68,1.26s-6.61,1.22-10,2-7.14,1.78-10.82,2.85q-6,1.77-12.23,4c-5.13,1.84-10.34,3.91-15.59,6.21-6.82,3-13.71,6.36-20.55,10.1a236.18,236.18,0,0,0-32.67,21.38q-6.13,4.85-11.36,9.74c-.69.64-1.37,1.29-2,1.94-2,2-3.94,3.95-5.71,5.9-2.15,2.36-4.12,4.71-5.88,7a78,78,0,0,0-4.59,6.64,59.06,59.06,0,0,0-3.46,6.5,39.31,39.31,0,0,0-2.33,6.63,25.26,25.26,0,0,0-.79,7.27,18,18,0,0,0,1.84,7.25l12.86,25.5a17.57,17.57,0,0,1-1.84-7.23,25.25,25.25,0,0,1,.79-7.28,39.22,39.22,0,0,1,2.33-6.62,56.69,56.69,0,0,1,3.47-6.5,79.34,79.34,0,0,1,4.57-6.65c1.77-2.31,3.74-4.66,5.89-7,1.78-2,3.68-3.93,5.71-5.9l2-1.95c3.47-3.25,7.27-6.51,11.36-9.73A235.58,235.58,0,0,1,822.59,298c6.84-3.75,13.73-7.12,20.55-10.1,5.25-2.31,10.46-4.37,15.6-6.22,4.13-1.48,8.21-2.81,12.21-4,3.69-1.08,7.29-2,10.83-2.85s6.78-1.47,10.05-2,6.55-1,9.67-1.26a97.14,97.14,0,0,1,9.74-.45,69.73,69.73,0,0,1,10.35.75c8.58,1.32,15.21,4.36,19.12,9.25l-12.86-25.51C923.94,250.74,917.31,247.69,908.73,246.38Z" style="fill:#96bee2"/></g></g><g style="isolation:isolate"><g style="clip-path:url(#h)"><g style="isolation:isolate"><path d="M929.77,258.61l12.86,25.52a17,17,0,0,0-1.92-3l-12.86-25.51a16.42,16.42,0,0,1,1.92,3" style="fill:#96bee2"/></g></g></g><polygon points="976.6 234.63 989.45 260.15 973.84 269.38 960.98 243.86 976.6 234.63" style="fill:#c2e7ff"/><g style="isolation:isolate"><g style="clip-path:url(#i)"><g style="isolation:isolate"><path d="M961,243.86l12.86,25.52a25,25,0,0,1,2,8.67L963,252.54a24.91,24.91,0,0,0-2-8.68" style="fill:#96bee2"/></g></g></g><polygon points="701.92 384.27 714.77 409.78 708.77 402.27 695.91 376.76 701.92 384.27" style="fill:#91b9de"/><rect x="707.36" y="378.61" width="18.33" height="28.57" transform="translate(-100.16 364.5) rotate(-26.75)" style="fill:#c1e6ff"/><g style="isolation:isolate"><g style="clip-path:url(#j)"><g style="isolation:isolate"><path d="M726.89,381.1l12.86,25.51a34.46,34.46,0,0,1-8.61-5.09L718.28,376a34.76,34.76,0,0,0,8.61,5.09" style="fill:#96bee2"/></g></g></g><polygon points="978.01 257.95 990.87 283.46 974.16 290.41 961.29 264.89 978.01 257.95" style="fill:#bee4ff"/><polygon points="979.47 247.02 992.32 272.54 990.87 283.46 978.01 257.95 979.47 247.02" style="fill:#9fc7eb"/><g style="isolation:isolate"><g style="clip-path:url(#k)"><g style="isolation:isolate"><path d="M961.29,264.89l12.87,25.52a54.83,54.83,0,0,1-2.35,6.1L959,271a52.92,52.92,0,0,0,2.34-6.11" style="fill:#a0c8ec"/><path d="M959,271l12.86,25.51q-1.12,2.52-2.55,5.13L956.4,276.12c1-1.73,1.8-3.45,2.55-5.12" style="fill:#a4cdf1"/></g></g></g><polygon points="741.21 384.72 754.08 410.23 739.84 420.2 726.98 394.69 741.21 384.72" style="fill:#c1e6ff"/><polygon points="726.98 394.69 739.84 420.2 727.11 417.02 714.25 391.5 726.98 394.69" style="fill:#9ac3e8"/><g style="isolation:isolate"><g style="clip-path:url(#l)"><g style="isolation:isolate"><path d="M755.43,385.57l12.86,25.51h-1.22l-12.86-25.52h1.22" style="fill:#a0c8ec"/><path d="M754.21,385.57l12.86,25.52a99.21,99.21,0,0,1-13-.86l-12.87-25.51a99.37,99.37,0,0,0,13,.85" style="fill:#9ac3e7"/></g></g></g><polygon points="962.33 287.03 975.19 312.55 959.38 316.36 946.52 290.84 962.33 287.03" style="fill:#b5dcff"/><polygon points="971.05 274 983.91 299.51 975.19 312.55 962.33 287.03 971.05 274" style="fill:#b3dcff"/><g style="isolation:isolate"><g style="clip-path:url(#m)"><g style="isolation:isolate"><path d="M946.52,290.84l12.86,25.52c-1.69,2.11-3.65,4.39-5.79,6.74l-12.86-25.51c2.15-2.36,4.09-4.64,5.79-6.75" style="fill:#aed7fb"/><path d="M940.73,297.59l12.86,25.51c-1.69,1.86-3.5,3.77-5.39,5.69l-12.87-25.52c1.9-1.91,3.71-3.82,5.4-5.68" style="fill:#b3dbff"/></g></g></g><polygon points="775.65 383.87 788.5 409.38 778.09 419.88 765.24 394.37 775.65 383.87" style="fill:#bae0ff"/><polygon points="765.24 394.37 778.09 419.88 760.16 421.41 747.3 395.9 765.24 394.37" style="fill:#afd7fb"/><g style="isolation:isolate"><g style="clip-path:url(#n)"><g style="isolation:isolate"><path d="M793.74,380.41l12.85,25.52-.09,0-12.86-25.53.1,0" style="fill:#aed7fb"/><path d="M793.64,380.43,806.5,406c-4.48,1-9.35,2-14.17,2.82l-12.85-25.51c4.81-.81,9.68-1.79,14.16-2.84" style="fill:#a9d2f6"/><path d="M779.48,383.27l12.85,25.51c-1.28.22-2.56.42-3.83.6l-12.85-25.51,3.83-.6" style="fill:#a4cdf1"/></g></g></g><g style="isolation:isolate"><g style="clip-path:url(#o)"><g style="isolation:isolate"><path d="M918.47,318.58l12.85,25.52c-.94.76-1.91,1.54-2.91,2.32l-12.86-25.51c1-.79,2-1.56,2.92-2.33" style="fill:#b4dcff"/><path d="M915.55,320.91l12.86,25.51c-4,3.17-8.49,6.51-13.2,9.8l-12.86-25.5c4.71-3.3,9.19-6.65,13.2-9.81" style="fill:#b6ddff"/></g></g></g><polygon points="946.38 304.79 959.24 330.31 944.3 343.88 931.44 318.37 946.38 304.79" style="fill:#bde3ff"/><polygon points="931.44 318.37 944.3 343.88 931.32 344.1 918.47 318.58 931.44 318.37" style="fill:#a9d2f6"/><g style="isolation:isolate"><g style="clip-path:url(#p)"><g style="isolation:isolate"><path d="M837.16,366.23,850,391.75c-4.34,1.78-8.94,3.55-13.58,5.21l-12.86-25.51c4.64-1.66,9.24-3.43,13.58-5.22" style="fill:#b4dcff"/><path d="M823.58,371.45,836.44,397c-2.07.74-4.15,1.46-6.22,2.16L817.36,373.6c2.06-.69,4.14-1.41,6.22-2.15" style="fill:#b3dbff"/></g></g></g><g style="isolation:isolate"><g style="clip-path:url(#q)"><g style="isolation:isolate"><path d="M881.3,344.24l12.86,25.51c-3.2,1.89-6.45,3.75-9.79,5.58s-6.76,3.61-10.13,5.31l-12.87-25.52q5.07-2.55,10.15-5.3c3.33-1.83,6.58-3.69,9.78-5.58" style="fill:#b6ddff"/></g></g></g><polygon points="812.05 383.36 824.91 408.88 803.94 414.94 791.09 389.43 812.05 383.36" style="fill:#b7ddff"/><polygon points="817.36 373.6 830.22 399.12 824.91 408.88 812.05 383.36 817.36 373.6" style="fill:#b0d8fc"/><polygon points="889.07 348.16 901.93 373.68 893.33 370.28 880.47 344.77 889.07 348.16" style="fill:#96bfe3"/><polygon points="908.44 335.7 921.29 361.21 901.93 373.68 889.07 348.16 908.44 335.7" style="fill:#c2e7ff"/><path d="M917.08,225.81a106.47,106.47,0,0,1,14.22.85l14.24-10,12.73,3.18L945.62,230.3a34.58,34.58,0,0,1,8.61,5.07l16.37-8.26,6,7.52L961,243.86a24.91,24.91,0,0,1,2,8.68L979.47,247,978,258l-16.72,6.93a63.21,63.21,0,0,1-4.89,11.23L971.05,274l-8.72,13-15.81,3.81a161.5,161.5,0,0,1-11.19,12.43l11,1.52-14.94,13.58-13,.21c-4.71,3.82-10.23,8-16.12,12.14l6.09,5-19.37,12.46-8.6-3.39.83-.53c-3.2,1.89-6.45,3.75-9.78,5.58s-6.77,3.6-10.15,5.3l.41,7.87-21.47,9.85-3.15-6.61c-6.27,2.58-13.09,5.13-19.8,7.37l-5.31,9.76-21,6.07,2.66-9c-5.7,1.32-12,2.57-18.09,3.46l-10.41,10.5L747.3,395.9l8.13-10.33a101.6,101.6,0,0,1-14.22-.85l-14.23,10-12.73-3.19,12.64-10.4a34.76,34.76,0,0,1-8.61-5.09l-16.36,8.26-6-7.51,15.62-9.24a25.31,25.31,0,0,1-2-8.67l-16.48,5.51,1.44-10.93,16.72-6.93a64.64,64.64,0,0,1,4.91-11.24l-14.66,2.12,8.72-13,15.8-3.81c3.06-3.78,6.9-8.1,11.19-12.43l-11-1.52L741.08,293l13-.23c4.69-3.81,10.23-8,16.12-12.14l-6.09-5,19.37-12.46,8.58,3.39-.83.54c3.21-1.89,6.46-3.75,9.8-5.58s6.75-3.61,10.13-5.31l-.39-7.87,21.46-9.85,3.16,6.6c6.28-2.57,13.09-5.11,19.78-7.35l5.33-9.78,20.95-6-2.65,9c5.71-1.33,12-2.57,18.09-3.44L907.29,217l17.91-1.53Zm10.77,29.82c-14.66-18.33-67.54-10.78-118.12,16.87-18.64,10.19-34.37,21.69-46.07,33.06-20,19.49-28.25,38.63-19,50.2,14.65,18.33,67.54,10.77,118.12-16.87,18.64-10.2,34.37-21.69,46.07-33.07,20-19.49,28.25-38.62,19-50.19" style="fill:#e6ffff"/><polygon points="861.77 362.99 874.63 388.5 853.17 398.36 840.31 372.84 861.77 362.99" style="fill:#bfe5ff"/><polygon points="861.37 355.13 874.24 380.64 874.63 388.5 861.77 362.99 861.37 355.13" style="fill:#99c1e6"/></g><g style="isolation:isolate"><polygon points="991.62 292.62 998.87 311.5 1001.22 320.53 993.96 301.65 991.62 292.62" style="fill:#97c1e4"/><polygon points="926.09 335.7 933.35 354.6 919.31 351.9 912.05 333.01 926.09 335.7" style="fill:#a6d0f3"/><polygon points="1048.25 289.55 1055.52 308.43 1041.87 320.38 1034.61 301.5 1048.25 289.55" style="fill:#bce2ff"/><g style="isolation:isolate"><g style="clip-path:url(#r)"><g style="isolation:isolate"><path d="M1006.36,324.34l7.26,18.88c-.71-1.85-2.63-3.15-5.41-3.84L1001,320.49c2.77.7,4.69,2,5.4,3.85" style="fill:#9ac3e6"/><path d="M1001,320.49l7.25,18.89a18.1,18.1,0,0,0-2.77-.48L998.18,320a19.81,19.81,0,0,1,2.78.48" style="fill:#9fc8eb"/><path d="M998.18,320l7.26,18.89c-.83-.08-1.7-.12-2.62-.13l-7.26-18.88c.92,0,1.79.05,2.62.12" style="fill:#a4cdf0"/><path d="M995.56,319.89l7.26,18.88q-1.25,0-2.61.09L992.94,320c.91-.06,1.79-.09,2.62-.09" style="fill:#a8d2f5"/><path d="M992.94,320l7.27,18.88c-.88.07-1.78.15-2.72.28l-7.26-18.89c.94-.12,1.84-.22,2.71-.27" style="fill:#aed7fa"/><path d="M990.23,320.25l7.26,18.89c-1,.12-1.94.29-3,.48l-7.25-18.88c1-.2,2-.36,2.94-.49" style="fill:#b2dcff"/><path d="M987.29,320.74l7.25,18.88c-1.1.21-2.22.46-3.36.76l-7.26-18.89c1.14-.29,2.27-.54,3.37-.75" style="fill:#b4dbff"/><path d="M983.92,321.49l7.26,18.89c-1.37.35-2.76.75-4.18,1.21l-.28.09-7.27-18.88.28-.1c1.42-.46,2.82-.86,4.19-1.21" style="fill:#b5deff"/><path d="M979.45,322.8l7.27,18.88a65.27,65.27,0,0,0-14.4,6.74l-7.25-18.88a65.1,65.1,0,0,1,14.38-6.74" style="fill:#b9e0ff"/><path d="M965.07,329.54l7.25,18.88c-1.2.77-2.32,1.56-3.36,2.36l-7.26-18.89c1-.8,2.17-1.59,3.37-2.35" style="fill:#b5deff"/><path d="M961.7,331.89,969,350.78c-.13.09-.25.19-.37.29q-1,.8-1.92,1.62l-7.26-18.89c.6-.54,1.23-1.09,1.92-1.62l.37-.29" style="fill:#b4dbff"/><path d="M959.41,333.8l7.26,18.89c-.63.57-1.22,1.14-1.75,1.71l-7.26-18.87c.53-.58,1.12-1.16,1.75-1.73" style="fill:#b2dcff"/><path d="M957.66,335.53l7.26,18.87c-.5.56-.95,1.1-1.36,1.65l-7.27-18.89c.41-.54.87-1.09,1.37-1.63" style="fill:#aed7fa"/><path d="M956.29,337.16l7.27,18.89a16.38,16.38,0,0,0-1.08,1.63l-7.26-18.89a16.23,16.23,0,0,1,1.07-1.63" style="fill:#a8d2f5"/><path d="M955.22,338.79l7.26,18.89a10.1,10.1,0,0,0-.76,1.7l-7.26-18.89a10.47,10.47,0,0,1,.76-1.7" style="fill:#a4cdf0"/><path d="M954.46,340.49l7.26,18.89a6.54,6.54,0,0,0-.38,1.94l-7.26-18.89a7,7,0,0,1,.38-1.94" style="fill:#9fc8eb"/><path d="M954.08,342.43l7.26,18.89a2.58,2.58,0,0,0,0,.48,4.73,4.73,0,0,0,.3,1.43l-7.26-18.88a4.5,4.5,0,0,1-.3-1.43,4,4,0,0,1,0-.49" style="fill:#9ac3e6"/></g></g></g><polygon points="917.32 360.38 924.58 379.25 903.46 385.35 896.2 366.46 917.32 360.38" style="fill:#c1e6ff"/><polygon points="1065.14 312.72 1072.4 331.6 1050.73 339.49 1043.46 320.6 1065.14 312.72" style="fill:#c4e9ff"/><polygon points="1064.56 302.23 1071.82 321.12 1072.4 331.6 1065.14 312.72 1064.56 302.23" style="fill:#9cc3e8"/><g style="isolation:isolate"><g style="clip-path:url(#s)"><g style="isolation:isolate"><path d="M926.16,367.18l7.26,18.89c-4.15-1.58-7.18-3.86-8.84-6.82l-7.26-18.87c1.66,2.94,4.69,5.22,8.84,6.8" style="fill:#9ac3e6"/></g></g></g><g style="isolation:isolate"><g style="clip-path:url(#t)"><g style="isolation:isolate"><path d="M1043.46,320.6l7.27,18.88a27.49,27.49,0,0,1-1.41,2.9l-7.26-18.89a27.23,27.23,0,0,0,1.4-2.89" style="fill:#a4cdf0"/><path d="M1042.06,323.49l7.26,18.89a37,37,0,0,1-2.61,4l-7.26-18.89a34.7,34.7,0,0,0,2.61-4" style="fill:#a8d2f5"/><path d="M1039.45,327.47l7.26,18.89a51.7,51.7,0,0,1-3.38,4l-7.26-18.89a49.91,49.91,0,0,0,3.38-4" style="fill:#aed7fa"/><path d="M1036.07,331.51l7.26,18.89c-.45.49-.92,1-1.4,1.47L1034.68,333c.47-.5.94-1,1.39-1.48" style="fill:#b2dcff"/></g></g></g><polygon points="945.47 369.79 952.73 388.67 936.95 399.98 929.69 381.09 945.47 369.79" style="fill:#c1e8ff"/><polygon points="929.69 381.09 936.95 399.98 919.75 398.03 912.49 379.15 929.69 381.09" style="fill:#acd5f8"/><g style="isolation:isolate"><g style="clip-path:url(#u)"><g style="isolation:isolate"><path d="M966.79,367.05l7.27,18.88c-1.14.25-2.27.48-3.38.7l-7.26-18.89c1.12-.21,2.24-.44,3.37-.69" style="fill:#b4dbff"/><path d="M963.42,367.74l7.26,18.89c-2.48.48-4.9.86-7.25,1.18l-7.26-18.88q3.52-.46,7.25-1.19" style="fill:#b2dcff"/><path d="M956.17,368.93l7.26,18.88c-2.28.31-4.49.53-6.63.68l-7.26-18.89c2.14-.14,4.36-.37,6.63-.67" style="fill:#aed7fa"/><path d="M949.54,369.6l7.26,18.89c-1.4.09-2.75.16-4.07.18l-7.26-18.88c1.32,0,2.68-.09,4.07-.19" style="fill:#a8d2f5"/></g></g></g><g style="isolation:isolate"><g style="clip-path:url(#v)"><g style="isolation:isolate"><path d="M1015.4,347.75l7.26,18.88a155.31,155.31,0,0,1-21.32,10.7l-7.26-18.89a154.17,154.17,0,0,0,21.32-10.69" style="fill:#b9e0ff"/></g></g></g><polygon points="1048.71 335.68 1055.97 354.56 1039.63 367.45 1032.37 348.56 1048.71 335.68" style="fill:#bfe5ff"/><polygon points="1032.37 348.56 1039.63 367.45 1022.66 366.63 1015.4 347.75 1032.37 348.56" style="fill:#b0d8fd"/><polygon points="992.85 368.35 1000.12 387.23 976.41 394.95 969.15 376.06 992.85 368.35" style="fill:#c2e9ff"/><polygon points="994.08 358.44 1001.34 377.33 1000.12 387.23 992.85 368.35 994.08 358.44" style="fill:#a0c8ec"/><path d="M1048.25,289.55l-13.64,11.95c4.14,1.57,7.16,3.87,8.83,6.82l21.12-6.09.58,10.49-21.68,7.88c-1.63,4-4.66,8.19-8.78,12.39l14,2.69-16.34,12.88-17-.81a154.17,154.17,0,0,1-21.32,10.69l-1.23,9.91-23.7,7.71-2.36-9a114.51,114.51,0,0,1-21.32,2.74l-15.78,11.3-17.2-1.94,13.67-12c-4.15-1.58-7.18-3.86-8.84-6.8l-21.12,6.08-.58-10.5,21.67-7.87c1.64-4,4.68-8.19,8.8-12.38l-14-2.7,16.34-12.88,17,.79a158.74,158.74,0,0,1,21.32-10.68l1.22-9.89,23.71-7.73,2.34,9a114.75,114.75,0,0,1,21.33-2.76l15.79-11.3Zm-41.59,36.22c-.36-6.42-12.41-7.79-26.93-3.07a61.28,61.28,0,0,0-18.4,9.48c-4.64,3.65-7.41,7.52-7.24,10.74.35,6.43,12.43,7.79,26.94,3.06a60.64,60.64,0,0,0,18.39-9.47c4.65-3.65,7.42-7.52,7.24-10.74" style="fill:#eaffff"/></g><g style="opacity:0.4;mix-blend-mode:multiply"><path d="M884.25,420.52c133.87-9.14,245.91,35.18,250.27,99S1033.89,642.45,900,651.59s-245.91-35.17-250.27-99S750.38,429.67,884.25,420.52Z" style="fill:#fff"/><path d="M884.16,421c133.39-9.11,245,35,249.35,98.59S1033.26,642,899.87,651.12s-245-35-249.36-98.59S750.76,430.07,884.16,421Zm7.9,115.83c.9-.07,1.61-.45,1.58-.86s-.78-.7-1.68-.63-1.6.44-1.57.85S891.17,536.85,892.06,536.79Z" style="fill:#fefefe"/><path d="M884.06,421.4c132.92-9.07,244.12,34.88,248.45,98.19s-99.88,122-232.79,131S655.6,615.77,651.27,552.46,751.14,430.48,884.06,421.4ZM892,537.51c1.79-.12,3.2-.89,3.15-1.71s-1.56-1.39-3.35-1.27-3.21.89-3.15,1.72S890.2,537.64,892,537.51Z" style="fill:#fdfdfe"/><path d="M884,421.84c132.44-9,243.22,34.73,247.53,97.79S1032,641.13,899.56,650.17,656.34,615.45,652,552.38,751.52,430.88,884,421.84Zm7.95,116.4c2.68-.18,4.8-1.33,4.72-2.57s-2.34-2.08-5-1.9-4.81,1.34-4.72,2.57S889.23,538.43,891.92,538.24Z" style="fill:#fcfdfd"/><path d="M883.87,422.28c132-9,242.33,34.58,246.62,97.4s-99.12,121-231.09,130-242.32-34.58-246.62-97.4S751.9,431.29,883.87,422.28Zm8,116.69c3.59-.25,6.41-1.78,6.3-3.43s-3.12-2.78-6.71-2.53-6.4,1.78-6.29,3.42S888.26,539.21,891.84,539Z" style="fill:#fbfcfd"/><path d="M883.78,422.72c131.49-9,241.43,34.43,245.71,97s-98.76,120.52-230.24,129.5-241.44-34.42-245.71-97S752.29,431.7,883.78,422.72Zm8,117c4.48-.31,8-2.23,7.87-4.28s-3.9-3.48-8.38-3.18-8,2.23-7.87,4.29S887.29,540,891.77,539.7Z" style="fill:#fafbfc"/><path d="M883.69,423.16c131-9,240.54,34.28,244.79,96.6s-98.38,120-229.39,129-240.54-34.27-244.8-96.61S752.67,432.1,883.69,423.16Zm8,117.27c5.38-.37,9.62-2.68,9.45-5.14s-4.68-4.18-10.06-3.81-9.61,2.67-9.44,5.14S886.32,540.79,891.69,540.43Z" style="fill:#f9fafb"/><path d="M883.59,423.6c130.54-8.92,239.65,34.12,243.89,96.2s-98,119.56-228.55,128.48-239.64-34.13-243.88-96.21S753.05,432.51,883.59,423.6Zm8,117.55c6.27-.42,11.21-3.11,11-6s-5.46-4.87-11.73-4.44-11.22,3.12-11,6S885.35,541.58,891.62,541.15Z" style="fill:#f8f9fb"/><path d="M883.5,424c130.07-8.88,238.75,34,243,95.82S1028.84,638.92,898.78,647.8s-238.75-34-243-95.81S753.43,432.92,883.5,424Zm8,117.85c7.17-.49,12.82-3.56,12.6-6.85s-6.24-5.56-13.41-5.07-12.82,3.56-12.59,6.85S884.38,542.37,891.54,541.88Z" style="fill:#f7f9fa"/><path d="M883.4,424.47c129.6-8.85,237.86,33.83,242.06,95.42s-97.25,118.59-226.84,127.44S660.77,613.5,656.56,551.91,753.81,433.32,883.4,424.47Zm8.07,118.14c8.06-.55,14.42-4,14.17-7.71s-7-6.26-15.09-5.71-14.41,4-14.16,7.71S883.41,543.16,891.47,542.61Z" style="fill:#f6f8f9"/><path d="M883.31,424.91c129.12-8.81,237,33.68,241.15,95s-96.88,118.11-226,126.92-237-33.67-241.14-95S754.19,433.73,883.31,424.91Zm8.09,118.43c9-.61,16-4.46,15.74-8.57s-7.8-6.95-16.76-6.34-16,4.45-15.74,8.56S882.44,544,891.4,543.34Z" style="fill:#f5f7f9"/><path d="M883.21,425.35c128.65-8.78,236.07,33.53,240.24,94.63S1027,637.6,898.31,646.38s-236.06-33.53-240.24-94.62S754.57,434.14,883.21,425.35Zm8.11,118.71c9.86-.67,17.62-4.89,17.31-9.41s-8.57-7.66-18.43-7-17.62,4.9-17.31,9.42S881.47,544.74,891.32,544.06Z" style="fill:#f4f6f8"/><path d="M883.12,425.79c128.17-8.75,235.17,33.38,239.32,94.23s-96.12,117.13-224.29,125.89S663,612.53,658.83,551.68,755,434.54,883.12,425.79Zm8.13,119c10.75-.73,19.22-5.34,18.88-10.27s-9.35-8.35-20.1-7.62-19.23,5.35-18.89,10.28S880.5,545.53,891.25,544.79Z" style="fill:#f3f5f8"/><path d="M883,426.23c127.69-8.72,234.27,33.23,238.41,93.83S1025.69,636.71,898,645.43,663.73,612.21,659.59,551.6,755.33,435,883,426.23Zm8.14,119.29c11.65-.79,20.83-5.79,20.46-11.13s-10.13-9-21.78-8.25-20.83,5.79-20.46,11.13S879.53,546.32,891.17,545.52Z" style="fill:#f2f4f7"/><path d="M882.93,426.67c127.22-8.69,233.38,33.08,237.5,93.43S1025.05,636.27,897.84,645s-233.37-33.08-237.5-93.44S755.71,435.36,882.93,426.67Zm8.17,119.58c12.54-.86,22.43-6.24,22-12s-10.91-9.74-23.46-8.88-22.42,6.23-22,12S878.56,547.1,891.1,546.25Z" style="fill:#f1f4f6"/><path d="M882.84,427.11c126.74-8.66,232.48,32.93,236.58,93s-95,115.68-221.74,124.34-232.47-32.93-236.58-93S756.09,435.76,882.84,427.11ZM891,547c13.44-.92,24-6.68,23.61-12.85s-11.69-10.43-25.13-9.51-24,6.68-23.61,12.84S877.59,547.89,891,547Z" style="fill:#f0f3f6"/><path d="M882.74,427.55c126.28-8.63,231.59,32.78,235.68,92.64S1023.79,635.39,897.53,644,666,611.23,661.85,551.37,756.47,436.17,882.74,427.55ZM891,547.7c14.33-1,25.63-7.12,25.18-13.7s-12.47-11.13-26.81-10.15-25.63,7.13-25.18,13.71S876.62,548.68,891,547.7Z" style="fill:#eff2f5"/><path d="M882.65,428c125.8-8.59,230.69,32.64,234.76,92.25s-94.25,114.72-220,123.31-230.69-32.63-234.76-92.25S756.85,436.57,882.65,428Zm8.23,120.45c15.23-1,27.23-7.57,26.75-14.55s-13.25-11.83-28.48-10.79-27.24,7.57-26.76,14.56S875.65,549.47,890.88,548.43Z" style="fill:#eef1f4"/><path d="M882.56,428.42c125.32-8.55,229.79,32.49,233.85,91.85s-93.88,114.24-219.2,122.79-229.79-32.48-233.84-91.85S757.24,437,882.56,428.42Zm8.24,120.74c16.13-1.1,28.84-8,28.33-15.41s-14-12.52-30.16-11.42-28.84,8-28.33,15.41S874.68,550.26,890.8,549.16Z" style="fill:#edf0f4"/><path d="M882.46,428.86c124.85-8.52,228.9,32.34,232.94,91.46s-93.5,113.75-218.34,122.27-228.9-32.33-232.94-91.45S757.62,437.39,882.46,428.86Zm8.27,121c17-1.16,30.44-8.46,29.9-16.27s-14.81-13.22-31.84-12-30.43,8.46-29.9,16.27S873.7,551.05,890.73,549.89Z" style="fill:#ecf0f3"/><path d="M882.37,429.3c124.37-8.49,228,32.19,232,91.06S1021.27,633.62,896.9,642.12s-228-32.18-232-91.06S758,437.79,882.37,429.3Zm8.28,121.32c17.92-1.23,32-8.91,31.48-17.13s-15.59-13.91-33.51-12.69-32,8.91-31.48,17.13S872.73,551.84,890.65,550.62Z" style="fill:#ebeff3"/><path d="M882.27,429.74c123.9-8.46,227.11,32,231.12,90.66s-92.75,112.78-216.65,121.24-227.1-32-231.11-90.66S758.38,438.2,882.27,429.74Zm8.31,121.6c18.81-1.28,33.64-9.35,33-18s-16.37-14.6-35.19-13.32-33.64,9.35-33.05,18S871.76,552.63,890.58,551.34Z" style="fill:#eaeef2"/><path d="M882.18,430.18c123.42-8.43,226.21,31.89,230.2,90.27S1020,632.74,896.59,641.17s-226.21-31.88-230.2-90.27S758.76,438.61,882.18,430.18Zm8.33,121.89c19.7-1.34,35.24-9.79,34.62-18.84s-17.15-15.3-36.86-14-35.25,9.79-34.63,18.84S870.79,553.42,890.51,552.07Z" style="fill:#e9edf1"/><path d="M882.09,430.62c122.94-8.4,225.31,31.73,229.28,89.87s-92,111.81-214.94,120.21S671.12,609,667.15,550.83,759.14,439,882.09,430.62Zm8.34,122.18c20.61-1.41,36.85-10.24,36.2-19.69s-17.93-16-38.54-14.6-36.85,10.25-36.2,19.7S869.82,554.21,890.43,552.8Z" style="fill:#e8ecf1"/><path d="M882,431.06c122.47-8.37,224.43,31.58,228.38,89.47s-91.63,111.33-214.09,119.69S671.86,608.64,667.9,550.75,759.52,439.42,882,431.06Zm8.37,122.47c21.5-1.47,38.44-10.69,37.77-20.55s-18.71-16.7-40.22-15.23-38.44,10.69-37.77,20.55S868.85,555,890.36,553.53Z" style="fill:#e7ecf0"/><path d="M881.9,431.5c122-8.34,223.53,31.43,227.46,89.07s-91.25,110.85-213.24,119.18S672.6,608.31,668.66,550.67,759.9,439.83,881.9,431.5Zm8.38,122.76c22.4-1.53,40.05-11.14,39.35-21.41S910.14,515.46,887.74,517s-40,11.13-39.35,21.41S867.88,555.78,890.28,554.26Z" style="fill:#e6ebef"/><path d="M881.8,431.93c121.53-8.29,222.64,31.29,226.55,88.69S1017.48,631,896,639.28,673.34,608,669.41,550.59,760.28,440.23,881.8,431.93ZM890.21,555c23.29-1.59,41.65-11.57,40.92-22.26s-20.27-18.08-43.57-16.49-41.65,11.57-40.92,22.26S866.91,556.57,890.21,555Z" style="fill:#e5eaef"/><path d="M881.71,432.37c121-8.26,221.74,31.14,225.64,88.29s-90.5,109.88-211.54,118.14-221.73-31.13-225.64-88.28S760.66,440.64,881.71,432.37Zm8.42,123.34c24.19-1.65,43.26-12,42.5-23.12s-21-18.78-45.24-17.13-43.26,12-42.5,23.12S865.94,557.36,890.13,555.71Z" style="fill:#e4e9ee"/><path d="M881.62,432.81c120.57-8.23,220.84,31,224.72,87.89s-90.12,109.39-210.69,117.63-220.83-31-224.72-87.89S761,441.05,881.62,432.81Zm8.44,123.63c25.08-1.71,44.85-12.47,44.07-24S912.29,513,887.21,514.7s-44.86,12.47-44.07,24S865,558.15,890.06,556.44Z" style="fill:#e3e8ee"/><path d="M881.52,433.25c120.1-8.2,220,30.84,223.82,87.49s-89.75,108.91-209.85,117.11S675.56,607,671.68,550.36,761.42,441.45,881.52,433.25ZM890,557.17c26-1.78,46.45-12.92,45.64-24.83S913,512.16,887,513.94s-46.45,12.91-45.64,24.83S864,558.94,890,557.17Z" style="fill:#e2e7ed"/><path d="M881.43,433.69c119.62-8.17,219.05,30.69,222.9,87.1s-89.37,108.42-209,116.59-219.05-30.69-222.9-87.1S761.8,441.86,881.43,433.69Zm8.48,124.21c26.88-1.84,48.06-13.36,47.22-25.69s-23.4-20.87-50.27-19-48.06,13.35-47.22,25.69S863,559.73,889.91,557.9Z" style="fill:#e1e7ec"/><path d="M881.33,434.13c119.15-8.14,218.16,30.54,222,86.7s-89,107.94-208.14,116.08S677,606.37,673.19,550.2,762.19,442.26,881.33,434.13Zm8.51,124.49c27.77-1.89,49.66-13.8,48.79-26.54s-24.18-21.56-52-19.67S837,526.22,837.89,539,862.06,560.52,889.84,558.62Z" style="fill:#e0e6ec"/><path d="M881.24,434.57c118.67-8.11,217.26,30.39,221.08,86.3S1013.7,628.33,895,636.43,677.77,606.05,674,550.13,762.57,442.67,881.24,434.57Zm8.52,124.78c28.67-2,51.27-14.25,50.37-27.4s-25-22.26-53.62-20.3-51.27,14.25-50.37,27.4S861.09,561.31,889.76,559.35Z" style="fill:#dfe5eb"/><path d="M881.15,435c118.19-8.08,216.36,30.24,220.16,85.91s-88.25,107-206.44,115-216.36-30.24-220.16-85.91S763,443.08,881.15,435Zm8.54,125.07c29.56-2,52.86-14.7,51.94-28.26s-25.74-23-55.3-20.93-52.87,14.69-51.94,28.26S860.12,562.1,889.69,560.08Z" style="fill:#dee4ea"/><path d="M881.05,435.45c117.73-8,215.47,30.09,219.25,85.51s-87.87,106.49-205.59,114.53S679.25,605.4,675.46,550,763.33,443.48,881.05,435.45Zm8.56,125.36c30.46-2.08,54.47-15.14,53.52-29.12s-26.52-23.65-57-21.57-54.46,15.14-53.51,29.12S859.15,562.89,889.61,560.81Z" style="fill:#dde3ea"/><path d="M881,435.88c117.25-8,214.57,29.95,218.34,85.12s-87.5,106-204.74,114S680,605.07,676.22,549.89,763.71,443.89,881,435.88Zm8.58,125.65c31.36-2.14,56.07-15.58,55.09-30s-27.3-24.34-58.65-22.2-56.07,15.59-55.09,30S858.18,563.68,889.54,561.53Z" style="fill:#dce3e9"/><path d="M880.86,436.32c116.78-8,213.68,29.8,217.43,84.72s-87.12,105.52-203.89,113.5S680.73,604.75,677,549.82,764.09,444.3,880.86,436.32Zm8.61,125.94c32.25-2.2,57.67-16,56.66-30.82s-28.08-25-60.33-22.84-57.67,16-56.66,30.83S857.21,564.46,889.47,562.26Z" style="fill:#dbe2e9"/><path d="M880.77,436.76c116.3-7.94,212.78,29.65,216.51,84.33s-86.74,105-203,113-212.77-29.64-216.51-84.32S764.47,444.7,880.77,436.76ZM889.39,563c33.15-2.26,59.27-16.48,58.24-31.68s-28.86-25.74-62-23.47-59.28,16.47-58.24,31.68S856.24,565.25,889.39,563Z" style="fill:#dae1e8"/><path d="M880.68,437.2c115.82-7.91,211.88,29.49,215.6,83.93s-86.37,104.55-202.19,112.46-211.88-29.49-215.6-83.93S764.85,445.11,880.68,437.2Zm8.64,126.52c34-2.33,60.87-16.92,59.81-32.54s-29.64-26.43-63.68-24.11S824.57,524,825.64,539.61,855.27,566,889.32,563.72Z" style="fill:#d9e0e7"/><path d="M880.58,437.64c115.35-7.88,211,29.34,214.69,83.53s-86,104.07-201.34,112-211-29.34-214.69-83.54S765.23,445.52,880.58,437.64Zm8.66,126.81c34.94-2.39,62.48-17.37,61.38-33.4s-30.41-27.13-65.35-24.74-62.47,17.37-61.38,33.4S854.3,566.83,889.24,564.45Z" style="fill:#d8dfe7"/><path d="M880.49,438.08c114.87-7.85,210.09,29.19,213.78,83.13s-85.62,103.59-200.5,111.43S683.69,603.45,680,549.51,765.61,445.92,880.49,438.08Zm8.68,127.09c35.83-2.44,64.08-17.81,63-34.25s-31.19-27.82-67-25.37-64.08,17.81-63,34.25S853.33,567.62,889.17,565.17Z" style="fill:#d7dfe6"/><path d="M880.39,438.52c114.4-7.82,209.2,29,212.87,82.74S1008,624.36,893.62,632.17s-209.19-29-212.87-82.74S766,446.33,880.39,438.52Zm8.7,127.38c36.74-2.51,65.68-18.26,64.53-35.11s-32-28.51-68.7-26-65.68,18.25-64.53,35.1S852.36,568.41,889.09,565.9Z" style="fill:#d6dee5"/><path d="M880.3,439c113.93-7.78,208.3,28.89,212,82.34s-84.87,102.62-198.79,110.4-208.3-28.9-212-82.35S766.37,446.74,880.3,439ZM889,566.63c37.63-2.57,67.28-18.7,66.1-36S922.37,501.45,884.75,504s-67.29,18.71-66.11,36S851.39,569.2,889,566.63Z" style="fill:#d5dde5"/><path d="M880.21,439.4c113.45-7.75,207.41,28.74,211,81.94s-84.5,102.14-198,109.88-207.4-28.74-211-82S766.75,447.14,880.21,439.4Zm8.74,128c38.52-2.63,68.88-19.15,67.67-36.82s-33.53-29.91-72-27.28-68.89,19.15-67.68,36.82S850.42,570,889,567.36Z" style="fill:#d4dce4"/><path d="M880.11,439.83c113-7.71,206.52,28.6,210.13,81.56S1006.12,623,893.15,630.75,686.64,602.15,683,549.2,767.14,447.55,880.11,439.83Zm8.76,128.26c39.42-2.7,70.49-19.6,69.25-37.68s-34.31-30.61-73.73-27.91-70.48,19.59-69.25,37.68S849.45,570.78,888.87,568.09Z" style="fill:#d3dbe4"/><path d="M880,440.27c112.5-7.68,205.62,28.45,209.21,81.16S1005.49,622.59,893,630.28s-205.61-28.45-209.21-81.16S767.52,448,880,440.27Zm8.78,128.54c40.31-2.75,72.09-20,70.82-38.53s-35.09-31.3-75.4-28.55-72.09,20-70.83,38.54S848.48,571.57,888.8,568.81Z" style="fill:#d2dae3"/><path d="M879.92,440.71c112-7.65,204.73,28.3,208.31,80.76s-83.37,100.68-195.4,108.33S688.12,601.51,684.53,549,767.9,448.36,879.92,440.71Zm8.8,128.83c41.21-2.81,73.69-20.48,72.4-39.39S925.25,498.16,884,501s-73.69,20.49-72.4,39.39S847.51,572.35,888.72,569.54Z" style="fill:#d1dae2"/><path d="M879.83,441.15c111.55-7.62,203.83,28.15,207.39,80.36s-83,100.2-194.54,107.82S688.86,601.18,685.29,549,768.28,448.77,879.83,441.15Zm8.82,129.12c42.11-2.88,75.29-20.93,74-40.25S926,497.33,883.87,500.21s-75.3,20.93-74,40.25S846.54,573.14,888.65,570.27Z" style="fill:#d0d9e2"/><path d="M879.74,441.59c111.07-7.59,202.93,28,206.47,80s-82.61,99.71-193.69,107.29-202.92-28-206.47-80S768.66,449.17,879.74,441.59ZM888.57,571c43-2.94,76.9-21.38,75.55-41.1s-37.43-33.39-80.43-30.45-76.9,21.37-75.55,41.1S845.57,573.93,888.57,571Z" style="fill:#cfd8e1"/><path d="M879.64,442c110.6-7.56,202,27.85,205.57,79.57S1003,620.83,892.37,628.38s-202-27.85-205.57-79.57S769,449.58,879.64,442Zm8.86,129.7c43.9-3,78.5-21.82,77.12-42s-38.21-34.09-82.11-31.09-78.49,21.82-77.12,42S844.6,574.72,888.5,571.73Z" style="fill:#ced7e0"/><path d="M879.55,442.47c110.12-7.52,201.14,27.7,204.65,79.17s-81.86,98.75-192,106.27-201.13-27.7-204.65-79.18S769.42,450,879.55,442.47Zm8.88,130c44.79-3.06,80.09-22.26,78.69-42.81s-39-34.78-83.78-31.72-80.1,22.27-78.7,42.82S843.63,575.51,888.43,572.45Z" style="fill:#cdd6e0"/><path d="M879.45,442.91c109.66-7.49,200.25,27.55,203.75,78.77s-81.5,98.26-191.15,105.75-200.23-27.55-203.74-78.78S769.8,450.39,879.45,442.91Zm8.9,130.27c45.69-3.12,81.7-22.71,80.27-43.67S928.85,494,883.16,497.16s-81.7,22.71-80.27,43.67S842.66,576.3,888.35,573.18Z" style="fill:#ccd6df"/><path d="M879.36,443.35c109.18-7.46,199.35,27.4,202.83,78.38S1001.07,619.5,891.9,627s-199.34-27.4-202.83-78.39S770.18,450.8,879.36,443.35Zm8.92,130.56c46.58-3.18,83.3-23.16,81.84-44.53s-40.55-36.17-87.13-33-83.31,23.15-81.85,44.52S841.69,577.09,888.28,573.91Z" style="fill:#cbd5df"/><path d="M879.27,443.78c108.7-7.42,198.45,27.26,201.91,78s-80.74,97.29-189.44,104.72-198.44-27.25-201.91-78S770.56,451.21,879.27,443.78Zm8.93,130.86c47.48-3.24,84.91-23.6,83.42-45.39s-41.33-36.86-88.81-33.62S797.9,519.23,799.39,541,840.72,577.88,888.2,574.64Z" style="fill:#cbd4de"/><path d="M879.17,444.22c108.23-7.39,197.56,27.1,201,77.59S999.81,618.62,891.58,626s-197.54-27.1-201-77.59S770.94,451.61,879.17,444.22Zm9,131.14c48.38-3.3,86.5-24,85-46.23S931,491.57,882.63,494.87s-86.5,24-85,46.24S839.75,578.67,888.13,575.36Z" style="fill:#cad3dd"/><path d="M879.08,444.66c107.75-7.36,196.66,26.95,200.09,77.2s-80,96.32-187.74,103.68-196.66-26.95-200.09-77.2S771.32,452,879.08,444.66Zm9,131.43c49.28-3.36,88.11-24.49,86.57-47.09s-42.89-38.26-92.16-34.89-88.11,24.49-86.57,47.09S838.78,579.46,888.05,576.09Z" style="fill:#c9d2dd"/><path d="M879,445.1c107.28-7.33,195.77,26.8,199.18,76.8s-79.61,95.84-186.89,103.16-195.76-26.8-199.18-76.8S771.7,452.43,879,445.1Zm9,131.72c50.17-3.42,89.71-24.94,88.14-48s-43.67-38.95-93.84-35.53-89.71,24.94-88.14,48S837.81,580.25,888,576.82Z" style="fill:#c8d2dc"/><path d="M878.89,445.54c106.8-7.3,194.87,26.65,198.27,76.4S997.92,617.3,891.11,624.59s-194.86-26.65-198.26-76.4S772.09,452.83,878.89,445.54Zm9,132c51.06-3.49,91.31-25.38,89.71-48.81s-44.45-39.65-95.51-36.16S790.79,518,792.39,541.39,836.84,581,887.91,577.55Z" style="fill:#c7d1dc"/><path d="M878.8,446c106.32-7.26,194,26.5,197.35,76S997.29,616.86,891,624.12s-194-26.5-197.35-76S772.47,453.24,878.8,446Zm9,132.3c52-3.55,92.92-25.83,91.29-49.67s-45.23-40.34-97.19-36.79S789,517.65,790.64,541.49,835.87,581.82,887.83,578.28Z" style="fill:#c6d0db"/><path d="M878.7,446.42c105.86-7.23,193.08,26.35,196.44,75.61S996.66,616.41,890.8,623.64,697.73,597.29,694.36,548,772.85,453.64,878.7,446.42ZM887.76,579c52.85-3.6,94.51-26.27,92.86-50.52s-46-41-98.87-37.42-94.51,26.27-92.86,50.52S834.9,582.61,887.76,579Z" style="fill:#c5cfda"/><path d="M878.61,446.86c105.38-7.2,192.18,26.2,195.53,75.21S996,616,890.65,623.17,698.47,597,695.12,548,773.23,454.05,878.61,446.86Zm9.07,132.87c53.76-3.67,96.12-26.72,94.44-51.37s-46.79-41.74-100.54-38.07S785.46,517,787.14,541.67,833.93,583.4,887.68,579.73Z" style="fill:#c4ceda"/><path d="M878.51,447.3c104.91-7.17,191.3,26.05,194.62,74.81S995.39,615.53,890.49,622.7s-191.28-26.06-194.62-74.82S773.61,454.46,878.51,447.3Zm9.1,133.16c54.65-3.73,97.72-27.16,96-52.23s-47.57-42.43-102.22-38.7-97.72,27.16-96,52.24S833,584.19,887.61,580.46Z" style="fill:#c3ced9"/><path d="M878.42,447.73c104.43-7.13,190.4,25.91,193.71,74.42s-77.37,92.94-181.8,100.07S700,596.32,696.63,547.8,774,454.86,878.42,447.73Zm9.11,133.46c55.55-3.79,99.33-27.61,97.59-53.09S936.77,485,881.23,488.77s-99.33,27.61-97.59,53.09S832,585,887.53,581.19Z" style="fill:#c2cdd8"/><path d="M878.33,448.17c103.95-7.1,189.5,25.76,192.79,74s-77,92.45-180.94,99.55-189.49-25.76-192.79-74S774.37,455.27,878.33,448.17Zm9.13,133.75c56.44-3.86,100.92-28.06,99.16-53.95s-49.13-43.82-105.57-40-100.93,28.06-99.16,54S831,585.77,887.46,581.92Z" style="fill:#c1ccd8"/><path d="M878.23,448.61c103.48-7.07,188.61,25.61,191.88,73.63s-76.61,92-180.09,99-188.59-25.61-191.88-73.64S774.75,455.68,878.23,448.61Zm9.16,134c57.33-3.91,102.52-28.5,100.73-54.8s-49.91-44.51-107.25-40.6-102.52,28.5-100.73,54.81S830.05,586.56,887.39,582.64Z" style="fill:#c0cbd7"/><path d="M878.14,449.05c103-7,187.71,25.46,191,73.23s-76.24,91.49-179.25,98.52-187.69-25.45-191-73.23S775.13,456.08,878.14,449.05Zm9.17,134.32c58.23-4,104.13-28.94,102.31-55.66S938.93,482.5,880.7,486.48s-104.13,28.94-102.31,55.66S829.08,587.35,887.31,583.37Z" style="fill:#bfcad7"/><path d="M878,449.49c102.53-7,186.82,25.31,190.06,72.84s-75.86,91-178.39,98S702.91,595,699.65,547.49,775.51,456.49,878,449.49Zm9.2,134.61c59.13-4,105.73-29.39,103.87-56.51s-51.46-45.91-110.59-41.87-105.73,29.39-103.88,56.51S828.11,588.14,887.24,584.1Z" style="fill:#bec9d6"/><path d="M878,449.93c102-7,185.92,25.16,189.14,72.44s-75.48,90.51-177.54,97.48S703.64,594.7,700.41,547.41,775.89,456.9,878,449.93Zm9.21,134.9c60-4.1,107.33-29.84,105.45-57.37S940.37,480.85,880.35,485,773,514.79,774.89,542.33,827.13,588.92,887.16,584.83Z" style="fill:#bdc9d5"/><path d="M877.86,450.37c101.58-6.94,185,25,188.23,72s-75.11,90-176.7,97-185-25-188.22-72S776.27,457.3,877.86,450.37Zm9.23,135.19c60.92-4.16,108.93-30.29,107-58.23s-53-47.3-113.94-43.14-108.94,30.28-107,58.23S826.16,589.71,887.09,585.56Z" style="fill:#bcc8d5"/><path d="M877.76,450.81c101.11-6.91,184.13,24.85,187.32,71.64S990.35,612,889.24,618.91s-184.12-24.86-187.32-71.65S776.66,457.71,877.76,450.81ZM887,586.28c61.82-4.22,110.54-30.72,108.6-59.08s-53.8-48-115.62-43.77-110.53,30.72-108.6,59.08S825.19,590.5,887,586.28Z" style="fill:#bbc7d4"/><path d="M877.67,451.25c100.63-6.88,183.23,24.7,186.4,71.25s-74.36,89.06-175,95.93-183.22-24.71-186.4-71.25S777,458.12,877.67,451.25ZM886.94,587c62.71-4.28,112.14-31.17,110.17-59.94s-54.58-48.69-117.29-44.4-112.14,31.17-110.18,59.94S824.22,591.29,886.94,587Z" style="fill:#bac6d3"/><path d="M877.57,451.68c100.16-6.84,182.34,24.56,185.5,70.86s-74,88.58-174.14,95.42S706.6,593.4,703.43,547.1,777.42,458.52,877.57,451.68Zm9.3,136.06c63.6-4.34,113.74-31.62,111.74-60.8s-55.36-49.38-119-45S765.9,513.52,767.89,542.7,823.25,592.08,886.87,587.74Z" style="fill:#b9c5d3"/><path d="M877.48,452.12c99.68-6.81,181.44,24.41,184.58,70.46s-73.61,88.1-173.29,94.91S707.34,593.08,704.19,547,777.8,458.93,877.48,452.12Zm9.31,136.35c64.51-4.41,115.34-32.06,113.32-61.65S944,476.73,879.47,481.14,764.12,513.2,766.14,542.8,822.28,592.87,886.79,588.47Z" style="fill:#b8c5d2"/><path d="M877.39,452.56c99.2-6.77,180.54,24.26,183.67,70.07S987.82,610.24,888.61,617,708.08,592.75,705,547,778.18,459.33,877.39,452.56Zm9.33,136.64c65.4-4.47,116.94-32.51,114.89-62.51s-56.92-50.78-122.32-46.31-116.95,32.5-114.9,62.51S821.31,593.66,886.72,589.2Z" style="fill:#b7c4d2"/><path d="M877.29,453c98.73-6.74,179.65,24.11,182.76,69.67s-72.86,87.13-171.59,93.87S708.82,592.43,705.7,546.87,778.56,459.74,877.29,453Zm9.35,136.92c66.3-4.52,118.55-32.95,116.47-63.36s-57.7-51.47-124-46.95-118.54,33-116.47,63.37S820.34,594.45,886.64,589.92Z" style="fill:#b6c3d1"/><path d="M877.2,453.44c98.25-6.71,178.75,24,181.84,69.27s-72.48,86.64-170.74,93.35-178.74-24-181.84-69.27S778.94,460.15,877.2,453.44Zm9.37,137.21c67.19-4.59,120.15-33.4,118-64.22s-58.48-52.17-125.67-47.58-120.15,33.4-118.05,64.23S819.37,595.24,886.57,590.65Z" style="fill:#b5c2d0"/><path d="M877.1,453.88C974.88,447.2,1055,477.69,1058,522.75s-72.11,86.16-169.9,92.84S710.3,591.78,707.22,546.71,779.32,460.55,877.1,453.88Zm9.39,137.5c68.09-4.65,121.75-33.84,119.62-65.08s-59.26-52.86-127.35-48.21S757,511.93,759.14,543.17,818.4,596,886.49,591.38Z" style="fill:#b4c1d0"/><path d="M877,454.32c97.31-6.65,177,23.66,180,68.48s-71.73,85.67-169,92.32-177-23.67-180-68.49S779.7,461,877,454.32Zm9.41,137.79c69-4.71,123.35-34.29,121.19-65.94s-60-53.56-129-48.84-123.36,34.28-121.2,65.93S817.43,596.82,886.42,592.11Z" style="fill:#b3c1cf"/><path d="M876.92,454.76c96.83-6.62,176.06,23.51,179.1,68.08S984.67,608,887.83,614.64s-176.05-23.51-179.1-68.08S780.08,461.37,876.92,454.76Zm9.43,138.07c69.88-4.77,124.95-34.73,122.76-66.79s-60.82-54.25-130.7-49.48-125,34.74-122.77,66.8S816.46,597.6,886.35,592.83Z" style="fill:#b2c0ce"/><path d="M876.82,455.2c96.36-6.59,175.17,23.36,178.2,67.68s-71,84.71-167.35,91.29-175.16-23.36-178.19-67.69S780.46,461.77,876.82,455.2Zm9.45,138.36c70.78-4.83,126.56-35.18,124.34-67.64S949,471,878.23,475.8,751.68,511,753.89,543.45,815.49,598.39,886.27,593.56Z" style="fill:#b1bfce"/><path d="M876.73,455.63c95.88-6.55,174.28,23.22,177.28,67.29S983.4,607.15,887.52,613.7s-174.27-23.22-177.28-67.3S780.84,462.18,876.73,455.63Zm9.47,138.66c71.67-4.89,128.15-35.62,125.91-68.5S949.73,470.14,878.06,475s-128.16,35.62-125.92,68.5S814.52,599.18,886.2,594.29Z" style="fill:#b0becd"/><path d="M876.63,456.07C972,449.56,1050,479.14,1053,523s-70.23,83.74-165.64,90.25S714,590.16,711,546.32,781.22,462.59,876.63,456.07Zm9.49,139c72.57-5,129.76-36.07,127.49-69.36s-63.16-56.34-135.73-51.38-129.76,36.06-127.49,69.36S813.55,600,886.12,595Z" style="fill:#afbdcd"/><path d="M876.54,456.51C971.47,450,1049,479.43,1052,523s-69.86,83.26-164.8,89.74-172.47-22.92-175.45-66.5S781.61,463,876.54,456.51Zm9.51,139.24c73.46-5,131.36-36.52,129.06-70.22s-63.94-57-137.4-52S746.34,510,748.64,543.73,812.58,600.76,886.05,595.75Z" style="fill:#aebccc"/><path d="M876.45,457C970.9,450.5,1048,479.72,1051,523.05s-69.48,82.77-163.94,89.22-171.58-22.76-174.54-66.1S782,463.4,876.45,457ZM886,596.47c74.36-5.07,133-37,130.64-71.07s-64.72-57.73-139.08-52.65-133,37-130.64,71.07S811.61,601.55,886,596.47Z" style="fill:#adbccb"/><path d="M876.35,457.39c94-6.42,170.7,22.62,173.63,65.71s-69.1,82.28-163.09,88.7-170.68-22.62-173.63-65.71S782.37,463.81,876.35,457.39ZM885.9,597.2c75.25-5.14,134.57-37.4,132.21-71.93S952.61,466.85,877.35,472s-134.56,37.4-132.21,71.93S810.64,602.34,885.9,597.2Z" style="fill:#acbbcb"/><path d="M876.26,457.83c93.51-6.39,169.8,22.46,172.72,65.31s-68.73,81.8-162.24,88.19S717,588.86,714,546,782.75,464.21,876.26,457.83Zm9.57,140.1c76.15-5.2,136.16-37.85,133.78-72.78S953.33,466,877.18,471.22,741,509.08,743.39,544,809.67,603.13,885.83,597.93Z" style="fill:#abbaca"/><path d="M876.16,458.27c93-6.36,168.91,22.31,171.81,64.91s-68.35,81.32-161.39,87.67-168.89-22.31-171.8-64.91S783.13,464.62,876.16,458.27Zm9.59,140.39c77-5.26,137.77-38.3,135.36-73.64S954.05,465.2,877,470.46s-137.77,38.3-135.36,73.65S808.7,603.92,885.75,598.66Z" style="fill:#aab9c9"/><path d="M876.07,458.71c92.56-6.33,168,22.16,170.9,64.51s-68,80.84-160.55,87.16-168-22.17-170.89-64.52S783.51,465,876.07,458.71Zm9.61,140.68c77.94-5.33,139.37-38.75,136.93-74.5s-67.84-60.52-145.78-55.19-139.38,38.74-136.94,74.5S807.73,604.71,885.68,599.39Z" style="fill:#a9b8c9"/><path d="M876,459.15c92.08-6.3,167.11,22,170,64.12s-67.61,80.35-159.69,86.64-167.1-22-170-64.13S783.89,465.43,876,459.15Zm9.62,141c78.84-5.38,141-39.18,138.51-75.35s-68.62-61.21-147.46-55.82-141,39.18-138.51,75.35S806.76,605.5,885.6,600.11Z" style="fill:#a8b8c8"/><path d="M875.88,459.58c91.61-6.25,166.22,21.87,169.07,63.73s-67.23,79.87-158.84,86.12S719.91,587.56,717,545.7,784.27,465.84,875.88,459.58Zm9.65,141.26c79.73-5.44,142.57-39.63,140.08-76.21s-69.4-61.9-149.14-56.46S733.9,507.81,736.39,544.39,805.79,606.28,885.53,600.84Z" style="fill:#a7b7c8"/><path d="M875.79,460c91.13-6.22,165.32,21.72,168.16,63.33S977.09,602.74,886,609s-165.3-21.72-168.15-63.33S784.65,466.24,875.79,460Zm9.66,141.55c80.63-5.51,144.18-40.08,141.66-77.07s-70.18-62.6-150.81-57.09-144.18,40.08-141.66,77.07S804.82,607.07,885.45,601.57Z" style="fill:#a6b6c7"/><path d="M875.69,460.46c90.66-6.19,164.43,21.57,167.25,62.93s-66.48,78.9-157.14,85.1-164.41-21.57-167.24-62.94S785,466.65,875.69,460.46Zm9.69,141.84c81.53-5.57,145.78-40.53,143.23-77.92s-71-63.3-152.49-57.73-145.78,40.52-143.23,77.92S803.85,607.86,885.38,602.3Z" style="fill:#a5b5c6"/><path d="M875.6,460.9c90.18-6.16,163.53,21.42,166.33,62.54S975.83,601.85,885.64,608s-163.52-21.42-166.33-62.54S785.41,467.06,875.6,460.9ZM885.31,603c82.42-5.63,147.38-41,144.8-78.78s-71.74-64-154.16-58.36-147.39,41-144.81,78.78S802.88,608.65,885.31,603Z" style="fill:#a4b4c6"/><path d="M875.51,461.34c89.7-6.13,162.63,21.27,165.42,62.14s-65.73,77.93-155.45,84.06-162.62-21.27-165.41-62.15S785.79,467.46,875.51,461.34Zm9.72,142.41c83.32-5.69,149-41.41,146.38-79.63s-72.52-64.69-155.84-59-149,41.42-146.38,79.64S801.91,609.44,885.23,603.75Z" style="fill:#a3b4c5"/><path d="M875.41,461.78c89.24-6.1,161.74,21.12,164.51,61.74S974.57,601,885.33,607.06,723.6,585.94,720.82,545.32,786.17,467.87,875.41,461.78Zm9.75,142.7c84.21-5.75,150.58-41.86,147.94-80.49s-73.29-65.38-157.51-59.63-150.58,41.86-148,80.49S800.94,610.23,885.16,604.48Z" style="fill:#a2b3c4"/><path d="M875.32,462.22c88.76-6.07,160.84,21,163.59,61.35s-65,77-153.74,83-160.83-21-163.59-61.35S786.56,468.28,875.32,462.22Zm9.76,143c85.11-5.81,152.19-42.3,149.52-81.35s-74.07-66.08-159.18-60.26S723.23,505.9,725.89,545,800,611,885.08,605.21Z" style="fill:#a1b2c4"/><path d="M875.22,462.66c88.29-6,160,20.82,162.69,60.95S973.31,600.09,885,606.12s-159.94-20.83-162.68-61S786.94,468.68,875.22,462.66ZM885,605.94c86-5.88,153.79-42.75,151.09-82.21S961.25,457,875.24,462.83,721.45,505.58,724.14,545,799,611.81,885,605.94Z" style="fill:#a0b1c3"/><path d="M875.13,463.1c87.81-6,159.05,20.67,161.77,60.55s-64.22,76-152,82-159-20.67-161.77-60.56S787.32,469.09,875.13,463.1Zm9.81,143.56c86.9-5.93,155.39-43.19,152.66-83S962,456.14,875.07,462.07s-155.4,43.2-152.68,83.06S798,612.6,884.94,606.66Z" style="fill:#9fb0c3"/><path d="M875,463.53c87.34-6,158.17,20.53,160.87,60.16S972,599.2,884.7,605.17,726.56,584.65,723.85,545,787.7,469.5,875,463.53Zm9.83,143.86c87.8-6,157-43.64,154.24-83.91s-76.41-68.17-164.21-62.17-157,43.64-154.25,83.92S797.06,613.39,884.86,607.39Z" style="fill:#9eafc2"/><path d="M874.94,464c86.86-5.93,157.27,20.38,160,59.77s-63.48,75-150.34,81S727.3,584.32,724.6,544.93,788.08,469.9,874.94,464Zm9.85,144.15c88.69-6,158.59-44.08,155.81-84.77s-77.2-68.86-165.89-62.8-158.59,44.08-155.82,84.77S796.09,614.17,884.79,608.12Z" style="fill:#9dafc1"/><path d="M874.85,464.41c86.38-5.9,156.37,20.23,159,59.37s-63.1,74.54-149.49,80.44S728,584,725.36,544.85,788.46,470.31,874.85,464.41Zm9.86,144.44c89.59-6.12,160.2-44.53,157.39-85.63s-78-69.56-167.56-63.44-160.2,44.53-157.4,85.64S795.12,615,884.71,608.85Z" style="fill:#9caec1"/><path d="M874.75,464.85c85.91-5.87,155.48,20.07,158.13,59s-62.73,74.06-148.65,79.93-155.45-20.08-158.11-59S788.84,470.71,874.75,464.85Zm9.89,144.73c90.48-6.18,161.8-45,159-86.49S964.84,452.84,874.36,459s-161.8,45-159,86.49S794.15,615.75,884.64,609.58Z" style="fill:#9badc0"/><path d="M874.66,465.29c85.43-5.84,154.58,19.92,157.21,58.57s-62.35,73.58-147.79,79.41-154.56-19.92-157.21-58.58S789.22,471.12,874.66,465.29Zm9.9,145c91.38-6.23,163.4-45.42,160.54-87.34S965.56,452,874.19,458.26,710.78,503.68,713.64,545.6,793.18,616.54,884.56,610.3Z" style="fill:#9aacbf"/><path d="M874.56,465.73c85-5.81,153.69,19.77,156.3,58.18s-62,73.09-146.94,78.89S730.26,583,727.63,544.62,789.6,471.53,874.56,465.73ZM884.49,611c92.28-6.3,165-45.86,162.11-88.19S966.28,451.19,874,457.5s-165,45.86-162.12,88.2S792.21,617.33,884.49,611Z" style="fill:#99abbf"/><path d="M874.47,466.17c84.49-5.78,152.79,19.62,155.39,57.78s-61.6,72.61-146.1,78.38S731,582.7,728.38,544.54,790,471.93,874.47,466.17Zm9.95,145.59c93.17-6.36,166.6-46.31,163.68-89s-81.1-72.34-174.27-66S707.23,503,710.14,545.79,791.24,618.12,884.42,611.76Z" style="fill:#98abbe"/><path d="M874.38,466.61c84-5.74,151.89,19.47,154.47,57.38s-61.22,72.13-145.24,77.86-151.88-19.47-154.47-57.39S790.36,472.34,874.38,466.61Zm10,145.88c94.07-6.42,168.21-46.76,165.26-89.91s-81.88-73-175.94-66.61-168.21,46.76-165.27,89.91S790.27,618.91,884.34,612.49Z" style="fill:#97aabe"/><path d="M874.28,467.05c83.54-5.71,151,19.32,153.56,57S967,595.67,883.45,601.38s-151-19.33-153.55-57S790.74,472.75,874.28,467.05Zm10,146.17c95-6.49,169.8-47.21,166.83-90.77s-82.66-73.73-177.62-67.24S703.67,502.41,706.64,546,789.3,619.7,884.27,613.22Z" style="fill:#96a9bd"/></g><g style="isolation:isolate"><polygon points="732.38 427.35 739.2 446.46 746.31 454.15 739.48 435.04 732.38 427.35" style="fill:#9ac1e2"/><polygon points="899.62 389.29 906.45 408.41 914.08 395.85 907.25 376.73 899.62 389.29" style="fill:#9fc4e5"/><polygon points="686.97 466.33 693.8 485.45 709.57 487.11 702.74 468 686.97 466.33" style="fill:#bbe0ff"/><polygon points="934.11 401.8 940.94 420.92 958.05 409.12 951.22 390 934.11 401.8" style="fill:#bae0ff"/><polygon points="676.71 501.54 683.53 520.66 702.06 516.97 695.23 497.86 676.71 501.54" style="fill:#c7eaff"/><g style="isolation:isolate"><g style="clip-path:url(#w)"><g style="isolation:isolate"><path d="M770.3,471.08l6.83,19.11c-1.13-3.15-.29-7,2.72-11.33L773,459.75c-3,4.31-3.85,8.18-2.72,11.33" style="fill:#97bedf"/><path d="M773,459.75l6.83,19.11A35.71,35.71,0,0,1,783,475l-6.83-19.11a34.77,34.77,0,0,0-3.19,3.87" style="fill:#9dc3e4"/><path d="M776.21,455.88,783,475a.6.6,0,0,0,.08-.08q1.51-1.59,3.29-3.14l-6.83-19.12c-1.19,1-2.28,2.09-3.29,3.15l-.08.08" style="fill:#a2c8e9"/><path d="M779.58,452.65l6.83,19.12c1.13-1,2.34-2,3.61-2.93l-6.82-19.11q-1.92,1.44-3.62,2.92" style="fill:#a7ceee"/><path d="M783.2,449.73,790,468.84c1.27-.95,2.59-1.88,4-2.79l-6.83-19.12c-1.38.92-2.71,1.85-4,2.8" style="fill:#add3f3"/><path d="M787.17,446.93,794,466.05c1.44-.95,3-1.88,4.51-2.78l-6.83-19.12c-1.56.9-3.07,1.83-4.51,2.78" style="fill:#b2d8f8"/><path d="M791.68,444.15l6.83,19.12c1.76-1,3.59-2,5.47-2.95l-6.83-19.12c-1.88.95-3.71,1.94-5.47,2.95" style="fill:#b7ddfd"/><path d="M797.15,441.2,804,460.32c2.38-1.19,4.85-2.33,7.37-3.39l-6.83-19.11q-3.79,1.59-7.37,3.38" style="fill:#bbe0ff"/><path d="M804.52,437.82l6.83,19.11a119.56,119.56,0,0,1,28.37-8.05l-6.83-19.11a118.76,118.76,0,0,0-28.37,8.05" style="fill:#bce1ff"/><path d="M832.89,429.77l6.83,19.11c2.46-.35,4.88-.6,7.23-.74L840.12,429c-2.35.13-4.77.38-7.23.74" style="fill:#bbe0ff"/><path d="M840.12,429,847,448.14l1.42-.07c1.38-.05,2.7-.06,4,0l-6.84-19.12c-1.26,0-2.59,0-4,0-.47,0-.94,0-1.42.07" style="fill:#b7ddfd"/><path d="M845.5,428.92,852.34,448c1.54,0,3,.13,4.36.27l-6.83-19.11c-1.37-.15-2.82-.24-4.37-.28" style="fill:#b2d8f8"/><path d="M849.87,429.2l6.83,19.11q2,.22,3.78.6l-6.83-19.11q-1.77-.37-3.78-.6" style="fill:#add3f3"/><path d="M853.65,429.8l6.83,19.11a27.82,27.82,0,0,1,3.38.95L857,430.74a27.86,27.86,0,0,0-3.38-.94" style="fill:#a7ceee"/><path d="M857,430.74l6.83,19.12a18.67,18.67,0,0,1,3.08,1.38l-6.83-19.11a18.67,18.67,0,0,0-3.08-1.39" style="fill:#a2c8e9"/><path d="M860.11,432.13l6.83,19.11a12.45,12.45,0,0,1,2.82,2.17l-6.83-19.12a12.42,12.42,0,0,0-2.82-2.16" style="fill:#9dc3e4"/><path d="M862.93,434.29l6.83,19.12a8.61,8.61,0,0,1,1.91,3l-6.83-19.12a8.7,8.7,0,0,0-1.91-3" style="fill:#97bedf"/></g></g></g><g style="isolation:isolate"><g style="clip-path:url(#x)"><g style="isolation:isolate"><path d="M695.23,497.86,702.06,517a21.63,21.63,0,0,0,4,6.82l-6.83-19.11a21.74,21.74,0,0,1-4-6.82" style="fill:#97bedf"/></g></g></g><polygon points="959.53 419.94 966.36 439.06 966.47 422.01 959.64 402.89 959.53 419.94" style="fill:#92b9da"/><polygon points="939.2 427.82 946.03 446.94 966.36 439.06 959.53 419.94 939.2 427.82" style="fill:#c5e8ff"/><g style="isolation:isolate"><g style="clip-path:url(#y)"><g style="isolation:isolate"><path d="M935,436.58l6.83,19.12a46.12,46.12,0,0,0,4.18-8.76l-6.83-19.12a46.45,46.45,0,0,1-4.18,8.76" style="fill:#97bedf"/></g></g></g><polygon points="685.11 514.44 691.94 533.55 711.2 542.64 704.37 523.53 685.11 514.44" style="fill:#a9d0f0"/><polygon points="704.37 523.53 711.2 542.64 727.34 535.61 720.51 516.49 704.37 523.53" style="fill:#c3e6ff"/><g style="isolation:isolate"><g style="clip-path:url(#z)"><g style="isolation:isolate"><path d="M720.51,516.49l6.83,19.12q1.89.5,3.9.93l-6.83-19.12q-2-.42-3.9-.93" style="fill:#a7ceee"/><path d="M724.41,517.42l6.83,19.12c3,.64,6.23,1.16,9.67,1.54L734.07,519a93.08,93.08,0,0,1-9.66-1.54" style="fill:#add3f3"/><path d="M734.07,519l6.84,19.12.29,0L734.37,519l-.3,0" style="fill:#b2d8f8"/></g></g></g><polygon points="929.96 458.53 936.79 477.64 956.19 457.21 949.36 438.1 929.96 458.53" style="fill:#acd2f2"/><polygon points="912.32 461.19 919.15 480.31 936.79 477.64 929.96 458.53 912.32 461.19" style="fill:#c5e8ff"/><g style="isolation:isolate"><g style="clip-path:url(#aa)"><g style="isolation:isolate"><path d="M898.67,471.37l6.83,19.11q4-2.72,7.71-5.5l-6.83-19.12q-3.71,2.79-7.71,5.51" style="fill:#add3f3"/><path d="M906.38,465.86,913.21,485q3.07-2.31,5.94-4.67l-6.83-19.12c-1.91,1.58-3.89,3.13-5.94,4.67" style="fill:#a7ceee"/></g></g></g><g style="isolation:isolate"><g style="clip-path:url(#ab)"><g style="isolation:isolate"><path d="M773.22,518.05l6.83,19.11c1.53-.19,3.07-.39,4.61-.62l-6.84-19.11c-1.54.22-3.07.42-4.6.62" style="fill:#bbe0ff"/><path d="M777.82,517.43l6.84,19.11q7.77-1.11,15.7-2.74l-6.84-19.12q-7.92,1.64-15.7,2.75" style="fill:#bce1ff"/></g></g></g><polygon points="762.49 526.41 769.32 545.53 780.05 537.16 773.22 518.05 762.49 526.41" style="fill:#b8defe"/><polygon points="729.09 527.7 735.92 546.82 769.32 545.53 762.49 526.41 729.09 527.7" style="fill:#c0e4ff"/><g style="isolation:isolate"><g style="clip-path:url(#ac)"><g style="isolation:isolate"><path d="M839,501.53l6.83,19.11q6.35-2.35,12.54-5l-6.83-19.12q-6.19,2.61-12.54,5" style="fill:#bce1ff"/><path d="M851.49,496.56l6.83,19.12c2.58-1.09,5.13-2.2,7.66-3.35l-6.83-19.11c-2.53,1.14-5.08,2.26-7.66,3.34" style="fill:#bbe0ff"/></g></g></g><polygon points="793.52 514.68 800.36 533.79 803.75 539.86 796.92 520.74 793.52 514.68" style="fill:#95bcdd"/><polygon points="870.42 495.43 877.26 514.54 910.78 496.2 903.95 477.09 870.42 495.43" style="fill:#bee2ff"/><polygon points="859.15 493.22 865.98 512.33 877.26 514.54 870.42 495.43 859.15 493.22" style="fill:#b8defe"/><path d="M687,466.33,702.74,468a61,61,0,0,0-5.13,8.43l-20.8,8.06-.1,17.05,18.52-3.68a21.74,21.74,0,0,0,4,6.82l-14.15,9.76,19.26,9.09,16.14-7a91.71,91.71,0,0,0,13.86,2.5l-5.28,8.71,33.4-1.29,10.73-8.36q10-1.26,20.3-3.37l3.4,6.06,38.63-11.33,3.4-7.88c6.87-2.56,13.63-5.34,20.2-8.31l11.27,2.21L904,477.09l-5.28-5.72q7.3-5,13.65-10.18L930,458.53l19.4-20.43L935,436.58a46.45,46.45,0,0,0,4.18-8.76l20.33-7.88.11-17.05-21.39,4.25a23,23,0,0,0-4.14-5.34l17.1-11.8L932,380.9l-22.55,9.81c-3.07-.6-6.33-1.09-9.82-1.42l7.63-12.56L873.83,378l-16.54,12.9q-6.27.91-12.62,2.16l-5.25-9.4L800.78,395l-5.2,12.1q-6.54,2.44-12.93,5.17L765.89,409l-33.51,18.35,7.1,7.69q-5.6,3.66-10.7,7.48l-22.4,3.38Zm106.6,13.12c-22.78.88-30.53-9.71-17.28-23.65s42.46-26,65.25-26.84,30.55,9.71,17.3,23.65-42.45,26-65.27,26.84" style="fill:#edffff"/><polygon points="835.55 509.41 842.38 528.53 845.78 520.64 838.95 501.53 835.55 509.41" style="fill:#98bfe0"/><polygon points="796.92 520.74 803.75 539.86 842.38 528.53 835.55 509.41 796.92 520.74" style="fill:#c7eaff"/></g><g style="clip-path:url(#ad)"><polygon points="836.27 112.74 853.86 294.84 871.46 632.08 836.27 632.08 801.09 632.08 818.68 294.84 836.27 112.74" style="fill:#73a9ff"/><polygon points="836.27 112.74 848.52 294.84 860.78 632.08 836.27 632.08 811.75 632.08 824.01 294.84 836.27 112.74" style="fill:#8dcfff"/><polygon points="836.27 112.74 839.9 294.84 843.52 632.08 836.27 632.08 829 632.08 832.63 294.84 836.27 112.74" style="fill:#73a9ff"/></g><path d="M836.27,152.67c10.76,0,19.47,14.48,19.47,32.35a52.44,52.44,0,0,1-.41,6.6H817.2a54.42,54.42,0,0,1-.4-6.6C816.8,167.15,825.52,152.67,836.27,152.67Z" style="fill:#30363d"/><path d="M841.34,152.67c7.95,0,14.4,14.48,14.4,32.35q0,3.4-.3,6.6h-28.2q-.3-3.19-.3-6.6C826.94,167.15,833.39,152.67,841.34,152.67Z" style="fill:#484f59"/><path d="M854.65,75.19c0,34.46,17.66,64.44,43.71,80l2.29,2.13c4.82,4.39,3.25,25.15,3.25,25.15H854.4V62.36a67.19,67.19,0,0,0,.45,6.89C854.73,71.22,854.65,73.2,854.65,75.19Z" style="fill:#484f59"/><path d="M854.4,115.4a92.13,92.13,0,0,0,41.76,47.07l2.53,2.12c3.21,2.68,3.83,11.43,3.82,17.85H854.4Z" style="fill:#d1dbea"/><path d="M898.17,180a7,7,0,0,1,1.93,2.44H854.4V142.7c9.61,14.76,23.79,27,40.9,35.18Z" style="fill:#e4eef3"/><path d="M817.88,75.19c0,34.46-17.65,64.44-43.7,80l-2.3,2.13c-4.81,4.39-3.24,25.15-3.24,25.15h49.49V62.36a64.45,64.45,0,0,1-.45,6.89Q817.88,72.21,817.88,75.19Z" style="fill:#484f59"/><path d="M818.13,115.4a92,92,0,0,1-41.76,47.07c-.85.73-1.7,1.44-2.52,2.12C770.63,167.27,770,176,770,182.44h48.11Z" style="fill:#d1dbea"/><path d="M774.37,180a7,7,0,0,0-1.93,2.44h45.69V142.7c-9.6,14.76-23.78,27-40.9,35.18C776.26,178.61,775.3,179.32,774.37,180Z" style="fill:#e4eef3"/><path d="M816.88,182.44V58.3c0-11.37,8.44-48.23,19.39-54.3,11,6.07,19.4,42.93,19.4,54.3V182.44Z" style="fill:#e4eef3"/><path d="M836.27,4c.11.06.22.14.33.21V182.44H816.88V58.3C816.88,46.93,825.32,10.07,836.27,4Z" style="fill:#d1dbea"/><path d="M850.13,29.35H822.41c3.48-11.47,8.36-22.3,13.86-25.35C841.77,7.05,846.64,17.88,850.13,29.35Z" style="fill:#484f59"/><path d="M836.6,29.35H822.41c3.48-11.47,8.36-22.3,13.86-25.35.11.06.22.14.33.21Z" style="fill:#30363d"/><path d="M824.33,49.91c.8,1.82,3.44,1.13,6.53,0a15.21,15.21,0,0,1,11,0c3.09,1.16,5.73,1.85,6.53,0h0c.82-1.77-1.11-6-5.14-7.62a19,19,0,0,0-13.81,0c-4,1.55-6,5.85-5.14,7.62Z" style="fill:#484f59"/><path d="M875.82,152.67c4.71,0,8.52,14.48,8.52,32.35q0,3.4-.18,6.6H867.49c-.12-2.13-.19-4.33-.19-6.6C867.3,167.15,871.12,152.67,875.82,152.67Z" style="fill:#484f59"/><path d="M875.82,152.67c1.23,0,2.39,1,3.45,2.79-3.87,2.11-6.84,14.7-6.84,30,0,2.12.05,4.19.16,6.19h-5.1c-.12-2.13-.19-4.33-.19-6.6C867.3,167.15,871.12,152.67,875.82,152.67Z" style="fill:#30363d"/><path d="M796.72,152.67c4.7,0,8.51,14.48,8.51,32.35q0,3.4-.17,6.6H788.37c-.11-2.13-.18-4.33-.18-6.6C788.19,167.15,792,152.67,796.72,152.67Z" style="fill:#484f59"/><path d="M796.72,152.67c1.22,0,2.39,1,3.44,2.79-3.87,2.11-6.84,14.7-6.84,30,0,2.12,0,4.19.16,6.19h-5.11c-.11-2.13-.18-4.33-.18-6.6C788.19,167.15,792,152.67,796.72,152.67Z" style="fill:#30363d"/><path d="M469.15,669.81c44.51-12.79,72.89-50,58.94-98.53s-57.73-65-102.25-52.21c-34.71,10-39.78,37.78-62.64,66.72-4.52,5.72-28.06,8.06-28.06,8.06l17.44,60.72s21.19-10.52,28.06-8.06C415.39,658.89,434.43,679.78,469.15,669.81Z" style="fill:#fec12f"/><path d="M357.27,614.93c31.59-40,38.58-78.41,86.57-92.19a146.57,146.57,0,0,1,30.68-5.46c-15.07-3.69-31.82-3-48.68,1.79-34.71,10-39.78,37.78-62.64,66.72-4.52,5.72-28.06,8.06-28.06,8.06l8,27.85C349.41,620,355,617.77,357.27,614.93Z" style="fill:#ffab01"/><path d="M334.84,592.81l-8.37,2.4a26.13,26.13,0,0,0-17.91,32.34l3.61,12.56A26.15,26.15,0,0,0,344.51,658l8.37-2.41Z" style="fill:#163f59"/><polyline points="440.56 560.43 455.88 566.42 446.08 579.66 461.4 585.66 451.61 598.9 466.94 604.93 457.14 618.16 472.48 624.2 462.69 637.47" style="fill:none;stroke:#f4da80;stroke-miterlimit:10;stroke-width:19.8505px"/><polyline points="432.76 574.68 395.24 600.53 342.54 615.66" style="fill:none;stroke:#f4da80;stroke-miterlimit:10;stroke-width:19.8505px"/><polyline points="446.29 621.79 400.78 619.8 348.08 634.93" style="fill:none;stroke:#f4da80;stroke-miterlimit:10;stroke-width:19.8505px"/><rect x="334.41" y="611.29" width="6.79" height="40.84" transform="translate(-161.27 117.81) rotate(-16.03)" style="fill:#34688f"/><rect x="321.05" y="614.89" width="6.79" height="29.4" transform="translate(-161.22 114.06) rotate(-16.03)" style="fill:#34688f"/><path d="M499.79,600.76s3.94-.09,5-1.7-2.47-.75-.74.15,5.14-1.41,4-3.12-2.76-2.31-4.11-1.1-.09,1.68.35.59-2-3.36-3.54.42-.45,3.94-.06,1.51-1.28-3.77-2.1-.87,1.05,4.09,1.34,2.8-3.63-3.52-3.66-1.12.06,5.27,1.87,5.12-3.07-5.93-4.18-.67S496,606.13,496,605s-6,1.64-1,2.79,3-.69,3.25-1.89-3.86,2.33-1.17,4.54,4.93,1.5,4.17-1-3.33-.89-2.23,1.16a2.78,2.78,0,0,1-.6,3.75c-.49.27,3.52,1.45,4-.7S502.94,601.17,499.79,600.76Z" style="fill:#163f59"/><path d="M505.45,598.27,508,600.9l.09,1.09,2.21,2.4-.7,1.59.89,4.51s.59,2.41-1.8,1.77l-2.4-.65s-1.28,6.31.17,7.26,2.54,2.08,2.06,2.82-3.15.35-3.15.35-3.28-.7-4.39-.79c-.74-.07-3.44,0-3-.4a9.15,9.15,0,0,0,1.53-3.69c.65-2.94,1.45-7,1.45-7a1.37,1.37,0,0,1-1,0c-.59-.19-3.36-1.87-2.63-3.1s2.65-.91,3.38.09,1.73-.25,1.21-2.57-5.35-3.18-.09-4.47C505.39,599.24,505.45,598.27,505.45,598.27Z" style="fill:#e9d6b8"/><path d="M518.83,620.34s11.17,4.15,12.54,5.52.51,6.14-1,6c-2.57-.23-13.26-3.94-13.21-4.4C517.44,624.77,517.63,620.21,518.83,620.34Z" style="fill:#e2c59c"/><path d="M494.49,673c1.31-1.34.34-3.71.34-3.71l-.37-6-2.66-.61-1.84,10S493.18,674.31,494.49,673Z" style="fill:#e9d6b8"/><path d="M494.72,669.17a4.86,4.86,0,0,1,.78,1A2,2,0,0,1,496,672c-.58,1.76-1.53,2.66-3.28,6.65s-3,4.68-5.33,4.59-2.86-2-1.81-3.84c1.53-2.62,2.77-3.8,3.47-5.23a5,5,0,0,0,.54-2.92c.06-1.06,3.25.14,3.4,1.28S495.39,670.41,494.72,669.17Z" style="fill:#3d7aa8"/><path d="M495.76,671c-.58,1.76-1.52,2.66-3.28,6.65s-3,4.68-5.33,4.59a2.27,2.27,0,0,1-2.09-1.12c0,1.14.75,2,2.32,2.11,2.34.09,3.58-.61,5.33-4.59s2.7-4.89,3.28-6.65a1.62,1.62,0,0,0-.16-1.32A1.3,1.3,0,0,1,495.76,671Z" style="fill:#194866"/><path d="M494.76,669.21l0,0,0,.07Z" style="fill:#194866"/><path d="M490.73,677.65c0,.14-.32.1-.64-.08a10.87,10.87,0,0,0-2.09-.84c-.37-.1-.63-.29-.58-.44s.4-.19.76-.09a10.38,10.38,0,0,1,2.06.85C490.55,677.23,490.76,677.51,490.73,677.65Z" style="fill:#194866"/><path d="M491.29,676.42c-.06.14-.35.1-.65-.06a10.46,10.46,0,0,0-2-.78c-.35-.09-.59-.26-.51-.4s.42-.21.77-.1a8.94,8.94,0,0,1,1.94.78C491.16,676,491.34,676.29,491.29,676.42Z" style="fill:#194866"/><path d="M492,675.25c-.06.13-.37.1-.69-.06a10.12,10.12,0,0,0-2.09-.73c-.36-.09-.61-.26-.52-.4s.46-.2.82-.11a9.9,9.9,0,0,1,2.06.75C491.91,674.86,492.09,675.11,492,675.25Z" style="fill:#194866"/><polygon points="553.24 669.89 546.78 662.2 550.21 659.5 557.17 668.71 553.24 669.89" style="fill:#e9d6b8"/><path d="M565.6,671.85a3.05,3.05,0,0,1,.32,1.62s-6.41,1.63-8.58,1.42a10.79,10.79,0,0,1-2.48-.77c-.16-.06-.48-.52-.64-.59s-.38.16-.63.05a7.39,7.39,0,0,1-1.09-.55c-1-2.91-.39-4.22-.39-4.22s2.74,1.13,2.32.44c-.88-1.47,2.24-2.51,2.82-1.72C559.55,670.71,564.48,670.55,565.6,671.85Z" style="fill:#3d7aa8"/><path d="M565.87,672.46a58.61,58.61,0,0,1-6.92,1.6,13.65,13.65,0,0,1-6.83-2.4,12.67,12.67,0,0,0,.38,1.37,7.39,7.39,0,0,0,1.09.55c.25.11.35-.17.63-.05s.48.53.64.59a10.79,10.79,0,0,0,2.48.77c2.17.21,8.58-1.42,8.58-1.42A3.92,3.92,0,0,0,565.87,672.46Z" style="fill:#194866"/><path d="M561.73,670.17c0,.11-.21.21-.56.25a11.43,11.43,0,0,0-2.15.39c-.35.1-.66.1-.7,0s.23-.32.57-.41A11.32,11.32,0,0,1,561,670C561.37,670,561.69,670.06,561.73,670.17Z" style="fill:#194866"/><path d="M560.41,669.53c0,.11-.22.24-.56.3a12.07,12.07,0,0,0-2.1.56c-.34.13-.64.14-.67,0s.22-.35.56-.47a11.08,11.08,0,0,1,2.07-.54C560.06,669.34,560.37,669.41,560.41,669.53Z" style="fill:#194866"/><path d="M559.13,669c0,.12-.22.27-.56.35a12.14,12.14,0,0,0-2,.73c-.33.15-.62.18-.65.05s.22-.38.55-.52a11.8,11.8,0,0,1,2-.7C558.79,668.78,559.09,668.83,559.13,669Z" style="fill:#194866"/><path d="M488.86,619.24a46.76,46.76,0,0,0-6.09,1.9c-1.95.94-3.07.56-4.18,2s-1.84,3.92-.4,5,12.09-1.54,14.25-3.35S490.34,619.12,488.86,619.24Z" style="fill:#e2c59c"/><path d="M502.41,620.6s-2.52-2.51-3.12-3.27-4.78-.28-8.88,1-6,1.95-6.34,2.12,3.28.3,4.84,4.38,1.92,4.73,1.92,4.73l2.77-.64s1.61,16.15,2.55,19.33,16,1.8,19.1,1.14,1.87-18.85,1-21.62l4.34,1.7s3.08-6,4.72-6.8c.66-.33-13-5.29-13-5.29a46.28,46.28,0,0,1-5.8,1.48C505,619,509.83,621.75,502.41,620.6Z" style="fill:#0063cb"/><path d="M500.43,663.93s1.55-.95,9.08-1.84,5.83,1.55,10.45-.05,11.34-14,12.83-17.22c3.8-8.19.49-11.74-.65-12.7-.5-.43-1.15-.18-1.89.47-1.62,1.44-3.68,4.81-5.62,7.21-5.26,6.48-5.67,8.47-13.79,8.87-10.7.54-17.64-17.94-20.21-21.12s-9.22-3.17-7.89,3.09S492.1,663.26,500.43,663.93Z" style="fill:#163f59"/><path d="M485.51,626.34s5.33,7,7,18.83,2.59,23,2.59,23a11.53,11.53,0,0,1-2.23,2.63c-2.28,2-3.49.42-3.65.16-1.09-1.79-5.94-24.21-7.38-26.8s-4.9-15.22.31-17.54C484.76,625.46,485.51,626.34,485.51,626.34Z" style="fill:#1b4f70"/><path d="M478.32,623.14c1.61-1.31,2.88-1.33,8.29.13a109.61,109.61,0,0,1,10.72,3.18c1.12.45,1.13,2.21,1.84,4.19a19.62,19.62,0,0,1,.82,5c0,.41-2.41,2.11-2.41,2.11l-1.2-1.4-.61-2.39a8.44,8.44,0,0,1,1.89-.16c.55.09-1.55-1-1.61-3.12-.07-2.44-1.32-2.74-3.19-2.45s-10.47,1.41-12.11,1.27-4-1-3.65-3.09S477.65,623.68,478.32,623.14Z" style="fill:#e9d6b8"/><path d="M532.37,631.69c2.79,0,10,10.71,15.13,18.7s10.1,15.45,10.1,15.45-3.05,2.42-5.21,2.6a5.88,5.88,0,0,1-3.75-1l-16.72-23.19c-.92-1.28-.84-5.22-.75-7.4S529.39,631.66,532.37,631.69Z" style="fill:#1b4f70"/><path d="M550.69,668s-15.37-32-12.56-22.54c.94,3.18-5-3.67-7.21-6.73a6.17,6.17,0,0,0,1,5.48l16.72,23.19a6.05,6.05,0,0,0,2.66,1A5.61,5.61,0,0,1,550.69,668Z" style="fill:#163f59"/><path d="M534.59,630.19s-1.78-5-4.26-4.54-4.16,2.22-5.15,3S532.61,633.82,534.59,630.19Z" style="fill:#e2c59c"/><path d="M526.37,628s3.47-.5,4.66,1.21a5.7,5.7,0,0,1,.79,5.55c-.79,1.82-.55,2.22-1.19,3.23-.85,1.34-1.88,1.56-2.18,1.51s-.23-.14-.44-.35-.25.7-.85,1.06c-1.25.74-1.92.65-2-.1,0-.42-.34.65-1.88.95-1.29.26-.89-1.36-.79-4.18s.5.6-1.88.1c0,0,1.78-3.73,1.68-4.84S523.21,630.19,526.37,628Z" style="fill:#e9d6b8"/><path d="M692.3,663.58c-29.27-.92-15.37-14.8-35.67-24.7-7.89-3.85-14,3.88-17.08,7l-3.08,1.27c-3.19,3.25-1.5,8.64,1.73,11.83l5,4.91c5.78,4.61,3,12.38,6.7,16a10.83,10.83,0,0,0,15.16-.13c.13.13.25.27.38.41,4.22,4.15,24.2,7.06,28.92,3.28C703.34,676.25,697.43,663.73,692.3,663.58Z" style="fill:#163f59"/><path d="M652.84,696.27s-.22,1.83-9.1,1S622.05,693,622.05,693l20.66,0S650.6,693.39,652.84,696.27Z" style="fill:#e2c59c"/><path d="M629,694.29c-4.23-.27-6.18,1.73-7.9,2.29a28.37,28.37,0,0,0-3.46,1.42c1-1.74,2.43-1.71,3.15-2.25s.53-.26-1-.47c-.86-.12-2.46,1.3-3.6,2.06a3.39,3.39,0,0,1-1.58.69,18.9,18.9,0,0,1,2.68-2.6,22.11,22.11,0,0,1,4.45-2.65,16.71,16.71,0,0,1,5.76.19C629.75,693.42,632,694.49,629,694.29Z" style="fill:#e2c59c"/><path d="M622,692.88a23.17,23.17,0,0,0-3.89,1c-.42.27-2.18,1.91-2.18,1.91a4.23,4.23,0,0,0,2-.74A36.76,36.76,0,0,1,622,692.88Z" style="fill:#e2c59c"/><path d="M649.18,692.16s8.17,1,7.31,5.85c-.49,2.74-2.42,3.58-4.89,3.23-4.57-.65-9.74-1.64-9.74-1.64L640,691.9Z" style="fill:#f99b1c"/><path d="M649.4,695.61l3.72-26.74s.34-5.73,2.39-5.43c3,.42,7.52,9.12,7.63,10.91.21,3.67-5.09,22.5-5.77,26.25-.47,2.58-2.76-.53-5.38-1C647.09,698.7,649.4,695.61,649.4,695.61Z" style="fill:#f99b1c"/><polygon points="759.97 662.12 767.92 648.17 777.24 648.76 781.85 650.12 771.54 651.65 764.96 664.67 759.97 662.12" style="fill:#e9d6b8"/><path d="M769.15,646l1.21.4.56,1.56,7.52.32,5.94,1.64a1.14,1.14,0,0,1-.45.58c-1.13.48-5.83.35-5.83.35s.6-1.26.1-1.58-6.33-.47-7.74-.39c-2.42.14-3.7.63-3.57.32S769.15,646,769.15,646Z" style="fill:#194866"/><path d="M720.32,688.45l21.85,2.48,19.41-34.32,6.53,3.26-19.64,41.61s-1.5,2.61-8.12,2c-6.43-.56-32.48-2.1-35.36-3.17C698.15,697.79,721,694.49,720.32,688.45Z" style="fill:#163f59"/><path d="M636.87,653a16.25,16.25,0,0,0,1.79,1.49c4.35,3.12,9.47,3.64,12.28,1.48a25.13,25.13,0,0,0,5.36,3.65,12.54,12.54,0,0,0,5.23.79c3.05,2.17,4.84,10.88-2.11,14.29-4.18,2.06-4.91-2.85-4.41-6.25.24-1.6.38-3.39,0-4.09-1.49-2.45-2.58-2.47-4.46-2.82a6.68,6.68,0,0,0-5,1.83,1,1,0,0,1-.71.28,5.52,5.52,0,0,1-1.4-1l-4.84-4.76A5.87,5.87,0,0,1,636.87,653Z" style="fill:#e9d6b8"/><polygon points="742.48 654.75 742.75 643.61 745 640.92 751.01 637.4 755.5 638.17 747.65 644.12 747.15 655.8 742.48 654.75" style="fill:#e9d6b8"/><path d="M743.07,641.17l2-1.47.63.49,5.57-3.59s5.09-1.37,6.09-.22c.31.37-.5,1-1.63,1.85a10.49,10.49,0,0,1-1.45.94s-.23-.87-2.25-1.19c-.64-.1-4.62,2.58-6,3.27-2.46,1.25-3.43,3-3.55,2.83C742.19,643.65,743.07,641.17,743.07,641.17Z" style="fill:#194866"/><path d="M698.34,706.49l4.94-.2,40.08-2.85s3.6,1.08,5.84-4.61c3.19-8.09-1.36-48.45-1.36-48.45l-5.93.13L739,688.62s-28.13-9-34.51-6.77c-7.46,2.59-11.75,6.13-21.15,15.9-4.14,4.31,1.35,8,1.35,8Z" style="fill:#194866"/><path d="M653.21,665.54s6.77-8.47,12.42-3.39S691,683.07,697,684.9l1.36,22.23c-16.29,1.08-29.66-7.25-30.77-8.91C664,692.84,651,672.31,653.21,665.54Z" style="fill:#fec00f"/><path d="M672.83,693c-1.59-2.18-4.87-6.84-8.05-12.07-4-6.6-10.15-5.5-6.86,1a172.88,172.88,0,0,0,9.65,16.37c1.11,1.66,11.93,10,28.22,8.91l-1.59-2.25C682.55,703.77,673.86,694.36,672.83,693Z" style="fill:#f99b1c"/><path d="M662.87,701.77s2.45,2.63-8.64,1.51c-7.87-.8-7.69-.25-27.11-5.27l25.8.42S660.05,698.45,662.87,701.77Z" style="fill:#e9d6b8"/><path d="M635.77,699.64c-5.29-.39-7.72,1.85-9.86,2.45a36.75,36.75,0,0,0-4.31,1.56c1.31-2,3-1.91,3.92-2.51s.66-.29-1.22-.55c-1.06-.16-3.06,1.43-4.48,2.27a4.39,4.39,0,0,1-2,.75,21.92,21.92,0,0,1,3.32-2.9,26.72,26.72,0,0,1,5.54-2.92,22.71,22.71,0,0,1,7.2.31C636.74,698.66,639.57,699.92,635.77,699.64Z" style="fill:#e9d6b8"/><path d="M627,697.9a31.14,31.14,0,0,0-4.85,1.07c-.52.31-2.72,2.13-2.72,2.13a5.61,5.61,0,0,0,2.45-.8A47.19,47.19,0,0,1,627,697.9Z" style="fill:#e2c59c"/><path d="M657.08,697.37l-3.66-30.22s2.36-3,4.44-1.95,6.65,4.17,6.65,4.17,3.72,10.49,4.72,19.69c1.67,15.26.86,15.6-4.72,16.93-5.82,1.39-16.38,0-16.38,0l-2.34-8.64Z" style="fill:#fec00f"/><path d="M639,704.62a.05.05,0,0,0,0,0l0-1.16H590.65v1.2l.13.22c.62,1,1.73,1.19,3,1.19h42.05c1.28,0,2.4-.18,3-1.19Z" style="fill:#d1dbea"/><path d="M627.34,704.82s0,0,0,0l.11.18a2,2,0,0,0,.71.59h7.35c1.23,0,2.3-.15,2.9-1l.11-.18,0,0,0-.58H627.34Z" style="fill:#b6c2c9"/><rect x="596.66" y="703.69" width="24.15" height="0.83" style="fill:#b6c2c9"/><path d="M627.07,703.37l-6.27-23.74a1.58,1.58,0,0,0-1.43-1.14H585.46a.84.84,0,0,0-.83,1.14l6.26,23.74Z" style="fill:#cdd5d7"/><path d="M607.89,690.93a1.63,1.63,0,0,1-1.61,2.2,3,3,0,0,1-2.78-2.2,1.63,1.63,0,0,1,1.62-2.19A3,3,0,0,1,607.89,690.93Z" style="fill:#b6c2c9"/></g></svg>