<svg xmlns="http://www.w3.org/2000/svg" xmlns:xlink="http://www.w3.org/1999/xlink" viewBox="0 0 1920 1080"><defs><linearGradient id="a" x1="829.4" y1="137.25" x2="725.33" y2="433.04" gradientUnits="userSpaceOnUse"><stop offset="0" stop-color="#ffc444"/><stop offset="1" stop-color="#f36f56"/></linearGradient><linearGradient id="b" x1="684.31" y1="349.52" x2="808.43" y2="675.65" gradientUnits="userSpaceOnUse"><stop offset="0" stop-color="#e38ddd"/><stop offset="1" stop-color="#9571f6"/></linearGradient><linearGradient id="c" x1="643.13" y1="227.2" x2="889.3" y2="632.47" gradientUnits="userSpaceOnUse"><stop offset="0" stop-color="#aa80f9"/><stop offset="1" stop-color="#6165d7"/></linearGradient><linearGradient id="d" x1="665.67" y1="108.83" x2="837.41" y2="560.1" xlink:href="#b"/><clipPath id="f"><path d="M946,494.23l45.46-73.39s-29.09-37.13-66.8-35.6c-76.94,3.12-74.3-64.48-77.43-93-4.72-42.95-26.08-73.81-66.6-50.78-45.84,26.06-81.5-44-79.13-114.48,2.32-68.95-118.9-112.87-137.63,35.91-11.18,88.85,68.92,123.46,105.22,150.56s4.13,86.11,63.09,95.61c50.36,8.12,99.18-5.49,111.72,35.74S885.73,507.68,946,494.23Z" style="fill:url(#a)"/></clipPath><clipPath id="h"><path d="M914.57,469.78c16.22-16.79,38.75-14.49,54.78-10.28.72,2.12,1.67,3.17,2.86,5.14,10.77,17.86,11.55,27.77,19.38,47.05,1.69,4.15,2.93,17.83,3.08,23.45l.11,10.49s-41.8,33.76-63.51,12.24-65.49,5.5-90.44,17c-15.32,7-24.58,5.34-30.62,7-64,17.8-76.09,43.08-100.45,36.09-26.9-7.72-19.86-40.73-48.67-50.68-32.54-11.22-63.37,23.33-91.79,5.83-4.87-3-9.79-6.22-14.2-12.45-10.87-15.39-5.67-32.7-23.92-40.08-36.69-14.84-60.31-51.87-39.06-86.68,21-34.36,88-26,158,29.7,54.32,33.93,66.1,30.51,93,16.61,18.81-9.74,63.38-48.6,93.41-27S896,489,914.57,469.78Z" style="fill:url(#b)"/></clipPath><clipPath id="j"><path d="M986.61,459.57c.19,5.3,50.16,18.66,18.34,39.38-8,5.17-36.88,14.33-31.94,53l2.88,22.52c-15.72,9.17-32.23,14.91-42.36-6.69-15.74-33.54-74.46-23.95-93.59-10.57-23.69,16.56-79.59,53.91-104.69,2.46-20.9-42.83-26.15-74.95-81.59-68.32s-94.92-19.05-100.3-72.45c-5.66-56.2-82.89-89.34-67-139C514,193.25,646.83,243.55,697.7,333.81s74.59,29,119.11,18.41a79.37,79.37,0,0,1,18.66-1.12c48.78,2.92,64.93,50.69,109.2,79.49C1005,469.87,986.28,450.64,986.61,459.57Z" style="fill:url(#c)"/></clipPath><clipPath id="l"><path d="M716.79,477c12.41,19.88,4.72,41.26-3.27,55.86-2.25.18-3.49.86-5.71,1.54-20,6.15-29.85,4.52-50.52,7.47-4.45.63-18.08-1.48-23.59-2.69l-10.25-2.44s-22.74-48.9,3.49-64.83,10.52-65.12,5.41-92.2c-3.14-16.63.76-25.24.58-31.54-1.82-66.64-23.51-84.55-10.79-106.59,14-24.32,44.49-9.46,61.16-35.11,18.83-29-7.36-67.38,16.59-90.82,4.1-4,8.43-8,15.57-10.81,17.62-6.86,33.22,2.41,44.84-13.58,23.35-32.14,65.14-46.16,93.9-17,28.38,28.75,4,92-67.26,146.74-46.22,44.68-45.75,57-38.72,86.52,4.92,20.69,32,73.52,3.64,97.54S702.6,454.24,716.79,477Z" style="fill:url(#d)"/></clipPath><linearGradient id="m" x1="609.75" y1="433.51" x2="1321.18" y2="433.51" gradientUnits="userSpaceOnUse"><stop offset="0" stop-color="#fff"/><stop offset="1" stop-color="#ebeff2"/></linearGradient><clipPath id="n"><polygon points="1292.62 652.88 644.35 673.18 696.72 76.47 1452.96 76.47 1292.62 652.88" style="fill:none"/></clipPath><linearGradient id="o" x1="-1252.31" y1="114.66" x2="-1078.35" y2="114.66" gradientTransform="matrix(-0.78, -0.62, -0.62, 0.78, 250.4, -114.89)" gradientUnits="userSpaceOnUse"><stop offset="0" stop-color="#444b8c"/><stop offset="1" stop-color="#26264f"/></linearGradient><linearGradient id="p" x1="-908.34" y1="114.64" x2="-734.36" y2="114.64" xlink:href="#o"/><linearGradient id="q" x1="1030.24" y1="692.94" x2="1148.82" y2="692.94" xlink:href="#c"/><linearGradient id="r" x1="710.21" y1="485" x2="939.2" y2="485" xlink:href="#c"/><linearGradient id="s" x1="-1094.83" y1="-12.71" x2="-723.1" y2="-403.94" gradientTransform="matrix(-0.78, -0.62, -0.62, 0.78, 250.4, -114.89)" xlink:href="#a"/><linearGradient id="t" x1="-1124.98" y1="-41.36" x2="-753.26" y2="-432.58" gradientTransform="matrix(-0.78, -0.62, -0.62, 0.78, 250.4, -114.89)" xlink:href="#a"/><linearGradient id="u" x1="1159.18" y1="483.56" x2="1209.52" y2="292.8" xlink:href="#a"/><linearGradient id="v" x1="-1105.07" y1="-317.27" x2="-965.8" y2="-463.85" gradientTransform="matrix(-0.78, -0.62, -0.62, 0.78, 250.4, -114.89)" xlink:href="#a"/><linearGradient id="w" x1="-1117.07" y1="-165.82" x2="-869.65" y2="-165.82" gradientTransform="matrix(0, -1, -1, 0, 966.1, -621.32)" gradientUnits="userSpaceOnUse"><stop offset="0" stop-color="#ebeff2"/><stop offset="1" stop-color="#fff"/></linearGradient><linearGradient id="x" x1="-1117.07" y1="-161.76" x2="-869.65" y2="-161.76" gradientTransform="matrix(-0.78, -0.62, -0.62, 0.78, 250.4, -114.89)" xlink:href="#w"/><linearGradient id="y" x1="-954.91" y1="-244.89" x2="-1015.72" y2="-119.83" xlink:href="#w"/><linearGradient id="z" x1="-1101.12" y1="-8.56" x2="-916.91" y2="-277.39" gradientTransform="matrix(0, -1, -1, 0, 966.1, -621.32)" xlink:href="#o"/><linearGradient id="aa" x1="-1000.02" y1="225.32" x2="-992.37" y2="125.49" gradientTransform="matrix(0, -1, -1, 0, 1078.94, -387.12)" xlink:href="#a"/><linearGradient id="ab" x1="-1078.13" y1="154.21" x2="-908.55" y2="154.21" gradientTransform="matrix(-0.78, -0.62, -0.62, 0.78, 250.4, -114.89)" xlink:href="#c"/><linearGradient id="ac" x1="-982.07" y1="150.79" x2="-1023.76" y2="276.25" gradientTransform="matrix(0, -1, -1, 0, 1098.88, -346.64)" xlink:href="#c"/><linearGradient id="ad" x1="-984.77" y1="158.91" x2="-1016.45" y2="254.26" xlink:href="#o"/><linearGradient id="ae" x1="-1112.57" y1="-16.41" x2="-928.36" y2="-285.23" xlink:href="#o"/><clipPath id="af"><path d="M803.53,158.88C701.9,215.32,734.65,488.73,974.42,433.1c35.38-8.21,51.25-60.12,72.86-26.5,11.92,18.55,17.78,25.9,29.45,35.14,42.75,33.88,102.15,30.13,132.66-8.37S1457,84.13,1414.23,50.25c-18.81-14.9-185.51,2-272.89,35.77C1030.08,129,827.59,145.52,803.53,158.88Z" style="fill:none"/></clipPath><linearGradient id="ag" x1="-3249.14" y1="193.07" x2="-3312.06" y2="543.44" gradientTransform="matrix(-1, 0.08, 0.08, 1, -1940.45, 91.43)" gradientUnits="userSpaceOnUse"><stop offset="0" stop-color="#893976"/><stop offset="1" stop-color="#311944"/></linearGradient><linearGradient id="ah" x1="5745.1" y1="3397.44" x2="5682.18" y2="3747.83" gradientTransform="matrix(-0.15, -0.83, -0.98, 0.18, 5297.24, 4455.95)" xlink:href="#ag"/><linearGradient id="ai" x1="494.33" y1="593.44" x2="478.31" y2="499.11" gradientTransform="translate(613.3 73.83) rotate(5.76)" xlink:href="#c"/><linearGradient id="aj" x1="484.87" y1="556.82" x2="490.21" y2="501.06" gradientTransform="translate(613.3 73.83) rotate(5.76)" xlink:href="#a"/><linearGradient id="ak" x1="581.75" y1="578.6" x2="565.73" y2="484.27" gradientTransform="translate(613.3 73.83) rotate(5.76)" xlink:href="#c"/><linearGradient id="al" x1="569.85" y1="564.96" x2="575.18" y2="509.2" gradientTransform="translate(613.3 73.83) rotate(5.76)" xlink:href="#a"/><linearGradient id="am" x1="1168.17" y1="461.17" x2="1055.07" y2="611.26" gradientTransform="matrix(1, 0, 0, 1, 0, 0)" xlink:href="#ag"/><linearGradient id="an" x1="473.54" y1="542.27" x2="556.59" y2="230.23" gradientTransform="translate(613.3 73.83) rotate(5.76)" xlink:href="#o"/><linearGradient id="ao" x1="655.31" y1="6.03" x2="474.66" y2="244.87" gradientTransform="translate(613.3 73.83) rotate(5.76)" xlink:href="#b"/><linearGradient id="ap" x1="1133.76" y1="264.68" x2="1173.5" y2="154.73" gradientTransform="matrix(1, 0, 0, 1, 0, 0)" xlink:href="#ag"/><linearGradient id="aq" x1="-4191.15" y1="-770.63" x2="-4208.13" y2="-813.75" gradientTransform="matrix(-1, 0, 0, 1, -3047.73, 987.91)" gradientUnits="userSpaceOnUse"><stop offset="0" stop-color="#444b8c"/><stop offset="1" stop-color="#3e4177"/></linearGradient><linearGradient id="ar" x1="-2523.04" y1="2406.93" x2="-2585.96" y2="2757.32" gradientTransform="matrix(-0.88, 0.48, 0.48, 0.88, -1268.89, 451.4)" xlink:href="#ag"/><linearGradient id="as" x1="654.29" y1="5.24" x2="473.62" y2="244.1" gradientTransform="translate(613.3 73.83) rotate(5.76)" xlink:href="#c"/><linearGradient id="at" x1="1000.99" y1="222.66" x2="885.2" y2="189.9" gradientUnits="userSpaceOnUse"><stop offset="0" stop-color="#311944"/><stop offset="1" stop-color="#a03976"/></linearGradient><linearGradient id="au" x1="1000.68" y1="223.73" x2="884.9" y2="190.97" xlink:href="#at"/><linearGradient id="av" x1="882.17" y1="149.49" x2="883.98" y2="295.7" gradientUnits="userSpaceOnUse"><stop offset="0" stop-color="#ff9085"/><stop offset="1" stop-color="#fb6fbb"/></linearGradient><linearGradient id="aw" x1="987.94" y1="390.87" x2="761.13" y2="326.69" xlink:href="#at"/><linearGradient id="ax" x1="987.35" y1="392.97" x2="760.53" y2="328.79" xlink:href="#at"/><linearGradient id="ay" x1="755.19" y1="247.54" x2="758.73" y2="533.95" xlink:href="#av"/><linearGradient id="az" x1="784.12" y1="990.97" x2="797.14" y2="1002.55" gradientTransform="matrix(-0.99, -0.14, -0.14, 0.99, 1722, 68.75)" xlink:href="#o"/><linearGradient id="ba" x1="365.42" y1="1419.14" x2="365.42" y2="1396.46" gradientTransform="matrix(-1, 0.05, 0.05, 1, 1087.44, -485.8)" xlink:href="#a"/><linearGradient id="bb" x1="785.42" y1="989.5" x2="798.45" y2="1001.08" gradientTransform="matrix(-0.99, -0.14, -0.14, 0.99, 1722, 68.75)" xlink:href="#o"/><linearGradient id="bc" x1="946.87" y1="948.09" x2="959.9" y2="959.68" gradientTransform="matrix(-1, 0, 0, 1, 1794.48, 0)" xlink:href="#o"/><linearGradient id="bd" x1="592.16" y1="1304.99" x2="592.16" y2="1282.3" gradientTransform="matrix(-0.98, 0.19, 0.19, 0.98, 1164.27, -434.22)" xlink:href="#a"/><linearGradient id="be" x1="948.18" y1="946.62" x2="961.21" y2="958.21" gradientTransform="matrix(-1, 0, 0, 1, 1794.48, 0)" xlink:href="#o"/><linearGradient id="bf" x1="743.76" y1="709.65" x2="828.49" y2="709.65" xlink:href="#av"/><linearGradient id="bg" x1="-1631.96" y1="704.61" x2="-1639.92" y2="740.94" gradientTransform="matrix(-1, 0, 0, 1, -814.6, 0)" xlink:href="#a"/><linearGradient id="bh" x1="-1560.03" y1="701.48" x2="-1467.97" y2="789.38" gradientTransform="matrix(-1, 0, 0, 1, -814.6, 0)" xlink:href="#b"/><linearGradient id="bi" x1="1868.84" y1="892.25" x2="1926.26" y2="964.5" gradientTransform="matrix(-0.97, 0.26, 0.26, 0.97, 2298.65, -737.6)" xlink:href="#a"/><linearGradient id="bj" x1="1871.59" y1="888.62" x2="1935.7" y2="969.28" gradientTransform="matrix(-0.97, 0.26, 0.26, 0.97, 2298.65, -737.6)" xlink:href="#a"/><linearGradient id="bk" x1="-1594.02" y1="737.07" x2="-1501.96" y2="824.97" gradientTransform="matrix(-1, 0, 0, 1, -814.6, 0)" xlink:href="#b"/><linearGradient id="bl" x1="-1580.25" y1="722.66" x2="-1488.2" y2="810.56" gradientTransform="matrix(-1, 0, 0, 1, -814.6, 0)" xlink:href="#b"/><linearGradient id="bm" x1="-1496.69" y1="805.2" x2="-1572.15" y2="859.1" gradientTransform="matrix(-1, 0, 0, 1, -814.6, 0)" xlink:href="#o"/><linearGradient id="bn" x1="-1659.45" y1="871.21" x2="-1472.57" y2="871.21" gradientTransform="matrix(-1, 0, 0, 1, -814.6, 0)" xlink:href="#o"/><linearGradient id="bo" x1="623.72" y1="994.21" x2="763.64" y2="994.21" gradientTransform="matrix(1, 0, 0, 1, 0, 0)" xlink:href="#o"/><linearGradient id="bp" x1="623.72" y1="984.72" x2="763.64" y2="984.72" xlink:href="#c"/><linearGradient id="bq" x1="-2019.71" y1="977.85" x2="-1902.15" y2="977.85" gradientTransform="matrix(-1, 0, 0, 1, -1278.42, 0)" xlink:href="#c"/><linearGradient id="br" x1="-1979.88" y1="923.52" x2="-1964.33" y2="923.52" gradientTransform="matrix(-1, 0, 0, 1, -1278.42, 0)" xlink:href="#c"/><linearGradient id="bs" x1="-1894.88" y1="906.98" x2="-1923.4" y2="869.81" gradientTransform="matrix(-1, 0, 0, 1, -1278.42, 0)" gradientUnits="userSpaceOnUse"><stop offset="0" stop-color="#311944"/><stop offset="1" stop-color="#893976"/></linearGradient><linearGradient id="bt" x1="1789.83" y1="885.42" x2="1794.88" y2="949.67" gradientTransform="translate(-626.26)" gradientUnits="userSpaceOnUse"><stop offset="0" stop-color="#26264f"/><stop offset="1" stop-color="#444b8c"/></linearGradient><linearGradient id="bu" x1="724.83" y1="709.89" x2="723.77" y2="633.05" gradientTransform="translate(582.64 97.51) rotate(9.85)" xlink:href="#a"/><linearGradient id="bv" x1="1726.69" y1="881.12" x2="1731.74" y2="945.37" xlink:href="#bt"/><linearGradient id="bw" x1="661.89" y1="716.46" x2="660.83" y2="639.61" gradientTransform="translate(582.64 97.51) rotate(9.85)" xlink:href="#a"/><linearGradient id="bx" x1="1289.2" y1="749" x2="1260.38" y2="791.88" gradientTransform="matrix(1, 0, 0, 1, 0, 0)" xlink:href="#ag"/><linearGradient id="by" x1="1106.35" y1="843.43" x2="1313.23" y2="843.43" gradientTransform="matrix(1, 0, 0, 1, 0, 0)" xlink:href="#ag"/><linearGradient id="bz" x1="1055.61" y1="685.19" x2="1150.6" y2="685.19" xlink:href="#av"/><linearGradient id="ca" x1="1051.83" y1="976.55" x2="1205.54" y2="976.55" gradientTransform="matrix(1, -0.01, 0.01, 1, -11.46, -242.8)" xlink:href="#o"/><linearGradient id="cb" x1="1195.75" y1="606.73" x2="1492.89" y2="1146.21" xlink:href="#a"/><linearGradient id="cc" x1="1106.87" y1="715.82" x2="1104.77" y2="725.41" xlink:href="#a"/><linearGradient id="cd" x1="4536.48" y1="160.99" x2="4593.9" y2="233.24" gradientTransform="translate(-3113.25 -737.6) rotate(14.93)" xlink:href="#a"/><linearGradient id="ce" x1="4539.23" y1="157.36" x2="4603.34" y2="238.02" gradientTransform="translate(-3113.25 -737.6) rotate(14.93)" xlink:href="#a"/><linearGradient id="cf" x1="1191.78" y1="714.55" x2="1283.84" y2="802.46" xlink:href="#av"/><linearGradient id="cg" x1="1146.17" y1="634.04" x2="1443.31" y2="1173.52" xlink:href="#a"/><linearGradient id="ch" x1="1197.54" y1="961.61" x2="1337.46" y2="961.61" gradientTransform="matrix(1, 0, 0, 1, 0, 0)" xlink:href="#o"/><linearGradient id="ci" x1="1197.54" y1="952.12" x2="1337.46" y2="952.12" xlink:href="#c"/><linearGradient id="cj" x1="1294.22" y1="945.26" x2="1411.79" y2="945.26" gradientTransform="translate(-74.33)" xlink:href="#c"/><linearGradient id="ck" x1="1334.05" y1="890.92" x2="1349.61" y2="890.92" gradientTransform="translate(-74.33)" xlink:href="#c"/><linearGradient id="cl" x1="1419.06" y1="874.38" x2="1390.54" y2="837.21" gradientTransform="translate(-74.33)" xlink:href="#bs"/></defs><g style="isolation:isolate"><path d="M968.28,46.27C867,86.56,857.25,189.55,766,198.38c-79.49,7.71-109.7-66.84-165.48-53.48-85,20.34-138.38,222.91-104.26,389.46,35.24,172,183.28,400.61,428.54,416.22,275.36,17.51,483.7-245.54,496.43-476.39,1.37-25,9.5-234.14-150.42-357.71C1262.84,110.31,1105.25-8.19,968.28,46.27Z" style="fill:#f4f7fa"/><g style="opacity:0.4;mix-blend-mode:soft-light"><path d="M946,494.23l45.46-73.39s-29.09-37.13-66.8-35.6c-76.94,3.12-74.3-64.48-77.43-93-4.72-42.95-26.08-73.81-66.6-50.78-45.84,26.06-81.5-44-79.13-114.48,2.32-68.95-118.9-112.87-137.63,35.91-11.18,88.85,68.92,123.46,105.22,150.56s4.13,86.11,63.09,95.61c50.36,8.12,99.18-5.49,111.72,35.74S885.73,507.68,946,494.23Z" style="fill:url(#a)"/><g style="clip-path:url(#f)"><path d="M972.47,466.69l.66-1.7c-1-.41-106.13-42-197.87-114.64C690.75,283.43,600.59,175.7,651,42.49l-1.7-.65c-22.46,59.3-19.41,118.57,9.08,176.15,22.75,46,61.69,91,115.74,133.81C866.11,424.6,971.41,466.27,972.47,466.69Z" style="fill:#fff"/><path d="M671.36,241.54l.76-1.66C617,214.56,556.39,150,555.78,149.4l-1.33,1.24C555.06,151.29,615.92,216.07,671.36,241.54Z" style="fill:#fff"/><path d="M653.43,202.65C653.24,130.37,699,91.3,699.48,90.92l-1.17-1.4c-.47.39-46.89,40-46.7,113.14Z" style="fill:#fff"/><path d="M837.83,394.57c-62.32-62.56-18.7-173-18.19-174l-1.57-.91c-.6,1-44.41,113.13,18.46,176.25Z" style="fill:#fff"/><path d="M806.58,375.88l.62-1.71c-52.94-19.3-116.72,11.59-117.36,11.9l.8,1.64C691.28,387.4,754.37,356.85,806.58,375.88Z" style="fill:#fff"/><path d="M956.74,458.08c-27-19.84-24.42-74.38-24.39-74.92l-1.82-.1c-.12,2.28-2.71,56.06,25.13,76.49Z" style="fill:#fff"/><path d="M931.72,448.57l.69-1.69c-24.58-10-70.15,8.29-85.12,14.29-2.12.85-3.95,1.58-4.3,1.65l.31,1.79a42.63,42.63,0,0,0,4.66-1.75C862.77,456.93,907.83,438.87,931.72,448.57Z" style="fill:#fff"/></g></g><g style="opacity:0.4;mix-blend-mode:soft-light"><path d="M914.57,469.78c16.22-16.79,38.75-14.49,54.78-10.28.72,2.12,1.67,3.17,2.86,5.14,10.77,17.86,11.55,27.77,19.38,47.05,1.69,4.15,2.93,17.83,3.08,23.45l.11,10.49s-41.8,33.76-63.51,12.24-65.49,5.5-90.44,17c-15.32,7-24.58,5.34-30.62,7-64,17.8-76.09,43.08-100.45,36.09-26.9-7.72-19.86-40.73-48.67-50.68-32.54-11.22-63.37,23.33-91.79,5.83-4.87-3-9.79-6.22-14.2-12.45-10.87-15.39-5.67-32.7-23.92-40.08-36.69-14.84-60.31-51.87-39.06-86.68,21-34.36,88-26,158,29.7,54.32,33.93,66.1,30.51,93,16.61,18.81-9.74,63.38-48.6,93.41-27S896,489,914.57,469.78Z" style="fill:url(#b)"/><g style="clip-path:url(#h)"><path d="M988.94,501.14l.31,1.5c-8.28,1.79-16.65,3.48-24.88,5C903.45,519.13,843.61,524,786.51,522.23a673.62,673.62,0,0,1-140-18.86,579.22,579.22,0,0,1-102-35.28A479.71,479.71,0,0,1,482.22,434c-3.3-2.16-6.58-4.56-9.75-6.88-4.21-3.09-8.58-6.29-13.05-8.94l.66-1.33c4.54,2.67,8.93,5.9,13.18,9,3.15,2.31,6.41,4.7,9.68,6.84a479.81,479.81,0,0,0,62.18,34,578.41,578.41,0,0,0,101.72,35.2A672.36,672.36,0,0,0,786.52,520.7c57,1.79,116.75-3.1,177.58-14.54C972.32,504.61,980.67,502.92,988.94,501.14Z" style="fill:#fff"/><path d="M701.43,512.85l-.14,1.52C640.5,506.65,552,564.61,551.1,565.19l-.76-1.31C551.23,563.29,640.15,505.07,701.43,512.85Z" style="fill:#fff"/><path d="M872.91,518.43l0,1.53c-41.78-.05-95.58-65.45-96.12-66.11l1.07-1C778.43,453.51,831.79,518.38,872.91,518.43Z" style="fill:#fff"/><path d="M896.58,516.25l.28,1.51c-26.74,5.16-60.33,27.63-94.57,63.29-1.72,1.79-1.72,1.79-2,1.84l-.3-1.5.15.75-.4-.64c.13-.11.78-.78,1.53-1.57C835.73,544.08,869.57,521.46,896.58,516.25Z" style="fill:#fff"/><path d="M973.79,504.17l-.13,1.52c-29.92-3.67-54.61-44.18-54.85-44.59l1.18-.81C920.24,460.69,944.55,500.59,973.79,504.17Z" style="fill:#fff"/><path d="M989.76,503.3c-20.44,13.5-37.81,33.85-53.11,62.2l-1.24-.79c15.42-28.57,33-49.09,53.59-62.72Z" style="fill:#fff"/><path d="M564,474.94l-.22,1.51c-33.62-6.32-70.12-4.59-82.12-4-2.9.14-3.93.19-4.29.14l.16-1.52c.27,0,1.93-.05,4-.15C493.62,470.33,530.24,468.6,564,474.94Z" style="fill:#fff"/><path d="M617.45,493.87l-.62,1.37c-28.71-15.62-49.52-81-50.39-83.77l1.35-.46C568,411.69,589.27,478.55,617.45,493.87Z" style="fill:#fff"/></g></g><g style="opacity:0.4;mix-blend-mode:soft-light"><path d="M986.61,459.57c.19,5.3,50.16,18.66,18.34,39.38-8,5.17-36.88,14.33-31.94,53l2.88,22.52c-15.72,9.17-32.23,14.91-42.36-6.69-15.74-33.54-74.46-23.95-93.59-10.57-23.69,16.56-79.59,53.91-104.69,2.46-20.9-42.83-26.15-74.95-81.59-68.32s-94.92-19.05-100.3-72.45c-5.66-56.2-82.89-89.34-67-139C514,193.25,646.83,243.55,697.7,333.81s74.59,29,119.11,18.41a79.37,79.37,0,0,1,18.66-1.12c48.78,2.92,64.93,50.69,109.2,79.49C1005,469.87,986.28,450.64,986.61,459.57Z" style="fill:url(#c)"/><g style="clip-path:url(#j)"><path d="M960.39,506.88l-.07,2.66c-183.58-6.92-363.54-108.18-469.67-264.28l2-1.55C598.37,399.15,777.58,500,960.39,506.88Z" style="fill:#fcfdfe"/><path d="M860.57,494l.42,2.62c-71.16,12.43-116.26,86.72-116.71,87.47l-2.13-1.44C742.61,581.93,788.29,506.65,860.57,494Z" style="fill:#fcfdfe"/><path d="M926.65,504.63l-.81,2.52C856.53,481.91,825.26,344.48,825,343.1l2.45-.6C827.7,343.87,858.66,479.88,926.65,504.63Z" style="fill:#fcfdfe"/><path d="M691.48,427.67l-.6,2.58c-56.37-15-131.33,35.47-132.09,36L557.43,464C558.19,463.47,634.06,412.41,691.48,427.67Z" style="fill:#fcfdfe"/><path d="M594.49,358.49l-1.89,1.75c-43.59-52.95-39.36-147.5-39.31-148.45l2.51.16C555.75,212.89,551.58,306.37,594.49,358.49Z" style="fill:#fcfdfe"/></g></g><g style="opacity:0.5;mix-blend-mode:soft-light"><path d="M716.79,477c12.41,19.88,4.72,41.26-3.27,55.86-2.25.18-3.49.86-5.71,1.54-20,6.15-29.85,4.52-50.52,7.47-4.45.63-18.08-1.48-23.59-2.69l-10.25-2.44s-22.74-48.9,3.49-64.83,10.52-65.12,5.41-92.2c-3.14-16.63.76-25.24.58-31.54-1.82-66.64-23.51-84.55-10.79-106.59,14-24.32,44.49-9.46,61.16-35.11,18.83-29-7.36-67.38,16.59-90.82,4.1-4,8.43-8,15.57-10.81,17.62-6.86,33.22,2.41,44.84-13.58,23.35-32.14,65.14-46.16,93.9-17,28.38,28.75,4,92-67.26,146.74-46.22,44.68-45.75,57-38.72,86.52,4.92,20.69,32,73.52,3.64,97.54S702.6,454.24,716.79,477Z" style="fill:url(#d)"/><g style="clip-path:url(#l)"><path d="M668.21,541.8l-1.54-.07c.27-8.49.65-17.05,1.14-25.44,3.61-62.12,13.35-121.59,29-176.77a676.37,676.37,0,0,1,52.31-131.76A581,581,0,0,1,808.17,117,482.42,482.42,0,0,1,856.5,64.53c2.9-2.7,6-5.3,9.07-7.82,4-3.36,8.21-6.84,11.87-10.55l1.14,1c-3.71,3.77-7.91,7.26-12,10.65-3,2.5-6.13,5.1-9,7.77a479.53,479.53,0,0,0-48.19,52.32,580.44,580.44,0,0,0-59,90.54,674.48,674.48,0,0,0-52.2,131.49C682.67,395,673,454.36,669.34,516.39,668.86,524.77,668.47,533.31,668.21,541.8Z" style="fill:#fff"/><path d="M726.53,258.92l-1.45-.5C747.34,201.07,712.36,100.81,712,99.8l1.46-.42C713.82,100.39,749,201.11,726.53,258.92Z" style="fill:#fff"/><path d="M679.51,424.6l-1.5-.34c10.18-40.68,86.92-77.22,87.7-77.59l.71,1.28C765.65,348.31,689.53,384.55,679.51,424.6Z" style="fill:#fff"/><path d="M675.89,448.17l-1.54-.09c1.46-27.3-12.29-65.46-38.71-107.46-1.33-2.11-1.33-2.11-1.32-2.38l1.54.08-.77,0,.72-.23c.08.15.58.94,1.16,1.87C663.54,382.16,677.36,420.6,675.89,448.17Z" style="fill:#fff"/><path d="M668.93,526.31l-1.45-.5c10.83-28.25,56.28-42.47,56.73-42.61l.51,1.35C724.26,484.69,679.51,498.7,668.93,526.31Z" style="fill:#fff"/><path d="M665.9,542.08c-8.19-23.18-23.79-45-47.7-66.82l1.07-1c24.09,21.95,39.82,44,48.09,67.41Z" style="fill:#fff"/><path d="M796.78,134.27l-1.42-.57c14.31-31.22,21.48-67.19,23.84-79,.57-2.86.77-3.86.91-4.2l1.44.52c-.1.26-.43,1.89-.84,4C818.35,66.82,811.15,102.91,796.78,134.27Z" style="fill:#fff"/><path d="M765.38,181.73l-1.18-.94C786.37,156.61,855.09,152.2,858,152l.12,1.42C857.42,153.49,787.14,158,765.38,181.73Z" style="fill:#fff"/></g></g><path d="M1322,210.53c0-17.78-11.82-33-27.43-36.84-.55-.14-1.17-.26-1.74-.37a32.44,32.44,0,0,0-5.25-.58L957.33,163.2l-330.28-9.54c-.7,0-1.4,0-2.09,0a39.43,39.43,0,0,0-23.47,8.28l-.36.28a35.19,35.19,0,0,0-2.68,2.35.15.15,0,0,0-.06.05c-.51.49-1,1-1.48,1.51a38.8,38.8,0,0,0-10.42,26.6V221.6h0v453a39.12,39.12,0,0,0,1.28,10,38.42,38.42,0,0,0,31,28.21,40.89,40.89,0,0,0,8.25.54L1130.7,695h0l157-5.73c18.93-.7,34.33-17.73,34.33-38.05V236.92h0Z" style="fill:#d8dee8"/><path d="M1297.85,172.74,637.31,153.66a39.05,39.05,0,0,0-40.55,39.07V674.59a38.69,38.69,0,0,0,40.55,38.76l660.54-24.13c18.94-.7,34.22-17.73,34.22-38.05V210.53C1332.07,190.21,1316.79,173.29,1297.85,172.74Z" style="fill:#fff"/><path d="M637.31,700.56a26.37,26.37,0,0,1-27.56-26.38V193.05a26.62,26.62,0,0,1,27.56-26.6l660.54,18.09c12.88.36,23.33,11.89,23.33,25.72V651.52c0,13.83-10.45,25.44-23.33,25.9Z" style="fill:url(#m)"/><path d="M1297.85,172.74,637.31,153.66a39.05,39.05,0,0,0-40.55,39.07V221.6l735.31,15.32V210.53C1332.07,190.21,1316.79,173.29,1297.85,172.74Z" style="fill:#d8dee8"/><path d="M668.83,190.61a12.74,12.74,0,0,1-13.13,12.76A13.51,13.51,0,0,1,642.53,190a12.73,12.73,0,0,1,13.17-12.75A13.51,13.51,0,0,1,668.83,190.61Z" style="fill:#fff"/><path d="M714.64,191.74a12.64,12.64,0,0,1-13,12.69,13.41,13.41,0,0,1-13-13.33,12.63,12.63,0,0,1,13-12.69A13.41,13.41,0,0,1,714.64,191.74Z" style="fill:#fff"/><path d="M760,192.86a12.54,12.54,0,0,1-12.86,12.62,13.3,13.3,0,0,1-12.89-13.26A12.53,12.53,0,0,1,747.1,179.6,13.3,13.3,0,0,1,760,192.86Z" style="fill:#fff"/><polygon points="1292.13 652.62 644.02 673.28 644.02 294.81 1292.13 302.84 1292.13 652.62" style="fill:#bfc8d6"/><g style="opacity:0.5"><polygon points="994.28 261.56 644.02 255.61 644.02 276.06 994.28 281.17 994.28 261.56" style="fill:#fff"/><polygon points="1255.51 266 1255.51 284.98 1292.13 285.51 1292.13 266.62 1255.51 266" style="fill:#fff"/></g><g style="opacity:0.5;mix-blend-mode:soft-light"><path d="M1042.45,419.1c-77.07-110.86-210.86-74.6-295.73-197.53a267.77,267.77,0,0,1-32.87-65.7l-76.54-2.21a39.05,39.05,0,0,0-40.55,39.07V674.59a38.69,38.69,0,0,0,40.55,38.76L1141,695a411.41,411.41,0,0,1-40.45-71.57C1055.64,521.3,1088.88,485.88,1042.45,419.1Z" style="fill:#fff"/></g><g style="clip-path:url(#n)"><path d="M1103.43,584.55S1180.33,671,1114.74,810a18.5,18.5,0,0,1-32,2.43l-51.14-75.48a51.82,51.82,0,0,1-7.46-41.3l17.7-72.92Z" style="fill:url(#o)"/><path d="M931.6,448.39s-101.77-55.1-222,40.52a18.5,18.5,0,0,0,5,31.74l85.16,32.53A51.84,51.84,0,0,0,841.61,551l66.95-33.91Z" style="fill:url(#p)"/><path d="M1111,575s76.9,86.47,11.31,225.41a18.51,18.51,0,0,1-32,2.43l-51.14-75.48a51.82,51.82,0,0,1-7.46-41.3l17.7-72.93Z" style="fill:url(#q)"/><path d="M939.2,438.8s-101.77-55.1-222,40.51a18.51,18.51,0,0,0,5,31.75l85.16,32.53a51.8,51.8,0,0,0,41.92-2.18l66.95-33.9Z" style="fill:url(#r)"/><path d="M1019.59,221.16c108-109,286.8-69.6,286.9-69.38.23,0,79.45,165.13-2,295.16-73.85,117.94-238,203.6-269.56,219.29-3.4,1.69-8.9,4-10.92.79-39.18-62.4-91.72-101.84-154.8-122.59-3.49-1.15-2.4-6.95-1.56-10.52C875.62,500.08,921.47,320.2,1019.59,221.16Z" style="fill:url(#s)"/><g style="opacity:0.30000000000000004;mix-blend-mode:multiply"><path d="M1089.12,386c60.42-60.49,117.08-35.67,175.44-88.38,21.31-19.25,44.62-50.44,57.73-104.34,18.08,57.34,38.45,163.84-17.77,253.63-73.85,117.94-238,203.6-269.56,219.29-3.4,1.69-8.9,4-10.92.79-19.79-31.52-43-57.18-69.25-77.54a196.26,196.26,0,0,0,51.1-43C1054.52,488.36,1034.06,441.15,1089.12,386Z" style="fill:url(#t)"/></g><path d="M1235.23,241.71c-41.58-33-92.78-62.78-138.58-72.15,86.51-36.69,181-23.19,204.38-18.89a10.61,10.61,0,0,1,7.79,6.17c9.53,21.79,44.27,110.68,28.33,203.29C1320.76,322.17,1276.81,274.66,1235.23,241.71Z" style="fill:url(#u)"/><path d="M1322.29,193.32l.26.8c.14.46.28.92.43,1.38s.28.93.43,1.4.27.89.4,1.34l.45,1.5.39,1.3c.16.53.31,1.07.47,1.61s.24.83.36,1.26.33,1.13.49,1.71c.11.4.23.81.34,1.22l.51,1.81c.1.39.21.78.32,1.18l.51,1.91c.11.38.21.77.31,1.15.18.66.35,1.32.52,2,.1.37.2.75.29,1.13.18.69.36,1.38.53,2.08l.27,1.09.54,2.17c.08.36.17.71.25,1.07l.54,2.25.24,1c.18.77.36,1.55.53,2.33.08.34.15.67.23,1,.18.8.36,1.6.53,2.41l.21,1c.18.82.36,1.65.53,2.48.07.33.13.65.2,1,.17.85.35,1.7.52,2.56l.18.94.51,2.63c.06.31.12.61.17.91.17.9.34,1.8.5,2.71.06.3.11.59.16.89.17.92.33,1.85.49,2.78,0,.28.09.57.14.85l.48,2.86c0,.27.08.55.13.82l.45,2.93.12.8c.15,1,.3,2,.44,3,0,.26.07.52.11.78.14,1,.28,2,.41,3,0,.25.07.5.1.75.13,1,.27,2.08.39,3.12l.09.73c.12,1.05.25,2.12.36,3.18,0,.23.05.46.08.69.12,1.08.23,2.17.34,3.25l.06.66c.11,1.11.21,2.21.31,3.32l.06.62c.09,1.13.19,2.26.28,3.39,0,.2,0,.4,0,.59.09,1.15.17,2.3.24,3.46,0,.18,0,.36,0,.55l.21,3.51,0,.53c.06,1.19.12,2.38.17,3.57,0,.16,0,.32,0,.48,0,1.21.1,2.43.13,3.65,0,.14,0,.29,0,.43,0,1.24.06,2.48.08,3.72,0,.13,0,.26,0,.39,0,1.26,0,2.52,0,3.79v.32c0,1.29,0,2.58,0,3.88v.26q0,2-.06,4a1.28,1.28,0,0,1,0,.19c0,1.34-.06,2.7-.11,4.05a.38.38,0,0,1,0,.1,287.29,287.29,0,0,1-3.92,38.59c-10.48-24.26-32.22-52.42-57.39-78.19C1296.26,262.47,1312.26,234.54,1322.29,193.32Z" style="opacity:0.30000000000000004;mix-blend-mode:multiply;fill:url(#v)"/><ellipse cx="1131.97" cy="372.02" rx="111.41" ry="123.7" transform="translate(137.38 1028.19) rotate(-51.61)" style="fill:url(#w)"/><path d="M1089.12,386c49.31-49.37,96.1-41.93,143.37-66.16,25.26,41.11,25.47,92.34-3.56,129-38.22,48.22-112.6,52.92-166.15,10.49a136.9,136.9,0,0,1-12.3-11C1057.56,428,1067.54,407.63,1089.12,386Z" style="mix-blend-mode:multiply;fill:url(#x)"/><ellipse cx="1131.97" cy="372.02" rx="102.12" ry="113.39" transform="translate(137.38 1028.18) rotate(-51.61)" style="fill:url(#y)"/><ellipse cx="1131.97" cy="372.02" rx="88.95" ry="98.77" transform="translate(137.38 1028.18) rotate(-51.61)" style="fill:url(#z)"/><ellipse cx="946.2" cy="605.81" rx="30.4" ry="102.88" transform="translate(-116.26 971.17) rotate(-51.61)" style="fill:url(#aa)"/><path d="M938.45,580.69l34.61,27.42a57.7,57.7,0,0,1,19.55,61.44l-6.26,21.39a11.56,11.56,0,0,1-18.28,5.82L853.3,605.82a11.57,11.57,0,0,1,1.48-19.13l19.4-11A57.69,57.69,0,0,1,938.45,580.69Z" style="fill:url(#ab)"/><ellipse cx="914.31" cy="646.67" rx="28.68" ry="84.91" transform="translate(-160.37 961.66) rotate(-51.61)" style="fill:url(#ac)"/><path d="M863.73,606.6c-7.48,9.44,9.1,35,37,57.16s56.63,32.43,64.11,23-9.1-35-37-57.16S871.21,597.16,863.73,606.6Z" style="fill:url(#ad)"/><g style="opacity:0.30000000000000004;mix-blend-mode:color-burn"><path d="M1089.12,386c41.94-42,82.06-42.88,122.19-57.12,21.08,33.07,21.61,74.76-1.92,104.46-30.51,38.5-89.91,42.25-132.66,8.37a109.29,109.29,0,0,1-16.62-16.31A153.85,153.85,0,0,1,1089.12,386Z" style="fill:url(#ae)"/></g><g style="clip-path:url(#af)"><path d="M1330.45,153.26s5-7.45,8.16-12.93,18.52-21.44,18.52-21.44,1.45,2.22-1.82,6.22-10.26,11-8.32,13.51,7,4.53,3.9,9.89-9.48,2.39-12.26,6.71-5.63,9-5.63,9Z" style="fill:url(#ag)"/><path d="M922.67,318.74s-8.09,3-14.89,5.62-11.26,8.83-16.46,12.15,1.56,3.15,5.74,3.05,12.46-2.27,14.82-5.63,4.47-6,5.07-6,9.93-3.69,9.93-3.69Z" style="fill:url(#ah)"/><path d="M1035.06,678a6.26,6.26,0,0,1,2-5.56c2.28-1.92,5.73-1.39,7.81-.19,1.21.71,2.1,1.72,4.85,9.34,2.91,8,2.77,9.29,2.11,9.93-1.35,1.3-4.62-.09-5.33-.39-2.34-1-2.82-2.2-7.34-7.38C1036.07,680.23,1035.28,679.64,1035.06,678Z" style="fill:url(#ai)"/><path d="M1038.62,666.22l0,9c1.92,1.26,3.19,1.3,4,.4l2.6-8.73Z" style="fill:url(#aj)"/><path d="M1122.64,685.7a6.28,6.28,0,0,1-.81-5.84c1.14-2.76,4.45-3.88,6.84-3.77,1.4.07,2.66.56,8.62,6,6.29,5.8,6.73,7,6.44,7.84-.59,1.78-4.14,2-4.91,2.11-2.54.2-3.52-.65-9.91-3.16C1124.58,687.22,1123.6,687.06,1122.64,685.7Z" style="fill:url(#ak)"/><path d="M1124.73,670.89l0,9c1.92,1.26,3.19,1.3,4,.4l2.6-8.73Z" style="fill:url(#al)"/><path d="M1036.17,667.74l9.55,1.54q15.18-48.59,32.64-99.25,19.17-55.49,39.09-107.35c1.69,13.84,3.13,30,3.72,48,.87,26.76-.45,47.06-.84,52.68-2,28.73-4.86,31.87-5.48,49.87-.49,14.15.47,35.11,8.13,61.23l9.22.37a705.31,705.31,0,0,0,30.9-256.26l-83.49-5.81a198.43,198.43,0,0,0-19.39,46c-6.38,23-5.08,34.74-12.11,74.24-3.64,20.42-5.11,23.56-7.62,37.11C1036.33,592.57,1032.71,625.22,1036.17,667.74Z" style="fill:url(#am)"/><path d="M1062.57,590.63c5.24-26.64-4.52-27.07,2.34-49.85,6.32-21,15.49-23.63,24.75-50.27,7.43-21.39,3.93-26.59,9-35.77,6.24-11.34,22.27-22.78,65.14-24-.2-4.15-.42-8.22-.67-12.16l-83.49-5.81a198.43,198.43,0,0,0-19.39,46c-6.38,23-5.08,34.74-12.11,74.24-3.64,20.42-5.11,23.56-7.62,37.11-4.16,22.44-7.78,55.09-4.32,97.61l9.55,1.54c.29-.94.6-1.89.9-2.84a41.55,41.55,0,0,1-3.28-9.32C1038.49,634.83,1056,623.93,1062.57,590.63Z" style="opacity:0.30000000000000004;mix-blend-mode:multiply;fill:url(#an)"/><path d="M920.11,316.52l5.3,10.6a201.63,201.63,0,0,0,35.77-11.92c23.16-10.23,27.23-17.31,49-25.17,15-5.4,34.13-12,47.69-2.65a28.7,28.7,0,0,1,9.38,11.39c-1.82,17.52-3.8,31.45-4.83,40.07-9.12,76.11-10.43,90-1.07,98.59,8.14,7.49,13.69,1.22,53.62,6,36.42,4.38,43.51,11,53.45,5.24,16.13-9.36,12.89-35.76,16.38-68,2.88-26.59,11.06-63.81,35-107.82a151.67,151.67,0,0,0,65.9-30.54c36.4-29.35,48.13-67.16,51.67-80.81l-9.28-9.27c-10.31,13.47-26.89,31.27-51.66,43.71-33.51,16.84-60.13,12.88-109.93,15.63-19.59,1.08-78.11,4.62-124.07,19.69C1011.14,241.55,966.46,263.5,920.11,316.52Z" style="fill:url(#ao)"/><path d="M1152.62,191.19s-2.22,9.7-6.6,16.47c-4,6.12-19.14,7.65-22.33,8.59s4.42,6.8,12.71,9.19,32.74,4.87,37.67,2.46-3-3.6-8.58-6.91-7-15.73-4.91-20.88S1152.62,191.19,1152.62,191.19Z" style="fill:url(#ap)"/><path d="M1168.69,189.13c2.35-3.19,1.69-9.46-2-12.49-2.71-2.26-6.11-1.93-8.59-1.7-1.15.11-9.22,1-11.63,6.66a9.6,9.6,0,0,0-.12,6.29,24.29,24.29,0,0,0,2.57,4.78c1.37,2.2,1.27,2.12,1.7,2.76a33.46,33.46,0,0,0,6.68,7.2,23.57,23.57,0,0,1,1.31-3.83,20.57,20.57,0,0,1,2.71-4.5C1164.35,190.67,1166.86,191.62,1168.69,189.13Z" style="fill:url(#aq)"/><path d="M1152.56,199.56a12.66,12.66,0,0,0,11.11,5.67c6.63-.4,7.67-15.27,3.45-18.45a8.35,8.35,0,0,0-6.54-.87c-1.36.37-1.83.93-4.06,1.5-2.06.53-2.65.3-3.27.82-.78.65-1.36,2.25-.08,6.61-1.26-1.29-2.78-1.79-3.85-1.29a2.23,2.23,0,0,0-.89.86C1147.49,196.1,1149,198.28,1152.56,199.56Z" style="fill:url(#ar)"/><g style="opacity:0.30000000000000004;mix-blend-mode:multiply"><path d="M1134.05,370.17c-2.74-22.84-21.11-24-33.12-53-12.57-30.34.47-46.16-11.92-57-18.29-16-61.54,5.62-79.48,14.57a227.11,227.11,0,0,0-62,45.86c4.31-1.54,8.9-3.34,13.7-5.45,23.16-10.23,27.23-17.31,49-25.17,15-5.4,34.13-12,47.69-2.65a28.7,28.7,0,0,1,9.38,11.39c-1.82,17.52-3.8,31.45-4.83,40.07-9.12,76.11-10.43,90-1.07,98.59,8.14,7.49,13.69,1.22,53.62,6,8.7,1.05,15.71,2.22,21.5,3.32-11-11.77-14.28-21.94-14.35-30.22C1122,398.63,1136.58,391.24,1134.05,370.17Z" style="fill:url(#as)"/></g></g></g><path d="M911.49,214.32c3.71,1.88,8.37.15,10.41-3.86s.68-8.8-3-10.68c-.19-.1-.39-.18-.58-.26a45.69,45.69,0,0,0,1.55-6.7c.22,0,.43,0,.65,0a8.54,8.54,0,0,0,7.5-8.69,7.22,7.22,0,0,0-7.82-7.31l-.66.09a43.36,43.36,0,0,0-1.81-6.4c.2-.11.39-.23.58-.36A8.53,8.53,0,0,0,920.86,159a7.23,7.23,0,0,0-10.52-2c-.19.13-.36.27-.53.41a38.32,38.32,0,0,0-4.7-4.38c.12-.19.24-.39.35-.6,2-4,4.7-8.4,1-10.22-8.64-4.22-12.35-.61-14.39,3.4-.11.21-.2.42-.29.63a38,38,0,0,0-6.3-1.2c0-.22,0-.45,0-.67-.09-4.42,1.22-6.81-3-6.9-9.26-.18-12.38,3.84-12.3,8.26,0,.23,0,.46,0,.68a43.31,43.31,0,0,0-6.23,2.32c-.1-.2-.2-.4-.31-.59a7.24,7.24,0,0,0-10.53-2,8.53,8.53,0,0,0-2.58,11.18,6.18,6.18,0,0,0,.36.53A46,46,0,0,0,846.4,163c-.18-.11-.36-.22-.56-.32-3.7-1.88-8.36-.15-10.4,3.86s-.69,8.8,3,10.68a6.21,6.21,0,0,0,.59.26,47.05,47.05,0,0,0-1.56,6.7c-.21,0-.43,0-.64,0a8.54,8.54,0,0,0-7.5,8.69,7.22,7.22,0,0,0,7.82,7.31c.22,0,.44-.05.65-.09a43.36,43.36,0,0,0,1.81,6.4l-.57.36a8.54,8.54,0,0,0-2.59,11.18c2.19,3.64,9.45,5.33,13.07,2.79.19-.13-2.19-1.06-2-1.21a37.55,37.55,0,0,0,4.69,4.39,5.82,5.82,0,0,0-.34.6c-2,4-.69,8.79,3,10.68s8.37.15,10.41-3.86c.1-.21.19-.42.28-.63a38.15,38.15,0,0,0,6.31,1.2c0,.22,0,.45,0,.67A7.22,7.22,0,0,0,879.7,240a8.53,8.53,0,0,0,7.5-8.68,5.06,5.06,0,0,0-.05-.68,43,43,0,0,0,6.24-2.32,5.58,5.58,0,0,0,.31.59,7.22,7.22,0,0,0,10.52,2,8.54,8.54,0,0,0,2.59-11.18l-.36-.53a47.08,47.08,0,0,0,4.49-5.21C911.12,214.11,911.3,214.22,911.49,214.32Zm-46.22.59c-13.47-6.84-18.38-24.2-11-38.78s24.32-20.85,37.78-14,18.38,24.2,11,38.78S878.73,221.74,865.27,214.91Z" style="fill:url(#at)"/><path d="M920.49,192.8a8.54,8.54,0,0,0,7.5-8.69,7.22,7.22,0,0,0-7.82-7.31l-.66.09a43.36,43.36,0,0,0-1.81-6.4c.2-.11.39-.23.58-.36,3.62-2.54,8.1-8.67,5.54-12.06-4.84-6.44-9.86-3.65-13.48-1.12-.19.13-.36.27-.53.41a38.32,38.32,0,0,0-4.7-4.38c.12-.19.24-.39.35-.6a8.42,8.42,0,0,0,.47-6.64q-5.25,9.22-10.33,18.54c10.74,7.87,14.16,23.38,7.44,36.61-5.68,11.2-17,17.49-28,16.71-.49,1.27-1,2.56-1.5,3.82-1.43,3.44-3.06,6.8-4.68,10.16,1,.19,2,.34,3.08.45,0,.22,0,.45,0,.67.09,4.42,2.77,8.17,10.44,7.77,4.24-.23,5-4.71,4.88-9.13a5.06,5.06,0,0,0-.05-.68,43,43,0,0,0,6.24-2.32,4.63,4.63,0,0,0,.31.58c2.19,3.64,9.8,5.19,13.41,2.65s1.89-8.19-.3-11.83l-.36-.53a47.08,47.08,0,0,0,4.49-5.21c.18.11.36.22.55.32,3.71,1.88,8.37.15,10.41-3.86s.68-8.8-3-10.68c-.19-.1-.39-.18-.58-.26a45.69,45.69,0,0,0,1.55-6.7C920.06,192.82,920.27,192.82,920.49,192.8Z" style="fill:url(#au)"/><path d="M915.48,214.77c3.71,1.88,8.37.16,10.4-3.86s.69-8.8-3-10.68c-.19-.1-.39-.18-.58-.26a47,47,0,0,0,1.55-6.7c.22,0,.43,0,.65,0a8.54,8.54,0,0,0,7.5-8.68,7.23,7.23,0,0,0-7.83-7.32c-.22,0-.43.05-.65.09a43.36,43.36,0,0,0-1.81-6.4c.19-.11.39-.23.58-.36a8.53,8.53,0,0,0,2.58-11.18,7.22,7.22,0,0,0-10.52-2c-.19.13-.36.27-.53.41a37.56,37.56,0,0,0-4.7-4.38c.12-.2.24-.4.34-.61,2-4,.69-8.79-3-10.67S898.05,142,896,146c-.11.2-.2.42-.29.63a39.24,39.24,0,0,0-6.31-1.21,5,5,0,0,0,0-.67,7.23,7.23,0,0,0-7.82-7.32,8.54,8.54,0,0,0-7.5,8.69c0,.23,0,.45,0,.68a43.38,43.38,0,0,0-6.24,2.31,4.63,4.63,0,0,0-.31-.58,7.23,7.23,0,0,0-10.52-2,8.52,8.52,0,0,0-2.58,11.18,4.93,4.93,0,0,0,.36.53,46.79,46.79,0,0,0-4.49,5.21l-.56-.32c-3.71-1.88-8.36-.15-10.4,3.87s-.69,8.79,3,10.67a6.21,6.21,0,0,0,.59.26,47.05,47.05,0,0,0-1.56,6.7c-.21,0-.43,0-.64,0a8.52,8.52,0,0,0-7.5,8.68,7.23,7.23,0,0,0,7.82,7.32c.22,0,.44-.06.65-.1a43.36,43.36,0,0,0,1.81,6.4c-.19.12-.39.23-.58.37a8.54,8.54,0,0,0-2.58,11.18,7.22,7.22,0,0,0,10.52,2c.19-.13.36-.27.54-.41a37.52,37.52,0,0,0,4.69,4.38c-.12.2-.24.39-.34.6-2,4-.69,8.8,3,10.68s8.37.15,10.41-3.86c.1-.21.19-.42.28-.63a38.15,38.15,0,0,0,6.31,1.2,5.15,5.15,0,0,0,0,.68,7.22,7.22,0,0,0,7.82,7.31,8.52,8.52,0,0,0,7.5-8.68c0-.23,0-.46-.05-.68a44.6,44.6,0,0,0,6.24-2.31,5.45,5.45,0,0,0,.31.58,7.22,7.22,0,0,0,10.52,2,8.51,8.51,0,0,0,2.58-11.17,5.07,5.07,0,0,0-.36-.54,46.12,46.12,0,0,0,4.5-5.21C915.1,214.56,915.29,214.67,915.48,214.77Zm-46.23.59c-13.46-6.84-18.37-24.2-11-38.77s24.31-20.86,37.78-14,18.37,24.19,11,38.77S882.72,222.19,869.25,215.36Z" style="fill:url(#av)"/><path d="M812.63,374.53c7.26,3.69,16.39.3,20.38-7.57s1.34-17.23-5.92-20.91a10.61,10.61,0,0,0-1.15-.51,91.66,91.66,0,0,0,3-13.13c.42,0,.84,0,1.26,0,8.29-.74,14.86-8.36,14.69-17s-7-15.07-15.32-14.34c-.43,0-.86.11-1.28.19a84.78,84.78,0,0,0-3.55-12.54c.38-.22.76-.45,1.13-.71,7.09-5,9.36-14.77,5.07-21.9s-13.53-8.88-20.62-3.91c-.36.26-.7.53-1,.81a74.79,74.79,0,0,0-9.19-8.58c.23-.39.46-.77.67-1.18,4-7.87,9.21-16.46,1.89-20-16.94-8.27-24.21-1.19-28.2,6.67-.21.41-.38.83-.56,1.24a75.14,75.14,0,0,0-12.35-2.36c0-.44,0-.87,0-1.32-.18-8.65,2.39-13.34-5.93-13.5-18.14-.35-24.26,7.52-24.08,16.18,0,.45,0,.89.09,1.33a85.56,85.56,0,0,0-12.22,4.53c-.18-.38-.38-.77-.6-1.14-4.3-7.13-13.53-8.88-20.62-3.91s-9.35,14.77-5.06,21.9c.22.36.46.71.71,1a91.16,91.16,0,0,0-8.8,10.21c-.35-.22-.71-.44-1.09-.63-7.26-3.68-16.39-.3-20.38,7.57s-1.34,17.23,5.92,20.92c.38.19.76.35,1.15.5a91.66,91.66,0,0,0-3.05,13.13c-.42,0-.84,0-1.26,0-8.29.74-14.86,8.36-14.69,17s7,15.08,15.32,14.34c.43,0,.86-.11,1.28-.19a84.78,84.78,0,0,0,3.55,12.54c-.38.22-.76.45-1.13.71-7.09,5-9.36,14.77-5.07,21.9s18.51,10.44,25.6,5.47c.37-.25-4.28-2.09-3.94-2.37a74,74,0,0,0,9.19,8.58c-.23.39-.46.77-.66,1.18-4,7.87-1.35,17.23,5.92,20.92s16.39.3,20.38-7.56c.21-.41.38-.82.56-1.24a74.1,74.1,0,0,0,12.35,2.36c0,.44,0,.88,0,1.32.18,8.65,7,15.07,15.32,14.33s14.87-8.35,14.69-17a11.72,11.72,0,0,0-.09-1.33A84.37,84.37,0,0,0,777.17,402c.19.38.38.77.61,1.14,4.29,7.13,13.52,8.88,20.61,3.91s9.36-14.77,5.06-21.9c-.22-.36-.46-.7-.7-1a91.08,91.08,0,0,0,8.79-10.21C811.89,374.12,812.25,374.34,812.63,374.53Zm-90.55,1.15c-26.37-13.39-36-47.4-21.5-75.95s47.63-40.86,74-27.47,36,47.4,21.5,76S748.45,389.07,722.08,375.68Z" style="fill:url(#aw)"/><path d="M830.25,332.37c8.29-.74,14.86-8.36,14.69-17s-7-15.07-15.32-14.34c-.43,0-.86.11-1.28.19a84.78,84.78,0,0,0-3.55-12.54c.38-.22.76-.45,1.13-.71,7.09-5,15.87-17,10.86-23.62-9.49-12.62-19.32-7.16-26.41-2.19-.36.26-.7.53-1,.81a74.79,74.79,0,0,0-9.19-8.58c.23-.39.46-.77.67-1.18a16.53,16.53,0,0,0,.93-13q-10.28,18.07-20.24,36.32c21,15.42,27.73,45.8,14.58,71.71-11.14,21.95-33.29,34.27-54.93,32.73-1,2.5-1.91,5-2.94,7.49-2.8,6.73-6,13.31-9.18,19.89q3,.57,6,.89c0,.44,0,.88,0,1.32.18,8.65,5.43,16,20.45,15.21,8.31-.44,9.74-9.23,9.56-17.89a11.72,11.72,0,0,0-.09-1.33A84.37,84.37,0,0,0,777.17,402c.19.38.38.77.61,1.14,4.29,7.13,19.19,10.15,26.28,5.19s3.69-16.05-.61-23.18c-.22-.36-.46-.7-.7-1a91.08,91.08,0,0,0,8.79-10.21c.35.22.71.44,1.09.63,7.26,3.69,16.39.3,20.38-7.57s1.34-17.23-5.92-20.91a10.61,10.61,0,0,0-1.15-.51,91.66,91.66,0,0,0,3-13.13C829.41,332.41,829.83,332.41,830.25,332.37Z" style="fill:url(#ax)"/><path d="M820.44,375.42c7.26,3.68,16.39.3,20.38-7.57s1.34-17.23-5.92-20.92c-.38-.19-.76-.35-1.14-.5a93,93,0,0,0,3-13.13c.42,0,.84,0,1.26,0,8.29-.74,14.87-8.36,14.69-17s-7-15.08-15.32-14.34c-.43,0-.85.11-1.28.19a83.58,83.58,0,0,0-3.55-12.54c.39-.22.77-.45,1.14-.71,7.09-5,9.35-14.77,5.06-21.9s-13.52-8.88-20.61-3.91c-.37.26-.71.53-1.05.81a74,74,0,0,0-9.19-8.58c.23-.39.46-.78.67-1.18,4-7.87,1.34-17.23-5.92-20.92s-16.39-.3-20.39,7.56c-.2.41-.38.82-.55,1.24a74.41,74.41,0,0,0-12.36-2.36c0-.44.05-.88,0-1.32-.17-8.65-7-15.07-15.32-14.33s-14.87,8.35-14.69,17c0,.45.05.89.09,1.33a83.82,83.82,0,0,0-12.21,4.53c-.19-.38-.39-.77-.61-1.14-4.3-7.13-13.52-8.88-20.62-3.91s-9.35,14.77-5.06,21.9c.22.36.46.7.71,1a92.21,92.21,0,0,0-8.8,10.21c-.35-.22-.71-.44-1.08-.63-7.27-3.69-16.39-.3-20.39,7.57s-1.34,17.23,5.93,20.91a10.46,10.46,0,0,0,1.14.51,91.66,91.66,0,0,0-3,13.13c-.41,0-.83,0-1.26,0-8.28.74-14.86,8.36-14.69,17s7,15.07,15.32,14.34c.43,0,.86-.11,1.28-.19a84.78,84.78,0,0,0,3.55,12.54c-.38.22-.76.45-1.13.71-7.09,5-9.36,14.77-5.06,21.9s13.52,8.87,20.61,3.91c.36-.26.7-.53,1-.81a74.17,74.17,0,0,0,9.2,8.58c-.24.39-.47.77-.67,1.18-4,7.87-1.34,17.23,5.92,20.92S726,416.85,730,409c.21-.41.39-.83.56-1.24a75.14,75.14,0,0,0,12.35,2.36c0,.44,0,.87,0,1.32.17,8.65,7,15.07,15.32,14.33s14.86-8.35,14.69-17c0-.45-.05-.89-.09-1.33A85.44,85.44,0,0,0,785,402.89c.19.38.38.77.61,1.14,4.29,7.12,13.52,8.88,20.61,3.91s9.36-14.77,5.06-21.9c-.22-.36-.46-.71-.7-1a92.21,92.21,0,0,0,8.8-10.21C819.71,375,820.06,375.22,820.44,375.42Zm-90.55,1.15c-26.37-13.4-36-47.4-21.5-76s47.63-40.85,74-27.46,36,47.4,21.5,76S756.26,390,729.89,376.57Z" style="fill:url(#ay)"/><path d="M1068.39,917.58a1.13,1.13,0,0,1-1.12-1L1046.9,696.38a1.12,1.12,0,1,1,2.24-.21l18.13,195.94V691.4a1.13,1.13,0,0,1,2.25,0V916.46a1.13,1.13,0,0,1-1.08,1.12Z" style="fill:#b7c0ce"/><polygon points="1295.58 715.49 1072.07 691 642.65 710.51 867.55 737.45 1295.58 715.49" style="fill:#d8dee8"/><polygon points="867.55 737.45 1295.58 715.49 1295.58 726.09 867.55 748.05 642.65 721.12 642.65 710.51 867.55 737.45" style="fill:#b7c0ce"/><path d="M869.07,994.38h0a1.13,1.13,0,0,1-1.08-1.13V745.47a1.13,1.13,0,0,1,2.25,0v219l17.13-219.07a1.12,1.12,0,1,1,2.24.17L870.19,993.34A1.12,1.12,0,0,1,869.07,994.38Z" style="fill:#b7c0ce"/><path d="M645.11,950.36h0a1.12,1.12,0,0,1-1.08-1.12V720.54a1.13,1.13,0,1,1,2.25,0v200L662,720.45a1.13,1.13,0,0,1,1.21-1,1.12,1.12,0,0,1,1,1.21l-18,228.7A1.12,1.12,0,0,1,645.11,950.36Z" style="fill:#b7c0ce"/><path d="M1293.47,950.36a1.11,1.11,0,0,1-1.12-1l-19.07-228.7a1.12,1.12,0,0,1,2.24-.19l16.82,201.79V726.09a1.13,1.13,0,0,1,2.25,0V949.24a1.12,1.12,0,0,1-1.08,1.12Z" style="fill:#b7c0ce"/><path d="M803.17,946.13c-.37-2-7-3.89-10.23-1.16-1.62,1.36-2.74,4.11-1.8,5.35.34.46-1.06,1.25.28,1.27C795.86,951.64,803.54,948.15,803.17,946.13Z" style="fill:url(#az)"/><path d="M796,946.14l-6.84.34c2.37-4.31-.48-16-.48-16l7.39.22s-.19,3.4-.64,8.45A32.08,32.08,0,0,0,796,946.14Z" style="fill:url(#ba)"/><path d="M796.86,946s-8.16-1.88-9.05-.26-1.57,6,3.61,5.82S797.32,947.41,796.86,946Z" style="fill:url(#bb)"/><path d="M844.81,954.44c-.65-2-7.44-2.88-10.29.29-1.42,1.57-2.14,4.45-1,5.55.4.4-.87,1.38.45,1.21C838.35,960.92,845.46,956.4,844.81,954.44Z" style="fill:url(#bc)"/><path d="M836.79,956.34l-6.72,1.32c1.73-4.61-2.77-15.79-2.77-15.79l7.34-.85s.3,3.39.58,8.46A32.1,32.1,0,0,0,836.79,956.34Z" style="fill:url(#bd)"/><path d="M838.55,955.23s-8.35-.72-9,1-.71,6.11,4.39,5.25S839.2,956.53,838.55,955.23Z" style="fill:url(#be)"/><path d="M804.8,752.66l26.54-70a6.06,6.06,0,0,0-4.47-8.08l-54.32-10.86a6,6,0,0,0-6.88,3.88l-24.29,67.21a6,6,0,0,0,4.16,7.91l52.07,13.62A6,6,0,0,0,804.8,752.66Z" style="fill:#26264f"/><path d="M803.33,749.41l24.79-65.36A5.65,5.65,0,0,0,824,676.5l-50.74-10.14a5.65,5.65,0,0,0-6.42,3.62L744.1,732.76a5.64,5.64,0,0,0,3.88,7.39l48.64,12.72A5.64,5.64,0,0,0,803.33,749.41Z" style="fill:url(#bf)"/><polygon points="772.35 691.31 803.21 682.06 800.6 710.95 792.71 705.94 776.87 729.9 755.66 714 779.29 696.55 772.35 691.31" style="fill:#fff"/><path d="M818.17,728.93l.86-8,4.59-8.75a8.23,8.23,0,0,0,1-3.86v-8.68L819,712.49a41.62,41.62,0,0,0-5-4c-1.39-.69-1.21,2.07-.18,3.11s-.52,9.52.52,10.38l-.34,5.2Z" style="fill:url(#bg)"/><path d="M774.22,678.23c-4.31-10.53-13.55-16.59-18.34-19.73-11.35-7.43-18.61-6.07-44.65-10-34.71-5.28-38.86-10.28-50.53-6.23-15.32,5.33-23.32,19.24-27,25.61-18.49,32.14,3.13,48.47-2.42,112.48-2.27,26.14-8.08,48.86,5.88,62.29,2.94,2.83,6.23,4.31,12.8,7.27,26.09,11.74,49.47,9.71,63.68,8.31,15.64-1.55,23.54-2.44,27.69-8,6.62-8.83-.19-20-1.38-39.46-.86-13.93,2.31-25,8.65-47.06C763.34,712.36,782.47,698.4,774.22,678.23Z" style="fill:url(#bh)"/><path d="M716.12,629.52c1.58-5.63-1.18-10.84-1.79-12-2.55-4.71-3.2-5.35-4.42-6.16l-1.69-1-.2-.07a19.41,19.41,0,0,0-5.53-.34c-2.4.51-4.94,10.26-4.22,24-.1.53-.19,1.06-.28,1.59q-.57,3.27-.91,6.4c-.22,2-3.05,1.95-5.06,1.82-8.13-.52-12.11.17-12.46,1.38-.64,2.27,9,9.7,20.91,11.36,16,.12,29-1.58,27.6-4.1-.62-1.11-13-4.35-16.49-7.56-3.19-2.94-2.93-6-3.2-8.14C709.35,636.23,715,633.67,716.12,629.52Z" style="fill:url(#bi)"/><path d="M713.18,606.44c0,4.27-2,8.83-3,9.56a7.2,7.2,0,0,0-1.55,1.69,2.21,2.21,0,0,0-.24.51c-.94,2.69,3.34,5.85,2.52,7.06-.6.87-3.51-.3-3.86.46s2.1,2.18,1.73,3c-.28.64-1.77,0-2.71,1-.47.49-.33.88-.83,2.38a14.31,14.31,0,0,1-1,2.29c-1.48,2.5-5.66,3.42-6.46,2.42-.22-.28,0-.52-.26-1.46a7.28,7.28,0,0,0-.82-1.87c-.86-1.44-2.95-2.47-5.06-4-3.9-2.81-5-5.21-5.27-6-.12-.29-.19-.51-.24-.67-1-3.14-1-7.77.4-10.61,2.37-4.76,7.72-2.5,12.09-7.22,5-5.45,2-12.89,4.79-13.71C706.41,590.44,713.21,598.54,713.18,606.44Z" style="fill:#26264f"/><path d="M709.32,624.25c-1-1.43-2.88-.08-2.89,1.78s1.79,3.79,3.54,3.43S710.73,626.19,709.32,624.25Z" style="fill:url(#bj)"/><path d="M708.47,621.14l2.43,3.16s2.62,3.87,4.15,1.75c1.25-1.73,1.57-1.69,1.65-1.62s0,0,0,0-.19-.86-.37-1.61a14.11,14.11,0,0,1,2.08,4.46c.52,2,1.08,4.07,0,6.09a6,6,0,0,1-3.57,2.79s-.89.21-4.69-.46c0,0,4.15-3,4.21-3.72.17-1.94-2.52-3-4.52-7A16.55,16.55,0,0,1,708.47,621.14Z" style="fill:#26264f"/><path d="M700.16,839.84c4.6-9.16-6.68-21.33.69-35.3,6.25-11.86,17.62-9.2,22.84-20.07,6.31-13.13-7.41-22.94-6.92-42.91.59-23.88,21.13-47.78,33.22-45.68,7.82,1.35,8.83,13,14.33,25.8a289.56,289.56,0,0,0-15.71,42c-6.34,22.08-9.51,33.13-8.65,47.06,1.19,19.42,8,30.63,1.38,39.46-4.15,5.52-12.05,6.41-27.69,8-14.21,1.4-37.59,3.43-63.68-8.31-3.3-1.48-5.77-2.6-7.78-3.7C682.94,852.3,696.51,847.11,700.16,839.84Z" style="opacity:0.30000000000000004;mix-blend-mode:multiply;fill:url(#bk)"/><path d="M819.73,727.37l-7.62-3.29c-4.29,4.39-9.76,8.65-14.36,7.27-6.86-2.07-5.14-14.69-13.5-36.86-9.46-25.12-20.2-31.58-25.61-33.91-3-1.31-5.1-2.17-7.61-1.56-11.54,2.82-15.35,32.88-12.11,55.37,1.82,12.67,5.4,37.52,25.78,49.32,2.9,1.67,18.83,10.9,34.61,3.63C812.78,761.13,821.11,745.21,819.73,727.37Z" style="fill:url(#bl)"/><path d="M800.43,931.39l-12.66,1.41A85.24,85.24,0,0,1,769,900c-8.7-29.66,4.93-49.13-4.21-56.72-10.55-8.75-31.37,14.89-77.34,21.56-14.8,2.15-47.64,6.92-60.93-10.78-5.39-7.17-8.48-19.26-4.22-29.53,7.64-18.39,32.82-16.18,115.77-32.34,31.95-6.22,37-8.26,44.59-4.63C820.23,805.47,804.57,906.81,800.43,931.39Z" style="fill:url(#bm)"/><path d="M838.08,943.32l-12.65,1.41a85,85,0,0,1-18.75-32.81c-8.71-29.66,4.92-49.13-4.22-56.72-10.54-8.75-31.37,14.89-77.34,21.56-14.79,2.15-47.64,6.92-60.93-10.78-5.39-7.17-8.48-19.26-4.22-29.52,7.65-18.4,32.82-16.19,115.77-32.35,32-6.22,37-8.26,44.6-4.63C857.88,817.4,842.22,918.74,838.08,943.32Z" style="fill:url(#bn)"/><ellipse cx="693.68" cy="994.21" rx="69.96" ry="28.55" style="fill:url(#bo)"/><path d="M623.72,990.86c0,14.89,31.32,26.95,70,26.95s70-12.06,70-26.95-31.32-39.24-70-39.24S623.72,976,623.72,990.86Z" style="fill:url(#bp)"/><path d="M623.72,990.86c0-14.88,31.32-39.24,70-39.24a95,95,0,0,1,46.47,12.25,10.17,10.17,0,0,1,1.1,5.33c-.8,8.37-14.46,13.52-22.3,15.22-19.74,4.28-29.38-7.53-45.66-7.08-10.07.28-24,5.33-40.56,26.75C627,1000.18,623.72,995.67,623.72,990.86Z" style="opacity:0.30000000000000004;mix-blend-mode:multiply;fill:url(#bq)"/><path d="M689.85,965.14a15.86,15.86,0,0,0,7.86.05,5.07,5.07,0,0,0,3.75-4.92V881.38H685.9v78.79A5.15,5.15,0,0,0,689.85,965.14Z" style="fill:#fff"/><path d="M689.85,965.14a15.86,15.86,0,0,0,7.86.05,5.07,5.07,0,0,0,3.75-4.92V881.38H685.9v78.79A5.15,5.15,0,0,0,689.85,965.14Z" style="opacity:0.65;mix-blend-mode:multiply;fill:url(#br)"/><path d="M775.88,848.18l-23.77-15c-1-5.61-12.19-64.32-57.67-82.76-18.49-7.5-38.39-6.61-49.31-6.12-21.81,1-37.36,1.67-44.84,12.07-9.61,13.36,6.5,25.47,3.17,63.67-1.36,15.58-4.82,22.5-.51,32.82,5.16,12.36,17.13,19.21,26.44,23.07a135.35,135.35,0,0,0,56.08,17.91c43.09,3.78,75.27-14.71,86.33-21.78a14.28,14.28,0,0,0,9.67-10.7A12.57,12.57,0,0,0,775.88,848.18Z" style="fill:url(#bs)"/><path d="M765,858.88c-.88-5.28-15.6-.91-29.53-11.25-20.82-15.47-10-41.66-28.12-66.79-16.62-23.06-50.08-34.8-60.46-26-13.83,11.69,20,55.43,0,83.66-9.72,13.71-24.53,13-24.61,21.09-.12,12.71,36.74,27.36,71.71,26.72C731.54,885.61,766.35,867.26,765,858.88Z" style="fill:#fff;opacity:0.26;mix-blend-mode:soft-light"/><path d="M1174.23,917.4s-22.57,1.57-22.9,3,15.32,7.17,20.79,7.39,10-1.41,9.47-3.73-2.41-8.14-2.41-8.14Z" style="fill:url(#bt)"/><path d="M1173.17,907.37l-.4,10.65s3.43,1.94,6.16.83l3-11.24Z" style="fill:url(#bu)"/><path d="M1111.1,913.1s-22.58,1.57-22.91,3,15.32,7.18,20.79,7.39,10-1.4,9.48-3.72-2.41-8.15-2.41-8.15Z" style="fill:url(#bv)"/><path d="M1110,903.07l-.4,10.66s3.43,1.93,6.16.82l3-11.24Z" style="fill:url(#bw)"/><path d="M1170.77,908.87l12.65,1.41a85,85,0,0,0,18.75-32.81c8.77-29.85-3.93-51.36,4.22-56.71,11.53-7.58,36.52,36,76.64,34.92,16.45-.46,37.94-8.52,46.19-26.07,1.25-2.65,7.37-16.53,1.41-29.53-6.16-13.43-36.69-19.27-97.52-30.41-26.11-4.78-39.3-7.17-44.6-4.64C1151,783,1166.63,884.29,1170.77,908.87Z" style="fill:url(#bx)"/><path d="M1106.36,909.05l13.09,2.28c5.3-7.81,13.32-20,22.29-35.56,18.7-32.35,18.36-38.92,27-43.08,18.29-8.82,32.11,15,77.34,21.56,14.79,2.15,47.64,6.92,60.93-10.78,5.39-7.18,8.48-19.27,4.22-29.53-7.65-18.4-32.83-16.19-115.78-32.34-32.34-6.3-36.75-7.43-44.59-4.64C1107.1,792.52,1106.25,887.8,1106.36,909.05Z" style="fill:url(#by)"/><path d="M1205.87,718l-153.72.73,0,3.39a1.89,1.89,0,0,0,1.6,1.82l43.55,6.13a6.77,6.77,0,0,0,1.56,0l105.33-8.88a1.8,1.8,0,0,0,1.65-1.82Z" style="fill:#26264f"/><path d="M1150,713.06l-96.26,7.36a2.75,2.75,0,0,1-3.15-2.59l-.77-62.62a3,3,0,0,1,3.09-2.87l96.33-1.18a2.56,2.56,0,0,1,2.6,2.53l.7,56.61A2.79,2.79,0,0,1,1150,713.06Z" style="fill:#26264f"/><path d="M1151.56,713l-96.26,7.36a2.77,2.77,0,0,1-3.16-2.59l-.76-62.62a3,3,0,0,1,3.09-2.87l96.33-1.18a2.57,2.57,0,0,1,2.6,2.53l.69,56.61A2.77,2.77,0,0,1,1151.56,713Z" style="fill:#26264f"/><path d="M1148.51,709.08l-89.66,6.48a2.27,2.27,0,0,1-2.57-2.13l-.67-54.83a2.44,2.44,0,0,1,2.51-2.35l89.72-1.43a2.1,2.1,0,0,1,2.15,2.07l.61,49.93A2.27,2.27,0,0,1,1148.51,709.08Z" style="fill:url(#bz)"/><path d="M1106.06,653.4a1.1,1.1,0,0,1-1.1,1.07,1.06,1.06,0,1,1,0-2.11A1.09,1.09,0,0,1,1106.06,653.4Z" style="fill:#fff"/><path d="M1128.53,696.17c-7.51-3.54-13.32,1.13-19-3.34-3.47-2.72-1.81-4.79-6.09-8.86-4.73-4.5-7.76-2.93-12.51-7-6-5.12-3.09-9.19-8.26-12.86-6.27-4.44-12.92-.18-18.89-4.44a12.82,12.82,0,0,1-4.77-7.43l-5.79.08a1.76,1.76,0,0,0-1.82,1.68l.8,65a1.62,1.62,0,0,0,1.85,1.52l98.61-7.54a1.62,1.62,0,0,0,1.18-.68c-7.23-.15-11.69-2.29-14.56-4.52C1133.64,703.4,1134.55,699,1128.53,696.17Z" style="fill:#fff;opacity:0.48;mix-blend-mode:soft-light"/><path d="M1155.39,712.82l-103.21,7.78L1097.3,727a6.79,6.79,0,0,0,1.56,0l107-9L1157,712.84A9.1,9.1,0,0,0,1155.39,712.82Z" style="fill:url(#ca)"/><polygon points="1067.25 720.47 1153.18 713.91 1179.83 716.68 1094.65 723.61 1067.25 720.47" style="fill:#26264f;opacity:0.30000000000000004;mix-blend-mode:multiply"/><polygon points="1096.58 670.7 1127.14 662.49 1123.76 690.77 1116.15 685.63 1099.92 708.72 1079.55 692.5 1103.24 676.03 1096.58 670.7" style="fill:#fff"/><path d="M1197,655.71c4.31-10.53,13.55-16.59,18.34-19.73a40.25,40.25,0,0,1,6.87-3.67A92.92,92.92,0,0,1,1260,626c7.49.56,26,1.94,39.73,13.83,6.64,5.75,11.94,13.79,19.68,59.06,10.79,63.14,2,56.66,10.55,82.26,4.5,13.54,11.52,29.08,4.1,39-2.4,3.2-5.83,4.12-12.81,7.26-26.08,11.74-49.47,9.72-63.68,8.31-15.63-1.55-23.54-2.43-27.68-8-6.63-8.82.19-20,1.38-39.45.86-13.94-2.31-25-8.65-47.07C1207.86,689.84,1188.73,675.88,1197,655.71Z" style="fill:url(#cb)"/><path d="M1123.49,718.58l-16.67-3.2a10.06,10.06,0,0,0-3.63,0l-14.41,2.48s9.37,3.77,17.34,2.59,16.67,3.3,16.67,3.3Z" style="fill:url(#cc)"/><path d="M1233.85,614.27c-2.81-4.23,1.39-12.38,3.05-15.6.06-.11.13-.26.29-.55,2.55-4.7,3.2-5.34,4.41-6.16l1.7-1,.2-.07a19.41,19.41,0,0,1,5.53-.34c2.39.51,4.94,10.26,4.21,24,.1.53.2,1.06.29,1.59q.57,3.27.91,6.4c.22,2,3,2,5,1.82,8.14-.52,12.12.17,12.46,1.38.65,2.27-9,9.69-20.91,11.36-16,.12-29-1.58-27.59-4.1.62-1.11,13-4.35,16.49-7.56,3.19-2.94,2.93-6,3.19-8.14C1241.48,617.39,1236,617.5,1233.85,614.27Z" style="fill:url(#cd)"/><path d="M1235.71,590.55c-2.17,4.12,2.74,6.4,4.45,8.71.19.26,1.61.77,1.86,1.31a2,2,0,0,1,.34.45c1,2.63-2.68,5.58-1.81,7.69.63,1.53,3.18-1.18,3.71,0s-1.85,2.62-1.57,3.79,1.93.05,2.46,1.11a3.52,3.52,0,0,1,.58,2.9c-1.78,11.23-7.82,21-8.34,33-.56,12.68,14,20.5,21.89,28.73,11.24,11.72,54.93,25.63,63.48,26.37,41.77,3.65,52.68-19.58,67.16-41.91,17.4-26.82,27.36-50.16,17.67-73.53-11.12-26.87-49.14-28.12-68.41-15.42-8.81,5.8-11.58,16.31-19.62,21.17-8.86,5.38-17.19-.2-24.93.48-10.33.91-18.77,13.08-26.6,4.63-4.27-4.59-5.92-11.07-12.49-12.83S1238.56,585.16,1235.71,590.55Z" style="fill:#26264f"/><path d="M1242.19,604.82c1-1.43,2.89-.08,2.9,1.78s-1.79,3.79-3.54,3.43S1240.79,606.76,1242.19,604.82Z" style="fill:url(#ce)"/><path d="M1271,817.33c-4.6-9.16,6.67-21.34-.69-35.3-6.26-11.86-17.62-9.2-22.84-20.07-6.31-13.13,7.41-23,6.92-42.92-.59-23.87-21.13-47.78-33.22-45.68-7.83,1.36-8.83,13-14.34,25.8a290.6,290.6,0,0,1,15.72,42c6.34,22.09,9.51,33.13,8.65,47.07-1.19,19.41-8,30.63-1.38,39.45,4.14,5.53,12.05,6.41,27.68,8,14.21,1.41,37.6,3.43,63.68-8.31,3.3-1.48,5.78-2.59,7.79-3.69C1288.26,829.79,1274.69,824.59,1271,817.33Z" style="opacity:0.30000000000000004;mix-blend-mode:multiply;fill:url(#cf)"/><path d="M1119.24,723.44q.72-3.18,1.42-6.38c32,5.74,46-.7,52.79-8.23,6.21-6.91,3.56-10.48,13.49-36.85,9.47-25.13,20.2-31.58,25.61-33.92,3-1.31,5.11-2.17,7.62-1.56,11.53,2.82,15.35,32.88,12.11,55.38-1.82,12.67-5.4,37.52-25.78,49.31-.38.22-1,.56-1.75,1-2.57,1.37-12.77,6.28-32.86,2.65C1148.2,740.55,1125.09,727,1119.24,723.44Z" style="fill:url(#cg)"/><ellipse cx="1267.5" cy="961.61" rx="69.96" ry="28.55" style="fill:url(#ch)"/><path d="M1337.46,958.26c0,14.89-31.32,27-70,27s-70-12.07-70-27,31.33-39.24,70-39.24S1337.46,943.38,1337.46,958.26Z" style="fill:url(#ci)"/><path d="M1337.46,958.26c0-14.88-31.32-39.24-70-39.24A94.89,94.89,0,0,0,1221,931.28a10.22,10.22,0,0,0-1.1,5.32c.8,8.38,14.46,13.52,22.3,15.22,19.75,4.28,29.39-7.53,45.67-7.08,10.06.28,24,5.34,40.55,26.75C1334.18,967.58,1337.46,963.07,1337.46,958.26Z" style="opacity:0.30000000000000004;mix-blend-mode:multiply;fill:url(#cj)"/><path d="M1271.33,932.54a15.82,15.82,0,0,1-7.85.05,5.07,5.07,0,0,1-3.76-4.92V848.78h15.56v78.79A5.15,5.15,0,0,1,1271.33,932.54Z" style="fill:#fff"/><path d="M1271.33,932.54a15.82,15.82,0,0,1-7.85.05,5.07,5.07,0,0,1-3.76-4.92V848.78h15.56v78.79A5.15,5.15,0,0,1,1271.33,932.54Z" style="opacity:0.65;mix-blend-mode:multiply;fill:url(#ck)"/><path d="M1185.3,815.58l23.77-15c1-5.61,12.19-64.32,57.67-82.76,18.49-7.49,38.4-6.61,49.32-6.12,21.8,1,37.36,1.67,44.84,12.07,9.6,13.36-6.51,25.47-3.17,63.67,1.36,15.58,4.82,22.5.51,32.82-5.16,12.36-17.13,19.21-26.44,23.07a135.46,135.46,0,0,1-56.08,17.91c-43.1,3.78-75.27-14.71-86.34-21.78a14.24,14.24,0,0,1-9.66-10.7A12.56,12.56,0,0,1,1185.3,815.58Z" style="fill:url(#cl)"/><path d="M1196.23,826.28c.88-5.28,15.6-.9,29.53-11.25,20.82-15.46,10-41.66,28.12-66.79,16.62-23.06,50.08-34.8,60.47-26,13.82,11.69-20,55.44,0,83.66,9.72,13.71,24.53,13.05,24.6,21.09.12,12.71-36.74,27.36-71.71,26.72C1229.64,853,1194.84,834.67,1196.23,826.28Z" style="fill:#fff;opacity:0.26;mix-blend-mode:soft-light"/></g></svg>