<svg xmlns="http://www.w3.org/2000/svg" xmlns:xlink="http://www.w3.org/1999/xlink" viewBox="0 0 1920 1080"><defs><linearGradient id="a" x1="748.97" y1="252.48" x2="727.95" y2="808.5" gradientUnits="userSpaceOnUse"><stop offset="0" stop-color="#444b8c"/><stop offset="1" stop-color="#26264f"/></linearGradient><linearGradient id="b" x1="469.35" y1="559.62" x2="997.57" y2="559.62" xlink:href="#a"/><linearGradient id="c" x1="441.34" y1="670.44" x2="566.5" y2="670.44" xlink:href="#a"/><linearGradient id="d" x1="535.28" y1="743.46" x2="1175.87" y2="743.46" xlink:href="#a"/><linearGradient id="e" x1="618.26" y1="767.38" x2="1175.87" y2="767.38" gradientUnits="userSpaceOnUse"><stop offset="0" stop-color="#aa80f9"/><stop offset="1" stop-color="#6165d7"/></linearGradient><linearGradient id="f" x1="639.46" y1="750.74" x2="630.31" y2="1099.93" xlink:href="#a"/><linearGradient id="g" x1="1112.88" y1="250.83" x2="883.57" y2="945.15" xlink:href="#a"/><linearGradient id="h" x1="947.68" y1="732.77" x2="938.05" y2="1100.56" xlink:href="#e"/><linearGradient id="i" x1="-629.12" y1="280.37" x2="-530.1" y2="280.37" gradientTransform="matrix(-1, 0.01, 0.01, 1, 671.62, 111.56)" xlink:href="#a"/><linearGradient id="j" x1="-433.32" y1="280.37" x2="-334.29" y2="280.37" gradientTransform="matrix(-1, 0.01, 0.01, 1, 671.62, 111.56)" xlink:href="#a"/><linearGradient id="k" x1="-629.12" y1="273.4" x2="-530.1" y2="273.4" gradientTransform="matrix(-1, 0.01, 0.01, 1, 671.62, 111.56)" xlink:href="#e"/><linearGradient id="l" x1="-285.75" y1="303.21" x2="-112.14" y2="214.63" gradientTransform="translate(1120.76 4.14) rotate(-32.87)" xlink:href="#e"/><linearGradient id="m" x1="-539.47" y1="207.88" x2="-327.87" y2="-14.83" gradientTransform="matrix(-1, 0.01, 0.01, 1, 671.62, 111.56)" gradientUnits="userSpaceOnUse"><stop offset="0" stop-color="#ffc444"/><stop offset="1" stop-color="#f36f56"/></linearGradient><linearGradient id="n" x1="-556.63" y1="191.57" x2="-345.03" y2="-31.14" xlink:href="#m"/><linearGradient id="o" x1="-569.04" y1="2.19" x2="-394.37" y2="2.19" gradientTransform="matrix(-1, 0.01, 0.01, 1, 671.62, 111.56)" xlink:href="#e"/><linearGradient id="p" x1="-545.29" y1="34.51" x2="-466.01" y2="-48.93" gradientTransform="matrix(-1, 0.01, 0.01, 1, 671.62, 111.56)" xlink:href="#e"/><linearGradient id="q" x1="-552.13" y1="120.72" x2="-411.29" y2="120.72" gradientTransform="matrix(-1, 0, 0, 1, 673.19, 105.09)" gradientUnits="userSpaceOnUse"><stop offset="0" stop-color="#ebeff2"/><stop offset="1" stop-color="#fff"/></linearGradient><linearGradient id="r" x1="-552.13" y1="123.03" x2="-411.29" y2="123.03" gradientTransform="matrix(-1, 0.01, 0.01, 1, 671.62, 111.56)" xlink:href="#q"/><linearGradient id="s" x1="-459.82" y1="75.71" x2="-494.44" y2="146.9" gradientTransform="matrix(-1, 0, 0, 1, 673.19, 105.1)" xlink:href="#q"/><linearGradient id="t" x1="-543.05" y1="210.23" x2="-438.19" y2="57.21" gradientTransform="matrix(-1, 0, 0, 1, 673.19, 105.1)" xlink:href="#a"/><linearGradient id="u" x1="-485.51" y1="343.36" x2="-481.16" y2="286.54" gradientTransform="matrix(-1, 0, 0, 1, 675.47, 105.09)" xlink:href="#m"/><linearGradient id="v" x1="-529.97" y1="302.89" x2="-433.44" y2="302.89" gradientTransform="matrix(-1, 0.01, 0.01, 1, 671.62, 111.56)" xlink:href="#e"/><linearGradient id="w" x1="-475.29" y1="300.94" x2="-499.02" y2="372.35" gradientTransform="matrix(-1, 0, 0, 1, 675.87, 105.08)" xlink:href="#e"/><linearGradient id="x" x1="-476.83" y1="305.57" x2="-494.86" y2="359.84" gradientTransform="matrix(-1, 0.01, 0.01, 1, 671.62, 111.56)" xlink:href="#a"/><linearGradient id="y" x1="-549.57" y1="205.77" x2="-444.71" y2="52.75" gradientTransform="matrix(-1, 0.01, 0.01, 1, 671.62, 111.56)" xlink:href="#a"/><clipPath id="z"><path d="M1136.48,415.37s33.83-6.87,52,2.83c13.85,28.22,27.07,170.31,27.07,170.31L1175,805s-18,13.29-31.55,17.8-356,101.85-356,101.85-51.14,11.22-76.5-17.54,74.44-212.07,74.44-212.07l197.22-233.2Z" style="fill:none"/></clipPath><linearGradient id="aa" x1="2173.69" y1="1154.14" x2="1905.35" y2="1532.39" gradientTransform="translate(-983.69 -653.33) rotate(-0.62)" gradientUnits="userSpaceOnUse"><stop offset="0" stop-color="#ff9085"/><stop offset="1" stop-color="#fb6fbb"/></linearGradient><linearGradient id="ab" x1="-1117.45" y1="-704.08" x2="-905.75" y2="-704.08" gradientTransform="translate(1914.99 106.93) rotate(-37.7)" gradientUnits="userSpaceOnUse"><stop offset="0" stop-color="#e38ddd"/><stop offset="1" stop-color="#9571f6"/></linearGradient><linearGradient id="ac" x1="-1117.45" y1="-705.26" x2="-905.75" y2="-705.26" xlink:href="#ab"/><linearGradient id="ad" x1="-1057.69" y1="-616.28" x2="-937.43" y2="-616.28" xlink:href="#ab"/><linearGradient id="ae" x1="-1086.32" y1="-791.97" x2="-937.13" y2="-791.97" xlink:href="#ab"/><linearGradient id="af" x1="235.99" y1="348.54" x2="607.72" y2="348.54" gradientTransform="translate(197.16 -89.51) rotate(-11.79)" gradientUnits="userSpaceOnUse"><stop offset="0" stop-color="#311944"/><stop offset="1" stop-color="#893976"/></linearGradient><linearGradient id="ag" x1="-1216.15" y1="-705.02" x2="-807.6" y2="-705.02" gradientTransform="translate(1914.99 106.93) rotate(-37.7)" xlink:href="#af"/><linearGradient id="ah" x1="2359.44" y1="657.41" x2="2479.21" y2="657.41" gradientTransform="translate(-1047.11 -1261.55) rotate(25.1)" xlink:href="#e"/><linearGradient id="ai" x1="2359.44" y1="661.62" x2="2479.21" y2="661.62" gradientTransform="translate(-1047.11 -1261.55) rotate(25.1)" xlink:href="#e"/><linearGradient id="aj" x1="2393.25" y1="707.04" x2="2461.29" y2="707.04" gradientTransform="translate(-1047.11 -1261.55) rotate(25.1)" xlink:href="#e"/><linearGradient id="ak" x1="2377.06" y1="607.65" x2="2461.46" y2="607.65" gradientTransform="translate(-1047.11 -1261.55) rotate(25.1)" xlink:href="#e"/><linearGradient id="al" x1="666.64" y1="372.93" x2="651.34" y2="394.51" gradientTransform="translate(465.88 -351.15) rotate(45)" xlink:href="#m"/><linearGradient id="am" x1="1362.58" y1="320.35" x2="1350.2" y2="337.8" gradientTransform="translate(1464.91 -1058.69) rotate(80.78)" xlink:href="#ab"/><linearGradient id="an" x1="1002.08" y1="35.94" x2="984.91" y2="60.14" gradientTransform="translate(326.68 -685.7) rotate(45)" xlink:href="#aa"/><linearGradient id="ao" x1="1067.14" y1="765.43" x2="1051.44" y2="837.1" gradientTransform="matrix(1, 0, 0, 1, 0, 0)" xlink:href="#m"/><linearGradient id="ap" x1="1209" y1="759.26" x2="1390.56" y2="932.63" gradientTransform="matrix(1, 0, 0, 1, 0, 0)" xlink:href="#ab"/><linearGradient id="aq" x1="4556.69" y1="139.43" x2="4669.95" y2="281.93" gradientTransform="translate(-3113.25 -737.6) rotate(14.93)" xlink:href="#m"/><linearGradient id="ar" x1="4562.11" y1="132.26" x2="4688.56" y2="291.36" gradientTransform="translate(-3113.25 -737.6) rotate(14.93)" xlink:href="#m"/><linearGradient id="as" x1="1141.97" y1="829.46" x2="1323.53" y2="1002.83" gradientTransform="matrix(1, 0, 0, 1, 0, 0)" xlink:href="#ab"/><linearGradient id="at" x1="1169.11" y1="801.03" x2="1350.67" y2="974.41" gradientTransform="matrix(1, 0, 0, 1, 0, 0)" xlink:href="#ab"/></defs><g style="isolation:isolate"><path d="M1470.64,462c-29.16-190.89-148.73-425.41-385-449.95,0,0-179.35-21.82-356.15,11.25-104.94,19.62-196.95,78-255.17,162S396.69,371.63,420.3,469.23c15.33,63.39,25.68,129,22.84,194.14-4.95,113.37-2.1,219.19,107.92,286.8,98.24,60.37,221.87,113.61,339.82,122.93,80.15,6.34,170-3.91,247.3-24.78C1531.88,942,1499.8,652.9,1470.64,462Z" style="fill:#f4f7fa"/><path d="M1442.77,577.14l-19.63,1.33a153,153,0,0,0-8.88-25.29l16.28-10.92a9.67,9.67,0,0,0,2.55-13.48l-19-27.94a9.85,9.85,0,0,0-13.58-2.72l-16.5,11a157.12,157.12,0,0,0-20.35-17.58l8.7-17.87a9.83,9.83,0,0,0-4.59-13.07l-30.58-15a9.77,9.77,0,0,0-13.14,4.37l-8.76,17.92a157.46,157.46,0,0,0-26.51-5.25l-1.53-20.1a10,10,0,0,0-10.61-9.18l-34.18,2a9.68,9.68,0,0,0-9.17,10.39l1.53,20.15a156.37,156.37,0,0,0-25.71,8.46l-11.52-16.81a10.18,10.18,0,0,0-13.9-2.78l-28.6,18.79a9.69,9.69,0,0,0-2.64,13.67L1164,504a154.49,154.49,0,0,0-18,20.22l-18.5-8.94a10.1,10.1,0,0,0-13.46,4.48L1099,550.41a9.87,9.87,0,0,0,4.71,13.25l18.37,8.82a151.87,151.87,0,0,0-5.17,26.65l-20.34,1.37a9.91,9.91,0,0,0-9.34,10.56l2.59,34.14a10.08,10.08,0,0,0,10.84,9.17L1120.8,653a153.82,153.82,0,0,0,9,25.82l-16.59,11.08a9.77,9.77,0,0,0-2.66,13.75l19.61,28.24a10.17,10.17,0,0,0,14,2.59l16.47-11a158.3,158.3,0,0,0,21,17.83l-8.6,17.6a9.78,9.78,0,0,0,4.68,13.17l31.14,14.67a10.08,10.08,0,0,0,13.33-4.66l8.49-17.44a156.88,156.88,0,0,0,27.16,5l1.46,19.28a9.85,9.85,0,0,0,10.65,9l34.12-2.69a9.88,9.88,0,0,0,9.12-10.55l-1.46-19.22a155,155,0,0,0,25.86-9l10.89,15.83a9.87,9.87,0,0,0,13.67,2.53l28-19.09a9.74,9.74,0,0,0,2.56-13.56l-10.92-15.93a154.84,154.84,0,0,0,17.63-20.49l17.47,8.38a9.77,9.77,0,0,0,13-4.55l14.57-30.26a9.73,9.73,0,0,0-4.56-13l-17.49-8.46a151.63,151.63,0,0,0,4.86-26.37l19.47-1.37a9.66,9.66,0,0,0,9-10.37l-2.54-33.46A9.82,9.82,0,0,0,1442.77,577.14ZM1265.85,517c55-3.5,102.69,37.69,106.81,92s-36.85,101.58-91.81,105.66c-55.29,4.12-103.74-37-107.9-91.89S1210.51,520.53,1265.85,517Z" style="fill:#bfc8d6;opacity:0.30000000000000004;mix-blend-mode:multiply"/><path d="M1016.3,549.07l-18.73,12.78L946.76,596.5s-86-38.22-151.12-58.75c-48.3-15.22-252.14,40.34-281.17,44.59-20.82,3-37.17,22.48-44.75,33.23,0,0,0,0,0,0-3,4.23-4.61,7.09-4.61,7.09-9.2-21.23-13.32-55.27,9.94-81.53s180.46-48.69,284.5-67.1S1016.3,549.07,1016.3,549.07Z" style="fill:url(#a)"/><path d="M997.57,561.85,946.76,596.5s-86-38.22-151.12-58.75c-48.3-15.22-252.14,40.34-281.17,44.59-20.82,3-37.17,22.48-44.75,33.23a16.34,16.34,0,0,1-.37-2.51s2.13-53,41.41-53.55,103-3.18,118.37-19.11,53.09-28.66,79.1-19.64,69-29.72,95.55-12.74,79.09,49.37,104.57,44.59C930.24,548.51,976.81,546.75,997.57,561.85Z" style="opacity:0.2;mix-blend-mode:multiply;fill:url(#b)"/><path d="M566.5,665.15S462.81,623,464.93,581.1c0,0-5.32-34.2,18.57-46.41-23.49,12-30.68,34.52-35.38,49.77-5,16.28-13.8,81.75,3.19,99.8S560.23,806.2,560.23,806.2Z" style="fill:url(#c)"/><path d="M1175.87,617.06l-11.09,8L773,908.44l-27.5,19.87-7.64,5.54-8.67,6.27a160.11,160.11,0,0,1-32.84-9.9c-11.85-5.88-25.5-13.52-37.08-22.29,0,0,0,0,0,0-9.15-6.94-17.68-14.58-22.33-22.61-.07-.1-.76-.17-.76-.17v0l-88.87-91s-35.91-107.74,16.6-149.33h0c10.77-9.39,25.25-14.87,44.55-16.46C708.1,620,779.15,640,877.54,608.51A206.74,206.74,0,0,0,939.75,576c18.86-14.33,47.8-32.58,68.93-28.6,33.14,6.22,113.7,44.94,117.63,46.85a.19.19,0,0,1,.1,0,.08.08,0,0,0,0,0l17.47,8.06Z" style="fill:url(#d)"/><path d="M1175.87,708.08c.14,48.69-33.79,97.21-77.14,109.33L773,908.44l-32.38,9-.72.19c2,3.53,3.92,7.1,5.6,10.64a93.92,93.92,0,0,1,5.71,14.61c-4-.25-7.92-.64-11.7-1.15q-5.31-.66-10.32-1.65a160.11,160.11,0,0,1-32.84-9.9,150.8,150.8,0,0,1-37.08-22.29s0,0,0,0a138,138,0,0,1-10.68-9.7,81.6,81.6,0,0,1-9.38-10.68,23.18,23.18,0,0,0-2.27-2.23c-.07-.1-.76-.17-.76-.17v0c-8-12-12.66-26.56-14-43.19l-3.65-47.6c-.72-9.47.17-18.92,1.51-28.16v0c10.73-50,52.16-94.08,104.41-103.85l371.14-69.18a67.51,67.51,0,0,1,30.65,1.11.48.48,0,0,1,.15,0,60.43,60.43,0,0,1,17.53,8.09,67.59,67.59,0,0,1,20.86,22.76c7,12.19,10.94,27.16,11,43.85Z" style="fill:url(#e)"/><path d="M739.5,941.77q-5.31-.66-10.32-1.65a160.11,160.11,0,0,1-32.84-9.9,150.8,150.8,0,0,1-37.08-22.29s0,0,0,0c-9.15-6.94-17.68-14.58-22.33-22.61-.07-.1-.76-.17-.76-.17v0l-88.87-91s-35.91-107.74,16.6-149.33h0c4.68-4,18.94,13,21.45,15.77,10.43,11.51,17.13,24.79,17.88,40.42.76,16.32-4.91,33.89,2.27,49.43,3.31,7.18,8.85,11.86,15.16,15.81h0c9,5.62,19.41,9.65,27,16.84,17.37,16.42,79,113.89,90.14,150.86A40.57,40.57,0,0,1,739.5,941.77Z" style="opacity:0.2;mix-blend-mode:multiply;fill:url(#f)"/><path d="M1220.35,690.16c-.14-49.83-35.3-84.18-80-75.84l-371,69.17c-61.92,11.54-110.3,71.27-105.6,132l3.67,47.6c4.57,59,58.32,92.2,117.78,75.58l358.1-100.08c43.37-12.12,77.29-60.64,77.16-109.32Z" style="fill:url(#g)"/><path d="M1211.47,727.28c.43,32.29-17.64,65-44.2,83.76a88.51,88.51,0,0,1-26.42,12.83L800.68,921.71c-57.93,16.64-110.52-11.55-114.88-64.44l-3.48-42.58c-3.12-38.2,19.49-76.37,54.15-99.52a132.1,132.1,0,0,1,48.88-20.1l351.06-66c41.3-7.77,74,21.36,74.6,64.36Z" style="fill:url(#h)"/><g style="opacity:0.5;mix-blend-mode:soft-light"><path d="M1167.27,811a88.51,88.51,0,0,1-26.42,12.83L800.68,921.71c-57.93,16.64-110.52-11.55-114.88-64.44l-3.48-42.58c-3.12-38.2,19.49-76.37,54.15-99.52,39.51-6.6,131.22-14.6,171.71,43.4,52.36,75,131.41,4.06,203.84,29.73C1136,796.81,1154,803.88,1167.27,811Z" style="fill:#fff"/></g><path d="M1218.69,329.88s65,10.52,86,95.42a10.53,10.53,0,0,1-13.26,12.59L1241.74,423a29.5,29.5,0,0,1-18.13-15.54l-18.41-38.55Z" style="fill:url(#i)"/><path d="M1093.91,331.55s-64.72,12.27-83.43,97.7a10.54,10.54,0,0,0,13.6,12.23l49.28-16.26a29.53,29.53,0,0,0,17.72-16l17.36-39Z" style="fill:url(#j)"/><path d="M1218.6,322.92s65,10.52,86,95.42a10.53,10.53,0,0,1-13.27,12.59L1241.65,416a29.54,29.54,0,0,1-18.14-15.55l-18.4-38.55Z" style="fill:url(#k)"/><path d="M1093.82,324.59s-64.73,12.26-83.43,97.69a10.53,10.53,0,0,0,13.6,12.23l49.28-16.26a29.51,29.51,0,0,0,17.72-16l17.36-39Z" style="fill:url(#l)"/><path d="M1051.07,199.63c8.48-86.92,101.56-133.81,101.68-133.75s94.43,44.32,105.24,131c9.8,78.6-31.87,175.42-40.15,193.69-.89,2-2.49,5-4.54,4.27-39.72-13.46-77.09-12-112.39,1.54-2,.74-3.55-2.21-4.47-4.09C1087.79,374.49,1043.36,278.61,1051.07,199.63Z" style="fill:url(#m)"/><g style="opacity:0.30000000000000004;mix-blend-mode:multiply"><path d="M1141,247.41c4.92-48.43,38.85-57.84,45.66-102.08,2.49-16.15,1.56-38.3-12-66.8,28.59,18.81,75.86,58.49,83.33,118.33,9.8,78.6-31.87,175.42-40.15,193.69-.89,2-2.49,5-4.54,4.27a168.49,168.49,0,0,0-58.43-9.33,111.65,111.65,0,0,0,7.09-37.34C1162.53,305,1136.53,291.52,1141,247.41Z" style="fill:url(#n)"/></g><path d="M1153.63,131.19c-30.2.4-63.52,5.64-87.1,18,25-47.3,71.55-75.29,83.41-81.81a6,6,0,0,1,5.66-.07c12,6.19,59.33,32.93,85.58,79.53C1220.3,136,1183.82,130.78,1153.63,131.19Z" style="fill:url(#o)"/><path d="M1174.66,78.53l.4.27.69.45.69.46.66.45.74.5.64.43.78.54.61.43c.28.19.56.38.83.58l.59.41.88.62.56.41.92.65.55.4.94.69.54.4,1,.73.51.38,1,.77.5.37,1,.81.48.37,1.07.84.47.36,1.1.87.45.36,1.12.91.44.36,1.14.94.42.35,1.18,1,.4.34,1.19,1,.39.34c.41.34.81.7,1.22,1l.36.32,1.24,1.09.35.32,1.26,1.13.34.31,1.27,1.16.33.31,1.28,1.19.31.3,1.29,1.24.3.29,1.31,1.27.28.28,1.32,1.31.26.27,1.33,1.35.25.26c.45.46.9.92,1.34,1.39l.23.25,1.35,1.43a2.39,2.39,0,0,0,.22.23l1.35,1.48.2.22,1.36,1.52.18.2c.46.52.92,1,1.37,1.57l.16.18,1.38,1.61a1.15,1.15,0,0,0,.14.17l1.38,1.66.12.14,1.39,1.72.09.11,1.39,1.77.07.09q.7.9,1.41,1.83l0,0a163.15,163.15,0,0,1,12.14,18.44c-13.34-6.94-33.06-11.55-53.44-13.87C1188,118.41,1185.05,100.33,1174.66,78.53Z" style="opacity:0.30000000000000004;mix-blend-mode:multiply;fill:url(#p)"/><ellipse cx="1154.9" cy="225.82" rx="70.42" ry="63.42" transform="translate(-2.92 15.51) rotate(-0.77)" style="fill:url(#q)"/><path d="M1141,247.41c4-39.52,27.35-53.06,39.49-80.74,25.93,9.06,44.44,31.6,44.8,58.21.47,35-30.68,63.83-69.56,64.35a78.67,78.67,0,0,1-9.39-.44C1142.19,277.28,1139.26,264.7,1141,247.41Z" style="mix-blend-mode:multiply;fill:url(#r)"/><ellipse cx="1154.9" cy="225.82" rx="64.54" ry="58.13" transform="translate(-2.92 15.49) rotate(-0.77)" style="fill:url(#s)"/><ellipse cx="1154.9" cy="225.82" rx="56.22" ry="50.64" transform="translate(-2.92 15.49) rotate(-0.77)" style="fill:url(#t)"/><ellipse cx="1156.94" cy="395.79" rx="58.56" ry="17.3" transform="translate(-5.2 15.54) rotate(-0.77)" style="fill:url(#u)"/><path d="M1144.49,387.48l25.14-.34a32.86,32.86,0,0,1,30.71,20.09l4.92,11.7a6.58,6.58,0,0,1-6,9.14l-83.35,1.11a6.58,6.58,0,0,1-6.22-9l4.61-11.82A32.85,32.85,0,0,1,1144.49,387.48Z" style="fill:url(#v)"/><ellipse cx="1157.56" cy="425.28" rx="48.33" ry="16.33" transform="translate(-5.6 15.55) rotate(-0.77)" style="fill:url(#w)"/><path d="M1120.83,425.78c.09,6.85,16.61,12.18,36.89,11.91s36.66-6.05,36.56-12.9-16.61-12.19-36.89-11.91S1120.74,418.92,1120.83,425.78Z" style="fill:url(#x)"/><g style="opacity:0.30000000000000004;mix-blend-mode:color-burn"><path d="M1141,247.41c3.42-33.61,20.8-48.43,33.4-69.14,21.19,7,36.41,25.23,36.7,46.8.37,28-24.5,51-55.54,51.38a62.24,62.24,0,0,1-13.2-1.23A87.32,87.32,0,0,1,1141,247.41Z" style="fill:url(#y)"/></g><g style="clip-path:url(#z)"><path d="M797.64,960.62c-30.11-15.48-84.81-31-81.17-68C727.66,779,861,818.28,930.32,678.3c39.79-80.35,19.42-139.76,70-179.3,39-30.53,59.47,1.45,101.46-35.7,31.35-27.73,49-71.64,69.48-58.53,5.87,3.75,9.39,10.65,10.8,13.49,16.72,33.54.75,98.5-2,109.38-19,74.2-57.94,98.68-68,137.48-14.18,54.74,42.59,78.79,54.16,125,7.72,30.87,8.32,26.61-9.47,56.73-23.18,39.26-24.93,58.86-103.43,91.46C925.1,991.5,854.75,990,797.64,960.62Z" style="opacity:0.7000000000000001;fill:url(#aa)"/></g><path d="M767.73,103.66c.14.17.28.36.41.55A105.85,105.85,0,0,1,705.76,272s0,0,0,0a105.94,105.94,0,1,1,62-168.32Z" style="fill:url(#ab)"/><path d="M767.73,103.66c.14.17.28.36.41.55a78.21,78.21,0,0,1-6.75,8c-27.9,29.3-57,28.59-76.69,72.35-16.78,37.3-41.74,68.75-67.4,66.09A106.7,106.7,0,0,1,584.6,205c15.93,1.3,45.55.28,59.42-22.28,19.5-31.71,19.85-52.8,62.09-73.54C733.32,95.78,744,90.43,747.38,83.58A105.9,105.9,0,0,1,767.73,103.66Z" style="opacity:0.2;mix-blend-mode:multiply;fill:url(#ac)"/><path d="M788.83,182.78A105.86,105.86,0,0,1,705.76,272a40.62,40.62,0,0,0,7.45-9c19.5-31.71,19.85-52.79,62.09-73.54C780.37,187,784.86,184.77,788.83,182.78Z" style="opacity:0.2;mix-blend-mode:multiply;fill:url(#ad)"/><path d="M696.89,63.32c-4.82,7.4-13.74,14.92-28.5,20.87-38.55,15.52-47.19,49-76.59,66.32-5,2.92-9.2,4.18-12.81,4.23a105.84,105.84,0,0,1,117.9-91.42Z" style="opacity:0.2;mix-blend-mode:multiply;fill:url(#ae)"/><path d="M714.43,67.11c.69.2,1.36.41,2.05.63,1.72.54,3.41,1.13,5.1,1.78,30-12.48,53.29-14.72,61.8-3.71,7,9.1,2.75,25.72-10,45.83C757.82,136,729.79,165.51,694.26,193c-29.74,23-59.56,40.55-84.63,50.83C580.1,256,557.15,258,548.73,247.13c-9.89-12.8,2.61-40.47,29.69-71.8-.07-1-.12-2.08-.13-3.12-32.36,33.35-54.22,65.14-61,88.76-3.53,12.35-2.94,22.45,2.42,29.4,15.19,19.65,64.66,8.63,123.95-24a600,600,0,0,0,76.54-50.66A598.58,598.58,0,0,0,788.94,154C835.19,105,858.13,60.14,843,40.55,827.4,20.37,775.74,32.48,714.43,67.11Z" style="fill:url(#af)"/><path d="M843,40.55C858.13,60.14,835.19,105,788.94,154a598.58,598.58,0,0,1-68.74,61.73,600,600,0,0,1-76.54,50.66C584.37,299,534.9,310,519.71,290.37c-5.36-6.95-6-17.05-2.42-29.4,4.61,7.76,11.42,13.53,21.36,11.18,24.9-5.86,26.58-12.3,47.29,0s68.7-21.88,84.92-42.44,29.22-39.51,63.79-50.18,70.51-43.78,66.62-68.43S808.13,65.76,822,55.94s-10.65-23-31.67-12.13-41.64,8-53.45,12.77c-5.07,2-13,6.6-20.35,11.16-.69-.22-1.36-.43-2.05-.63C775.74,32.48,827.4,20.37,843,40.55Z" style="opacity:0.2;mix-blend-mode:multiply;fill:url(#ag)"/><g style="mix-blend-mode:multiply"><path d="M919.21,385.45c-.05.11-.11.24-.17.35-.53,1.1-1.07,2.18-1.65,3.23s-1.19,2.08-1.83,3.08a59.68,59.68,0,0,1-30.7,24.42q-2.68.95-5.44,1.63c-.92.23-1.84.43-2.78.62a59.5,59.5,0,0,1-37.1-4.43A57.38,57.38,0,0,1,818.43,398h0c-8-10.54-12.89-22.86-13.34-35.87,0-.55,0-1.1,0-1.65a59.32,59.32,0,0,1,1.28-12.61c.39-1.87.88-3.74,1.46-5.59s1.27-3.7,2.05-5.52c.28-.69.59-1.38.9-2.06a60,60,0,0,1,8.56-13.34c.51-.61,1-1.2,1.56-1.78A59.92,59.92,0,0,1,924.05,370c-.12.68-.24,1.37-.39,2.05a58.52,58.52,0,0,1-2.39,8.42c-.41,1.11-.84,2.21-1.31,3.31Q919.6,384.63,919.21,385.45Z" style="fill:url(#ah)"/><path d="M919.21,385.45c-.05.11-.11.24-.17.35-.53,1.1-1.07,2.18-1.65,3.23s-1.2,2.08-1.83,3.07C893.5,385,885.72,368.8,856.42,372c-21.34,2.33-41.85,0-51.34-9.93,0-.55,0-1.1,0-1.65a59.32,59.32,0,0,1,1.28-12.61c.39-1.87.88-3.74,1.46-5.59s1.27-3.7,2.05-5.52c.28-.69.59-1.38.9-2.06a60,60,0,0,1,8.56-13.34c3.81,10.14,12.09,25.2,27.6,25.67,23.48.73,35.81-6.35,58.84,11.78,8.3,6.53,13.81,10.84,17.9,13.3a58.68,58.68,0,0,1-2.37,8.44c-.41,1.11-.84,2.21-1.31,3.31Q919.6,384.63,919.21,385.45Z" style="opacity:0.30000000000000004;mix-blend-mode:multiply;fill:url(#ai)"/><path d="M884.86,416.53A59.89,59.89,0,0,1,818.5,397.8a22.94,22.94,0,0,0,6.43,1.43c21,1.61,31.7-3.67,53.07,12.22C880.56,413.36,882.83,415.05,884.86,416.53Z" style="opacity:0.30000000000000004;mix-blend-mode:multiply;fill:url(#aj)"/><path d="M921.19,339.38c-5-.52-11.07-3.06-17.87-8.95-17.79-15.38-36.84-11.08-53.18-21.38a14.88,14.88,0,0,1-5.45-5.36,59.89,59.89,0,0,1,76.5,35.69Z" style="opacity:0.30000000000000004;mix-blend-mode:multiply;fill:url(#ak)"/></g><circle cx="656.81" cy="386.79" r="19.36" transform="translate(-81.12 577.72) rotate(-45)" style="fill:url(#al)"/><circle cx="1354.63" cy="331.55" r="15.66" transform="translate(810.37 1615.58) rotate(-80.78)" style="fill:url(#am)"/><circle cx="991.05" cy="51.48" r="21.72" transform="translate(253.87 715.86) rotate(-45)" style="fill:url(#an)"/><path d="M1095.77,856.39l-56.88-133.23a11.71,11.71,0,0,1,8-16l104.18-25.3a11.71,11.71,0,0,1,13.61,7l52.31,128a11.72,11.72,0,0,1-7.42,15.63L1110,863A11.71,11.71,0,0,1,1095.77,856.39Z" style="fill:#26264f"/><path d="M1098.34,850l-53.13-124.45a10.93,10.93,0,0,1,7.48-14.92L1150,687a11,11,0,0,1,12.71,6.5l48.86,119.6a10.94,10.94,0,0,1-6.93,14.6l-93.05,28.47A10.94,10.94,0,0,1,1098.34,850Z" style="fill:#fff"/><path d="M1065.54,813.39l-1.7-15.69-9-17.25a16.41,16.41,0,0,1-1.87-7.61V755.72L1063.84,781s7.16-6.48,9.89-7.85,2.39,4.1.35,6.15,1,18.77-1,20.47l.68,10.24Z" style="fill:url(#ao)"/><path d="M1152.23,713.4c8.49-20.77,26.72-32.71,36.18-38.91,22.36-14.65,36.68-12,88-19.79,68.45-10.42,76.64-20.29,99.65-12.29,30.22,10.51,46,37.94,53.24,50.51,36.47,63.38-6.17,95.59,4.78,221.84,4.47,51.55,15.93,96.36-11.6,122.86-5.8,5.58-12.29,8.5-25.26,14.33-51.44,23.15-97.56,19.16-125.59,16.38-30.84-3-46.43-4.8-54.61-15.7-13.06-17.4.39-39.52,2.73-77.81,1.69-27.49-4.56-49.27-17.06-92.83C1173.68,780.72,1136,753.19,1152.23,713.4Z" style="fill:url(#ap)"/><path d="M1266.81,617.34c-3.12-11.1,2.33-21.39,3.53-23.6,5-9.28,6.32-10.54,8.72-12.15l3.33-2.06.4-.15c2.14-.76,9.43-1,10.91-.67,4.72,1,9.75,20.24,8.31,47.43.2,1,.39,2.08.57,3.13q1.11,6.45,1.79,12.62c.44,3.94,6,3.85,10,3.59,16-1,23.89.34,24.57,2.73,1.28,4.48-17.75,19.12-41.24,22.41-31.53.23-57.18-3.13-54.42-8.09,1.23-2.2,25.65-8.59,32.52-14.91,6.3-5.8,5.78-11.78,6.3-16.06C1280.16,630.57,1269.1,625.52,1266.81,617.34Z" style="fill:url(#aq)"/><path d="M1272.61,571.81c0,8.42,4,17.42,6,18.86a14.11,14.11,0,0,1,3,3.34,4,4,0,0,1,.48,1c1.84,5.31-6.6,11.55-5,13.93,1.19,1.72,6.92-.58,7.6.91s-4.12,4.3-3.39,6c.55,1.27,3.48.11,5.33,2,.92,1,.65,1.73,1.63,4.68a26.23,26.23,0,0,0,1.93,4.52c2.91,4.95,11.15,6.75,12.74,4.77.44-.55.06-1,.51-2.86a14.84,14.84,0,0,1,1.61-3.7c1.71-2.83,5.82-4.86,10-7.85,7.69-5.54,9.78-10.26,10.41-11.86.22-.57.36-1,.46-1.3,2-6.21,2-15.33-.78-20.94-4.68-9.39-15.22-4.93-23.86-14.24-10-10.74-4-25.42-9.43-27C1286,540.26,1272.56,556.24,1272.61,571.81Z" style="fill:#26264f"/><path d="M1280.22,607c2.07-2.84,5.69-.17,5.71,3.5s-3.53,7.49-7,6.76S1277.44,610.77,1280.22,607Z" style="fill:url(#ar)"/><path d="M1281.9,600.81l-4.79,6.23s-5.17,7.63-8.18,3.45c-2.46-3.41-3.1-3.34-3.25-3.19s0,.06,0,.06.37-1.7.73-3.18a28,28,0,0,0-4.1,8.79c-1,3.88-2.14,8,0,12,.13.23,2.54,4.48,7,5.51,0,0,1.77.4,9.25-.91,0,0-8.17-5.94-8.3-7.34-.34-3.84,5-5.91,8.92-13.77A31.42,31.42,0,0,0,1281.9,600.81Z" style="fill:#26264f"/><path d="M1298.3,1032.16c-9.07-18.07,13.16-42.08-1.37-69.62-12.33-23.4-34.74-18.16-45-39.59-12.44-25.9,14.62-45.25,13.66-84.64-1.16-47.09-41.68-94.23-65.53-90.1-15.43,2.67-17.41,25.69-28.27,50.89a572.06,572.06,0,0,1,31,82.89c12.5,43.56,18.75,65.34,17.06,92.83-2.34,38.29-15.79,60.41-2.73,77.81,8.18,10.9,23.77,12.65,54.61,15.7,28,2.78,74.15,6.77,125.59-16.38,6.51-2.93,11.39-5.12,15.36-7.29C1332.26,1056.73,1305.49,1046.49,1298.3,1032.16Z" style="opacity:0.30000000000000004;mix-blend-mode:multiply;fill:url(#as)"/><path d="M1062.47,810.32l15-6.48c8.46,8.65,19.25,17.06,28.32,14.33,13.53-4.07,10.15-29,26.62-72.69,18.67-49.55,39.85-62.29,50.51-66.89,6-2.58,10.08-4.28,15-3.07,22.75,5.56,30.27,64.85,23.89,109.21-3.6,25-10.65,74-50.85,97.26-5.71,3.31-37.15,21.5-68.26,7.17C1076.17,876.92,1059.74,845.51,1062.47,810.32Z" style="fill:url(#at)"/></g></svg>